<?xml version="1.0" encoding="UTF-8" standalone="no"?>
<svg
   xmlns:dc="http://purl.org/dc/elements/1.1/"
   xmlns:cc="http://creativecommons.org/ns#"
   xmlns:rdf="http://www.w3.org/1999/02/22-rdf-syntax-ns#"
   xmlns:svg="http://www.w3.org/2000/svg"
   xmlns="http://www.w3.org/2000/svg"
   xmlns:sodipodi="http://sodipodi.sourceforge.net/DTD/sodipodi-0.dtd"
   xmlns:inkscape="http://www.inkscape.org/namespaces/inkscape"
   viewBox="0 0 1024 1024"
   version="1.1"
   id="svg119"
   sodipodi:docname="404.svg"
   inkscape:version="0.92.3 (2405546, 2018-03-11)">
  <metadata
     id="metadata123">
    <rdf:RDF>
      <cc:Work
         rdf:about="">
        <dc:format>image/svg+xml</dc:format>
        <dc:type
           rdf:resource="http://purl.org/dc/dcmitype/StillImage" />
        <dc:title></dc:title>
      </cc:Work>
    </rdf:RDF>
  </metadata>
  <sodipodi:namedview
     pagecolor="#ffffff"
     bordercolor="#666666"
     borderopacity="1"
     objecttolerance="10"
     gridtolerance="10"
     guidetolerance="10"
     inkscape:pageopacity="0"
     inkscape:pageshadow="2"
     inkscape:window-width="1360"
     inkscape:window-height="705"
     id="namedview121"
     showgrid="false"
     inkscape:zoom="0.23046875"
     inkscape:cx="670.37288"
     inkscape:cy="512"
     inkscape:window-x="-8"
     inkscape:window-y="-8"
     inkscape:window-maximized="1"
     inkscape:current-layer="svg119" />
  <defs
     id="defs37">
    <linearGradient
       id="a"
       x1="50.31%"
       x2="50%"
       y1="74.74%"
       y2="0%">
      <stop
         offset="0%"
         stop-color="#FFE98A"
         id="stop2" />
      <stop
         offset="67.7%"
         stop-color="#B63E59"
         id="stop4" />
      <stop
         offset="100%"
         stop-color="#68126F"
         id="stop6" />
    </linearGradient>
    <circle
       id="c"
       cx="603"
       cy="682"
       r="93" />
    <filter
       id="b"
       width="203.2%"
       height="203.2%"
       x="-51.6%"
       y="-51.6%"
       filterUnits="objectBoundingBox">
      <feOffset
         in="SourceAlpha"
         result="shadowOffsetOuter1"
         id="feOffset10" />
      <feGaussianBlur
         in="shadowOffsetOuter1"
         result="shadowBlurOuter1"
         stdDeviation="32"
         id="feGaussianBlur12" />
      <feColorMatrix
         in="shadowBlurOuter1"
         values="0 0 0 0 1 0 0 0 0 1 0 0 0 0 1 0 0 0 1 0"
         id="feColorMatrix14" />
    </filter>
    <linearGradient
       id="d"
       x1="49.48%"
       x2="49.87%"
       y1="11.66%"
       y2="77.75%">
      <stop
         offset="0%"
         stop-color="#F7EAB9"
         id="stop17" />
      <stop
         offset="100%"
         stop-color="#E5765E"
         id="stop19" />
    </linearGradient>
    <linearGradient
       id="e"
       x1="91.59%"
       x2="66.97%"
       y1="5.89%"
       y2="100%">
      <stop
         offset="0%"
         stop-color="#A22A50"
         id="stop22" />
      <stop
         offset="100%"
         stop-color="#EE7566"
         id="stop24" />
    </linearGradient>
    <linearGradient
       id="f"
       x1="49.48%"
       x2="49.61%"
       y1="11.66%"
       y2="98.34%">
      <stop
         offset="0%"
         stop-color="#F7EAB9"
         id="stop27" />
      <stop
         offset="100%"
         stop-color="#E5765E"
         id="stop29" />
    </linearGradient>
    <linearGradient
       id="g"
       x1="78.5%"
       x2="36.4%"
       y1="106.76%"
       y2="26.41%">
      <stop
         offset="0%"
         stop-color="#A22A50"
         id="stop32" />
      <stop
         offset="100%"
         stop-color="#EE7566"
         id="stop34" />
    </linearGradient>
  </defs>
  <circle
     style="opacity:1;fill:#00a69c;fill-opacity:1;stroke:none;stroke-width:12.19647598;stroke-linecap:round;stroke-linejoin:miter;stroke-miterlimit:4;stroke-dasharray:none;stroke-opacity:1"
     id="path4619"
     cx="512"
     cy="512"
     r="512" />
  <g
     inkscape:export-ydpi="96"
     inkscape:export-xdpi="96"
     transform="matrix(4.8423526,0,0,5.0179629,191.69826,180.08399)"
     id="g4617"
     style="clip-rule:evenodd;fill:#f9f9f9;fill-opacity:1;fill-rule:evenodd;image-rendering:optimizeQuality;shape-rendering:geometricPrecision;text-rendering:geometricPrecision">
    <g
       style="fill:#f9f9f9;fill-opacity:1"
       id="g4615">
      <metadata
         id="metadata4561" />
      <g
         style="fill:#f9f9f9;fill-opacity:1"
         id="g4613">
        <path
           style="fill:#f9f9f9;fill-opacity:1"
           inkscape:connector-curvature="0"
           id="path4563"
           class="fil0"
           d="M 127.623,78.7466 66.8844,53.5685 c -0.2844,-0.118 -0.5821,-0.1756 -0.8742,-0.16 -0.2925,-0.0156 -0.5916,0.0349 -0.8742,0.16 L 4.6696,78.7466 c -1.0105,0.4203 -1.5099,1.6748 -1.0681,2.7217 l 17.6138,37.8825 c 0.9426,0.4375 6.8026,0.8339 9.9452,-4.2531 1.9033,-2.8232 3.3452,-3.5495 5.5771,-3.6138 3.7619,-0.108 3.9522,1.4184 6.0436,3.7062 3.7178,6.2022 13.411,5.7247 17.2295,0.08 2.2621,-4.3611 8.0109,-5.743 11.4892,-0.2621 3.2215,5.7742 12.7793,6.5222 17.4257,0.0569 2.5341,-5.0196 9.015,-4.2266 11.2543,-0.4065 0.797,1.4936 3.8346,5.8981 10.3181,4.6586 l 18.1935,-37.8487 c 0.4416,-1.0469 -0.0657,-2.2782 -1.0685,-2.7217 z m -70.0553,10.395 0.8246,0.2558 c 0.4454,0.1378 0.8747,-0.2575 0.771,-0.7136 L 58.2921,84.836 c -0.1038,-0.4542 -0.6599,-0.6278 -1.0034,-0.3112 l -2.8961,2.6795 c -0.3434,0.3167 -0.2146,0.8854 0.2326,1.0251 l 0.7548,0.2343 c -0.4507,0.5169 -0.9819,0.9606 -1.5758,1.3112 -0.6727,0.397 -1.4114,0.6671 -2.1805,0.7959 v -6.4252 h 1.8585 c 0.5921,0 1.0732,-0.4812 1.0732,-1.0733 0,-0.592 -0.4811,-1.0732 -1.0732,-1.0732 h -1.8585 v -0.8854 c 1.1591,-0.4365 1.9855,-1.5544 1.9855,-2.8639 0,-1.6867 -1.372,-3.0587 -3.0587,-3.0587 -1.6869,0 -3.0589,1.372 -3.0589,3.0587 0,1.3095 0.8265,2.4291 1.9856,2.8639 v 0.8854 h -1.8586 c -0.592,0 -1.0732,0.4812 -1.0732,1.0732 0,0.5921 0.4812,1.0733 1.0732,1.0733 h 1.8586 v 6.4252 c -0.7674,-0.1306 -1.5079,-0.3989 -2.1804,-0.7959 -0.5921,-0.3524 -1.1252,-0.7961 -1.576,-1.313 l 0.7549,-0.2344 c 0.4454,-0.1378 0.5742,-0.7065 0.2325,-1.0249 l -2.896,-2.6778 c -0.3434,-0.3166 -0.8997,-0.143 -1.0035,0.3112 l -0.871,3.8495 c -0.1039,0.4544 0.3254,0.8514 0.7708,0.7137 l 0.8246,-0.2558 c 0.7013,1.0052 1.6135,1.8531 2.6706,2.4792 1.3112,0.7763 2.8155,1.186 4.3468,1.186 1.5311,0 3.0336,-0.4097 4.3466,-1.186 1.0571,-0.6278 1.9693,-1.4757 2.6706,-2.481 z M 51.4627,78.248 c 0,0.1395 -0.0322,0.272 -0.0876,0.3918 -0.1467,0.3077 -0.4615,0.5205 -0.8246,0.5205 -0.3632,0 -0.6779,-0.2128 -0.8246,-0.5205 -0.0573,-0.1181 -0.0878,-0.2503 -0.0878,-0.3918 0,-0.5025 0.4097,-0.9122 0.9124,-0.9122 0.5025,0 0.9122,0.4097 0.9122,0.9122 z m 15.9829,28.9853 c 1.0773,0 1.951,-0.8735 1.951,-1.9508 0,-0.0606 -0.0032,-0.1185 -0.0085,-0.1731 V 68.311 c 0.0053,-0.0548 0.0085,-0.1126 0.0085,-0.1731 0,-0.0606 -0.0032,-0.1205 -0.0085,-0.1796 v -0.0785 h -0.0085 c -0.1266,-0.9555 -0.9442,-1.6927 -1.934,-1.6927 -0.9897,0 -1.8076,0.7375 -1.9338,1.6927 h -0.0086 v 0.0785 c -0.0056,0.0592 -0.0084,0.119 -0.0084,0.1796 0,0.0605 0.0032,0.1183 0.0084,0.1731 v 36.7984 c -0.0052,0.0546 -0.0084,0.1125 -0.0084,0.1731 0,1.0773 0.8737,1.9508 1.9508,1.9508 z" />
        <g
           style="fill:#f9f9f9;fill-opacity:1"
           id="g4589">
          <path
             style="fill:#f9f9f9;fill-opacity:1;fill-rule:nonzero"
             inkscape:connector-curvature="0"
             id="path4565"
             class="fil1"
             d="m 38.9269,117.685 c -0.8482,2.9409 -3.1474,5.4867 -6.3615,7.4323 -2.9999,1.8163 -6.7188,2.9646 -10.4253,2.8889 -3.2317,-0.0658 -6.8959,-1.2386 -9.8986,-3.0985 -2.9025,-1.7981 -5.2598,-4.2793 -6.1741,-7.1102 l 4.1402,-1.3291 c 0.5752,1.781 2.232,3.4502 4.317,4.7417 2.378,1.4729 5.2298,2.4012 7.7008,2.4513 2.859,0.0581 5.747,-0.8393 8.0909,-2.2584 2.3202,-1.4046 4.0005,-2.9257 4.5387,-4.7912 z" />
          <path
             inkscape:connector-curvature="0"
             id="path4567"
             d="M 10.37973,117.323 A 2.1986899,2.0957699 0 0 1 8.1810398,119.41877 2.1986899,2.0957699 0 0 1 5.9823499,117.323 2.1986899,2.0957699 0 0 1 8.1810398,115.22723 2.1986899,2.0957699 0 0 1 10.37973,117.323 Z"
             style="fill:#f9f9f9;fill-opacity:1" />
          <path
             inkscape:connector-curvature="0"
             id="path4569"
             d="m 38.975071,117.48 a 2.1640699,2.0957699 0 0 1 -2.16407,2.09577 2.1640699,2.0957699 0 0 1 -2.16407,-2.09577 2.1640699,2.0957699 0 0 1 2.16407,-2.09577 2.1640699,2.0957699 0 0 1 2.16407,2.09577 z"
             style="fill:#f9f9f9;fill-opacity:1" />
          <path
             style="fill:#f9f9f9;fill-opacity:1;fill-rule:nonzero"
             inkscape:connector-curvature="0"
             id="path4571"
             class="fil1"
             d="m 67.5519,117.821 c -0.8482,2.9409 -3.1473,5.4867 -6.3614,7.4323 -2.9999,1.8163 -6.7188,2.9647 -10.4254,2.8889 -3.2317,-0.0658 -6.8959,-1.2386 -9.8986,-3.0985 -2.9025,-1.7981 -5.2598,-4.2793 -6.1741,-7.1102 l 4.1402,-1.3291 c 0.5753,1.7811 2.2321,3.4503 4.317,4.7417 2.378,1.4729 5.2298,2.4012 7.7009,2.4513 2.8589,0.0581 5.7469,-0.8393 8.0909,-2.2584 2.3202,-1.4046 4.0005,-2.9257 4.5386,-4.7912 z" />
          <path
             inkscape:connector-curvature="0"
             id="path4573"
             d="m 39.004789,117.46 a 2.1986899,2.0957699 0 0 1 -2.19869,2.09577 2.1986899,2.0957699 0 0 1 -2.19869,-2.09577 2.1986899,2.0957699 0 0 1 2.19869,-2.09577 2.1986899,2.0957699 0 0 1 2.19869,2.09577 z"
             style="fill:#f9f9f9;fill-opacity:1" />
          <path
             inkscape:connector-curvature="0"
             id="path4575"
             d="m 67.600166,117.617 a 2.1640699,2.0957699 0 0 1 -2.16407,2.09577 2.1640699,2.0957699 0 0 1 -2.16407,-2.09577 2.1640699,2.0957699 0 0 1 2.16407,-2.09577 2.1640699,2.0957699 0 0 1 2.16407,2.09577 z"
             style="fill:#f9f9f9;fill-opacity:1" />
          <path
             style="fill:#f9f9f9;fill-opacity:1;fill-rule:nonzero"
             inkscape:connector-curvature="0"
             id="path4577"
             class="fil1"
             d="m 96.4493,117.549 c -0.8482,2.9409 -3.1474,5.4867 -6.3615,7.4323 -2.9999,1.8163 -6.7188,2.9646 -10.4253,2.8889 -3.2317,-0.0658 -6.8959,-1.2386 -9.8986,-3.0985 -2.9025,-1.7981 -5.2598,-4.2794 -6.1741,-7.1102 l 4.1402,-1.3292 c 0.5752,1.7811 2.232,3.4503 4.317,4.7418 2.378,1.4729 5.2298,2.4012 7.7008,2.4512 2.859,0.0582 5.747,-0.8392 8.0909,-2.2583 2.3202,-1.4046 4.0005,-2.9258 4.5387,-4.7912 z" />
          <path
             inkscape:connector-curvature="0"
             id="path4579"
             d="m 67.902189,117.187 a 2.1986899,2.0957699 0 0 1 -2.19869,2.09577 2.1986899,2.0957699 0 0 1 -2.19869,-2.09577 2.1986899,2.0957699 0 0 1 2.19869,-2.09577 2.1986899,2.0957699 0 0 1 2.19869,2.09577 z"
             style="fill:#f9f9f9;fill-opacity:1" />
          <path
             inkscape:connector-curvature="0"
             id="path4581"
             d="m 96.497467,117.344 a 2.1640699,2.0957699 0 0 1 -2.16407,2.09577 2.1640699,2.0957699 0 0 1 -2.16407,-2.09577 2.1640699,2.0957699 0 0 1 2.16407,-2.09577 2.1640699,2.0957699 0 0 1 2.16407,2.09577 z"
             style="fill:#f9f9f9;fill-opacity:1" />
          <path
             style="fill:#f9f9f9;fill-opacity:1;fill-rule:nonzero"
             inkscape:connector-curvature="0"
             id="path4583"
             class="fil1"
             d="m 125.62,117.549 c -0.8482,2.9409 -3.1474,5.4867 -6.3615,7.4323 -2.9999,1.8163 -6.7188,2.9646 -10.4253,2.8889 -3.2317,-0.0658 -6.8959,-1.2386 -9.8986,-3.0985 -2.9025,-1.7981 -5.2598,-4.2794 -6.1741,-7.1102 l 4.1402,-1.3292 c 0.5752,1.7811 2.2321,3.4503 4.317,4.7418 2.378,1.4729 5.2298,2.4012 7.7008,2.4512 2.859,0.0582 5.747,-0.8392 8.091,-2.2583 2.3201,-1.4046 4.0004,-2.9258 4.5386,-4.7912 z" />
          <path
             inkscape:connector-curvature="0"
             id="path4585"
             d="m 97.072492,117.187 a 2.1986899,2.0957699 0 0 1 -2.19869,2.09577 2.1986899,2.0957699 0 0 1 -2.19869,-2.09577 2.1986899,2.0957699 0 0 1 2.19869,-2.09577 2.1986899,2.0957699 0 0 1 2.19869,2.09577 z"
             style="fill:#f9f9f9;fill-opacity:1" />
          <path
             inkscape:connector-curvature="0"
             id="path4587"
             d="m 125.66807,117.344 a 2.1640699,2.0957699 0 0 1 -2.16407,2.09577 2.1640699,2.0957699 0 0 1 -2.16407,-2.09577 2.1640699,2.0957699 0 0 1 2.16407,-2.09577 2.1640699,2.0957699 0 0 1 2.16407,2.09577 z"
             style="fill:#f9f9f9;fill-opacity:1" />
        </g>
        <g
           style="fill:#f9f9f9;fill-opacity:1"
           id="g4605">
          <path
             inkscape:connector-curvature="0"
             id="path4591"
             d="m 123.792,72.8941 -37.7,-15.6277 v -3.6265 h 37.894 v 19.2542 z"
             style="fill:#f9f9f9;fill-opacity:1" />
          <path
             style="fill:#f9f9f9;fill-opacity:1"
             inkscape:connector-curvature="0"
             id="path4593"
             class="fil0"
             d="m 86.092,28.8657 h 35.3104 c 1.421,0 2.5836,1.1625 2.5836,2.5835 V 49.823 H 86.092 Z" />
          <path
             inkscape:connector-curvature="0"
             id="path4595"
             d="m 49.2888,53.6399 h 5.6515 l -5.6515,2.3428 z"
             style="fill:#f9f9f9;fill-opacity:1" />
          <path
             inkscape:connector-curvature="0"
             id="path4597"
             d="m 82.2751,55.6844 -4.9322,-2.0445 h 4.9322 z"
             style="fill:#f9f9f9;fill-opacity:1" />
          <path
             inkscape:connector-curvature="0"
             id="path4599"
             d="M 82.2751,28.8657 V 49.823 H 49.2888 V 28.8657 Z"
             style="fill:#f9f9f9;fill-opacity:1" />
          <path
             inkscape:connector-curvature="0"
             id="path4601"
             d="M 7.8509,53.6399 H 45.472 v 3.9248 L 8.4914,72.8941 H 7.8509 Z"
             style="fill:#f9f9f9;fill-opacity:1" />
          <path
             style="fill:#f9f9f9;fill-opacity:1"
             inkscape:connector-curvature="0"
             id="path4603"
             class="fil0"
             d="M 10.1992,28.8657 H 45.472 V 49.823 H 7.8509 V 31.214 c 0,-1.2918 1.0566,-2.3483 2.3483,-2.3483 z" />
        </g>
        <g
           style="fill:#f9f9f9;fill-opacity:1"
           id="g4611">
          <path
             style="fill:#f9f9f9;fill-opacity:1"
             inkscape:connector-curvature="0"
             id="path4607"
             class="fil0"
             d="m 67.7523,4.1454 h 35.3105 c 1.4209,0 2.5835,1.1626 2.5835,2.5836 v 18.3738 h -37.894 z" />
          <path
             style="fill:#f9f9f9;fill-opacity:1"
             inkscape:connector-curvature="0"
             id="path4609"
             class="fil0"
             d="M 28.5389,4.1454 H 63.8116 V 25.1028 H 26.1906 V 6.4937 c 0,-1.2917 1.0565,-2.3483 2.3483,-2.3483 z" />
        </g>
      </g>
    </g>
  </g>
</svg>
