<?xml version="1.0" encoding="UTF-8" standalone="no"?>
<!-- Created with Inkscape (http://www.inkscape.org/) -->

<svg
   xmlns:dc="http://purl.org/dc/elements/1.1/"
   xmlns:cc="http://creativecommons.org/ns#"
   xmlns:rdf="http://www.w3.org/1999/02/22-rdf-syntax-ns#"
   xmlns:svg="http://www.w3.org/2000/svg"
   xmlns="http://www.w3.org/2000/svg"
   xmlns:sodipodi="http://sodipodi.sourceforge.net/DTD/sodipodi-0.dtd"
   xmlns:inkscape="http://www.inkscape.org/namespaces/inkscape"
   width="185.20833mm"
   height="92.604172mm"
   viewBox="0 0 185.20833 92.604172"
   version="1.1"
   id="svg1707"
   inkscape:version="0.92.3 (2405546, 2018-03-11)"
   sodipodi:docname="bellezagemei.svg">
  <defs
     id="defs1701">
    <filter
       inkscape:collect="always"
       style="color-interpolation-filters:sRGB"
       id="filter2300"
       x="-0.015818651"
       width="1.0316373"
       y="-0.049709649"
       height="1.0994193">
      <feGaussianBlur
         inkscape:collect="always"
         stdDeviation="1.123288"
         id="feGaussianBlur2302" />
    </filter>
  </defs>
  <sodipodi:namedview
     id="base"
     pagecolor="#ffffff"
     bordercolor="#666666"
     borderopacity="1.0"
     inkscape:pageopacity="0.0"
     inkscape:pageshadow="2"
     inkscape:zoom="0.49497475"
     inkscape:cx="53.946131"
     inkscape:cy="69.149564"
     inkscape:document-units="mm"
     inkscape:current-layer="layer1"
     showgrid="false"
     fit-margin-top="0"
     fit-margin-left="0"
     fit-margin-right="0"
     fit-margin-bottom="0"
     inkscape:window-width="1360"
     inkscape:window-height="705"
     inkscape:window-x="-8"
     inkscape:window-y="-8"
     inkscape:window-maximized="1" />
  <metadata
     id="metadata1704">
    <rdf:RDF>
      <cc:Work
         rdf:about="">
        <dc:format>image/svg+xml</dc:format>
        <dc:type
           rdf:resource="http://purl.org/dc/dcmitype/StillImage" />
        <dc:title></dc:title>
      </cc:Work>
    </rdf:RDF>
  </metadata>
  <g
     inkscape:label="Capa 1"
     inkscape:groupmode="layer"
     id="layer1"
     transform="translate(-1.8898859,-58.68601)">
    <rect
       style="opacity:1;fill:none;fill-opacity:1;stroke:#ff00cc;stroke-width:0.56287104;stroke-linecap:round;stroke-linejoin:miter;stroke-miterlimit:4;stroke-dasharray:none;stroke-opacity:1"
       id="rect1679"
       width="184.64546"
       height="92.041298"
       x="2.1713214"
       y="58.967445" />
    <path
       inkscape:connector-curvature="0"
       id="path2294"
       d="m 26.463053,131.95155 c -3.67082,-0.33771 -4.62787,-0.69146 -5.62426,-2.0789 -0.84216,-1.17269 -0.9172,-1.21154 -2.34057,-1.21154 -1.45599,0 -1.48638,-0.0174 -3.07555,-1.7535 -0.88277,-0.96443 -2.01476,-2.32518 -2.51553,-3.0239 l -0.91051,-1.2704 h 5.49887 c 3.36937,0 5.56465,0.10646 5.66876,0.2749 0.0934,0.15119 0.45742,0.2749 0.80886,0.2749 0.40777,0 0.69097,0.19893 0.78273,0.5498 0.14031,0.53654 0.009,0.5498 -5.46594,0.5498 -3.08534,0 -5.60973,0.0791 -5.60973,0.17587 0,0.0967 0.21649,0.3402 0.48108,0.54105 0.38541,0.29257 3.33155,0.36693 14.81417,0.37394 13.855811,0.008 14.354701,-0.009 14.98206,-0.53192 l 0.648981,-0.54065 -4.575161,-0.009 c -3.91283,-0.008 -4.59933,-0.0721 -4.74204,-0.44398 -0.46625,-1.21505 -0.46847,-1.21456 5.551071,-1.21456 5.77369,0 6.377689,-0.0974 6.377689,-1.02898 0,-0.29534 -0.889021,-0.36166 -4.443611,-0.3315 -4.390649,0.0373 -4.447699,0.0301 -4.786639,-0.60323 -0.18866,-0.35252 -0.28473,-0.73528 -0.21347,-0.85057 0.0713,-0.11529 2.39638,-0.20962 5.166921,-0.20962 4.75611,0 5.045178,-0.0298 5.176999,-0.53389 0.0767,-0.29363 0.0705,-0.6029 -0.01381,-0.68725 -0.0844,-0.0844 -2.103441,-0.15337 -4.48685,-0.15337 -4.28467,0 -4.33445,-0.007 -4.42131,-0.61852 -0.087,-0.61213 -0.13912,-0.6193 -5.05043,-0.69324 l -4.96261,-0.0747 -0.74159,-1.51205 c -0.40786,-0.83163 -0.74158,-1.57117 -0.74158,-1.64341 0,-0.0723 4.74942,-0.13137 10.55426,-0.13137 9.37051,0 10.572962,-0.0488 10.72111,-0.43483 0.0918,-0.23916 0.16686,-0.48657 0.16686,-0.5498 0,-0.0632 -4.500809,-0.11496 -10.0018,-0.11496 h -10.0018 l -0.16576,-0.61853 c -0.0911,-0.34019 -0.16751,-0.74223 -0.16966,-0.89342 -0.002,-0.17979 3.52344,-0.24776 10.19075,-0.19644 10.044179,0.0773 10.19679,0.0702 10.34048,-0.47917 0.138399,-0.52929 0.200809,-0.51409 1.227051,0.29871 1.035827,0.82038 1.077809,0.91558 0.999328,2.26603 -0.0796,1.3698 -0.107209,1.4121 -0.97536,1.49581 -1.12005,0.10799 -1.1567,0.47973 -0.0687,0.69732 0.725919,0.14519 0.824709,0.27904 0.824709,1.11737 0,0.89943 -0.0574,0.95803 -1.03088,1.05305 l -1.03087,0.10063 0.893421,0.35522 c 0.919671,0.36565 0.97299,0.50353 0.648269,1.67593 -0.142578,0.51479 -0.428889,0.72701 -1.140928,0.84568 l -0.950561,0.15843 0.746998,0.31243 c 0.722673,0.30226 0.734661,0.34186 0.368031,1.21607 -0.26915,0.64177 -0.60511,0.94603 -1.159349,1.04991 -0.726062,0.13608 -0.743151,0.16764 -0.245549,0.45336 0.517789,0.29731 0.510759,0.33867 -0.220171,1.29697 -0.609631,0.79929 -0.93754,0.98986 -1.70316,0.98986 -1.022921,0 -1.23799,0.36028 -0.471209,0.78939 0.500668,0.28018 0.517348,0.26004 -1.560031,1.88214 -0.260289,0.20326 -1.374331,0.33832 -2.834241,0.34363 -2.597728,0.01 -2.850688,0.18656 -1.825278,1.27805 l 0.5801,0.61748 -1.06118,0.28435 c -4.25616,1.14044 -8.57398,1.51561 -12.88188,1.1193 z m 5.91757,-3.02682 c 2.58129,-0.31713 6.51245,-1.28959 6.74694,-1.66901 0.087,-0.14047 -4.3538,-0.24401 -10.4653,-0.24401 -6.42146,0 -10.55411,0.10031 -10.4592,0.25389 0.23457,0.37955 2.48116,1.06025 4.9612,1.50319 2.68472,0.47951 6.11082,0.53747 9.21636,0.15594 z m 16.162301,-12.94435 c -0.0855,-0.56959 -0.20895,-0.58527 -4.651981,-0.59102 -2.510269,-0.003 -4.70603,0.0818 -4.87947,0.18899 -0.17344,0.10719 -0.31535,0.37316 -0.31535,0.59102 0,0.33029 0.82561,0.39613 4.96732,0.39613 4.911519,0 4.966341,-0.007 4.879481,-0.58512 z m 115.786746,14.39886 c 0.002,-0.26459 0.49719,-3.32629 1.09985,-6.80378 0.60266,-3.47749 1.64838,-9.53904 2.32383,-13.47012 0.67545,-3.93107 1.30932,-7.54944 1.40861,-8.04083 l 0.18053,-0.89342 h -3.62991 -3.62991 l 0.14458,-0.75598 c 0.0795,-0.415786 0.22393,-1.281722 0.32091,-1.9243 l 0.17632,-1.168328 h 6.32039 6.32038 l -0.15462,0.755975 c -0.085,0.415788 -0.39981,2.178583 -0.69948,3.917333 -0.71231,4.13301 -4.00457,23.05516 -4.5797,26.3217 l -0.44771,2.54283 h -2.57909 c -2.27458,0 -2.57861,-0.0568 -2.57498,-0.48108 z m -78.351337,-0.41425 c 2.64e-4,-0.11445 0.607861,-3.57819 1.350041,-7.69721 0.742159,-4.11903 2.195219,-12.22085 3.22902,-18.00407 l 1.879619,-10.514929 h 2.5439 c 1.46304,0 2.543881,0.11348 2.543881,0.267084 0,0.146899 -0.20493,1.199652 -0.455379,2.339451 -0.250442,1.139801 -0.400312,2.127422 -0.333021,2.194711 0.0673,0.06728 0.756909,-0.181351 1.532509,-0.552532 4.585197,-2.194394 9.531767,-1.903064 11.713577,0.689874 l 0.70614,0.8392 1.58096,-1.107463 c 4.05369,-2.839628 10.15744,-2.94857 14.10931,-0.251836 1.87977,1.282745 3.26538,3.58538 3.29635,5.47792 0.0125,0.76326 -1.50626,9.86203 -3.31525,19.86154 l -1.18113,6.52889 h -4.61787 c -2.65107,0 -4.61788,-0.10848 -4.61788,-0.2547 0,-0.14008 0.25272,-1.53176 0.5616,-3.09263 0.72921,-3.68498 3.46182,-18.68611 3.70033,-20.31364 0.23253,-1.58673 -0.21345,-3.27443 -1.1637,-4.40374 -1.91989,-2.281672 -6.09215,-2.156834 -7.31577,0.2189 -0.21759,0.42247 -0.66048,2.99482 -0.98418,5.71633 -0.85733,7.20783 -0.51826,6.46016 -2.92968,6.46016 -1.44787,0 -2.04035,-0.0997 -2.04139,-0.34362 -8e-4,-0.189 0.25883,-2.60791 0.57701,-5.37536 0.65348,-5.68367 0.58652,-6.15656 -1.04799,-7.40327 -1.11392,-0.84962 -3.32872,-1.1374 -4.86121,-0.63164 -1.315194,0.43406 -3.572947,2.23971 -4.402337,3.52079 -0.547539,0.84577 -1.049948,3.15261 -2.88721,13.257 -1.22337,6.72819 -2.223669,12.31706 -2.22286,12.41973 7.94e-4,0.10266 -1.112178,0.22637 -2.47329,0.2749 -1.361088,0.0485 -2.474439,-0.005 -2.4741,-0.11984 z m -19.307419,-2.1376 c -11.06546,-1.86324 -15.82438,-12.15103 -9.86953,-21.33583 4.144878,-6.39307 13.648989,-10.218537 20.85807,-8.395513 4.574778,1.156864 7.906129,3.432933 9.399918,6.422273 1.002451,2.00607 1.039601,2.78839 0.372991,7.85495 l -0.479229,3.64243 h -11.87528 c -13.363832,0 -12.285419,-0.19546 -11.86356,2.15031 0.392729,2.18392 1.928231,3.67918 4.36639,4.25194 l 1.41673,0.33281 -0.168571,1.621 c -0.0927,0.89155 -0.168598,2.09767 -0.168598,2.68028 0,0.68139 -0.122571,1.04774 -0.343612,1.02694 -0.18901,-0.0178 -0.929579,-0.131 -1.645719,-0.25159 z m 12.26869,-17.46963 c 0.0918,-0.23915 0.166848,-1.20934 0.166848,-2.15596 0,-2.31131 -0.814707,-3.87323 -2.488588,-4.77091 -1.085422,-0.58211 -1.500071,-0.6441 -3.696661,-0.55266 -2.092939,0.0871 -2.69807,0.22529 -3.92789,0.89676 -2.263378,1.23582 -4.324239,3.80813 -5.126739,6.39908 l -0.191579,0.61853 h 7.548888 c 6.629982,0 7.56916,-0.0529 7.715721,-0.43484 z m 62.569236,17.33147 c -5.80527,-1.2293 -9.63335,-4.33838 -11.24984,-9.13686 -1.02094,-3.03063 -0.54222,-7.31404 1.20216,-10.75641 3.50659,-6.91993 13.43479,-11.493365 21.30892,-9.815975 5.48828,1.169148 9.97671,4.908485 10.60454,8.834715 0.10287,0.64333 -0.0632,2.7424 -0.39849,5.0366 -0.31618,2.16346 -0.57487,3.98419 -0.57487,4.04606 0,0.0619 -5.35025,0.14474 -11.88944,0.18415 l -11.88944,0.0716 -0.0953,0.67517 c -0.12676,0.89839 0.43759,2.72154 1.10839,3.58068 0.77072,0.98713 2.35987,1.88623 3.68517,2.08497 l 1.13873,0.17076 -0.11104,1.28006 c -0.30101,3.47019 -0.42324,4.16529 -0.72883,4.14466 -0.17812,-0.012 -1.12793,-0.19212 -2.1107,-0.40023 z m 13.0234,-17.7557 c 0.48076,-2.40384 -0.17,-4.82765 -1.59768,-5.95067 -1.18516,-0.93225 -2.52132,-1.23962 -4.79549,-1.10316 -2.47686,0.14862 -4.39195,1.00131 -6.11197,2.72133 -1.02524,1.02524 -2.71674,4.04311 -2.71725,4.84794 -1.7e-4,0.26654 1.68801,0.34363 7.52518,0.34363 h 7.5254 z m -143.716087,10.5493 -0.42587,-0.89342 h 5.08122 c 2.79466,0 5.08121,-0.07 5.08121,-0.15553 0,-0.0855 -0.12807,-0.3948 -0.28459,-0.68725 -0.26498,-0.49514 -0.62136,-0.53173 -5.17897,-0.53173 h -4.8944 l -0.3190301,-0.70018 c -0.17546,-0.3851 -0.31904,-0.75622 -0.31904,-0.8247 0,-0.0685 2.2353101,-0.12452 4.9673401,-0.12452 4.92617,0 4.96659,-0.005 4.87948,-0.59078 -0.0861,-0.57912 -0.17867,-0.59006 -4.68755,-0.55402 l -4.5997,0.0368 -0.4172401,-0.80683 c -0.22946,-0.44376 -0.41722,-0.87483 -0.41722,-0.95793 0,-0.0831 2.2267001,-0.1511 4.9482101,-0.1511 4.76493,0 4.9482,-0.0204 4.9482,-0.5498 0,-0.52812 -0.18327,-0.5498 -4.64641,-0.5498 H 9.8853629 l -0.30177,-0.86573 c -0.16599,-0.47615 -0.30189,-0.87819 -0.30197,-0.89342 -10e-5,-0.0152 2.2575101,-0.0277 5.0169201,-0.0277 4.99363,0 5.01752,-0.003 5.10496,-0.61852 l 0.0878,-0.61853 h -4.41045 -4.41047 l -0.41941,-0.81105 c -0.23067,-0.44608 -0.4194101,-0.87905 -0.4194101,-0.96215 0,-0.0831 2.3359601,-0.1511 5.1910401,-0.1511 4.93857,0 5.19795,-0.0264 5.33308,-0.54313 0.13648,-0.52193 -0.0294,-0.54606 -4.25264,-0.61852 l -4.39465,-0.0754 -0.37533,-0.89343 -0.37536,-0.89343 h 5.24824 c 4.67597,0 5.28809,-0.0525 5.61346,-0.48107 0.20085,-0.26459 0.36911,-0.57386 0.37392,-0.68725 0.005,-0.1134 -1.9736,-0.20618 -4.39646,-0.20618 h -4.40521 l -0.2681,-0.70515 c -0.14746,-0.38782 -0.2681,-0.75894 -0.2681,-0.8247 0,-0.0658 2.45493,-0.11955 5.45541,-0.11955 4.93598,0 5.49871,-0.0479 5.91036,-0.50272 0.25022,-0.2765 0.45495,-0.58262 0.45495,-0.68027 0,-0.0977 -1.93345,-0.21162 -4.29654,-0.25326 -4.10949,-0.07241 -4.31441,-0.102624 -4.70684,-0.694227 l -0.41029,-0.618527 h 5.77149 c 5.40473,0 5.85669,-0.0393 7.11221,-0.618524 l 1.34072,-0.618527 -4.6733,-0.07425 c -4.46471,-0.07094 -4.6945,-0.101613 -5.14828,-0.68725 -0.26122,-0.337151 -0.4777,-0.705781 -0.48108,-0.819176 -0.003,-0.113398 6.1576,-0.206177 13.691,-0.206177 h 13.697081 l 0.597728,0.636244 c 0.32875,0.349932 0.59772,0.718727 0.59772,0.819541 0,0.100814 -2.814288,0.216543 -6.253969,0.257183 l -6.25398,0.07389 1.34071,0.618525 c 1.25564,0.579273 1.7073,0.618524 7.117101,0.618524 5.17892,0 5.81416,0.04976 6.141569,0.481076 0.20085,0.264591 0.36911,0.573855 0.37393,0.687253 0.005,0.113395 -2.403509,0.206172 -5.351809,0.206172 -2.948302,0 -5.360551,0.07 -5.360551,0.15552 0,0.0855 0.12805,0.3948 0.28457,0.68725 0.24979,0.46675 0.19068,0.53173 -0.48368,0.53173 -0.47053,0 -0.9013,-0.21306 -1.1116,-0.5498 -0.18992,-0.3041 -0.64108,-0.5498 -1.00956,-0.5498 -0.42798,0 -0.87836,-0.29796 -1.25957,-0.833304 -0.56306,-0.790737 -0.68337,-0.830829 -2.35537,-0.784831 -0.9691,0.02666 -1.76201,0.11534 -1.76201,0.197064 0,0.08173 0.26897,0.434896 0.59773,0.784831 l 0.59772,0.63624 h -0.59478 c -0.32712,0 -1.24554,0.24735 -2.04094,0.54967 -0.88569,0.33662 -2.11208,0.54971 -3.16432,0.5498 -1.80834,1.4e-4 -2.20792,0.33855 -1.03224,0.87423 l 0.68588,0.3125 -1.14397,1.0561 c -0.87507,0.80785 -1.37553,1.05825 -2.12909,1.06525 l -0.98514,0.009 0.63249,0.52731 c 0.60426,0.50376 0.61314,0.5647 0.19912,1.36535 -0.35691,0.69016 -0.60191,0.83805 -1.38847,0.83805 -1.12839,0 -1.22552,0.31216 -0.25824,0.82984 0.41438,0.22177 0.63678,0.52954 0.54863,0.75924 -0.0815,0.21246 -0.22296,0.68407 -0.31431,1.04801 -0.12753,0.50816 -0.35052,0.66171 -0.96098,0.66171 -0.94715,0 -0.99115,0.1653 -0.21196,0.79625 0.49573,0.40142 0.5538,0.64448 0.38819,1.62474 -0.1578,0.93401 -0.30751,1.15437 -0.78911,1.16145 -0.55263,0.008 -0.56059,0.0344 -0.11329,0.37394 0.66599,0.50556 0.68281,2.64122 0.0208,2.64122 -0.39974,0 -0.38613,0.0814 0.10359,0.61853 0.59115,0.64845 1.29227,2.48507 1.13211,2.96557 -0.0582,0.17442 -2.03487,0.30346 -5.22725,0.34123 l -5.13376,0.0607 z m 31.838759,-13.19521 c -0.0812,-0.26459 -0.384868,-1.00682 -0.675049,-1.64941 l -0.52759,-1.16832 h 5.749581 5.74957 l 0.569558,1.52226 c 0.313262,0.83725 0.569561,1.57948 0.569561,1.64941 0,0.0699 -2.539839,0.12713 -5.644089,0.12713 -5.13587,0 -5.657361,-0.0433 -5.791542,-0.48107 z m -1.815539,-5.01867 -0.46827,-0.82296 h 5.478151 5.47816 l 0.426469,0.8247 0.426471,0.8247 -5.43633,-0.002 -5.436341,-0.002 -0.46831,-0.82296 z m -14.46374,-8.65762 -0.31313,-0.68725 h 7.78084 7.78084 l 0.64565,0.68725 0.645631,0.687247 h -8.113361 -8.11335 z M 172.87322,88.991226 c -1.57497,-0.55186 -2.08944,-1.546349 -2.07535,-4.011779 0.01,-1.75929 0.14602,-2.40092 0.78599,-3.70896 0.85383,-1.74515 2.38662,-3.06738 3.88089,-3.34768 3.20086,-0.6005 5.40718,4.22435 3.58031,7.82952 -0.88502,1.746501 -2.12887,2.96123 -3.39122,3.311829 -1.2593,0.349742 -1.59984,0.34081 -2.78062,-0.0729 z"
       style="opacity:0.9;fill:#999999;stroke-width:0.27490029;filter:url(#filter2300)" />
    <path
       style="fill:#ff55dd;stroke-width:0.27490029"
       d="m 26.463053,131.95155 c -3.67082,-0.33771 -4.62787,-0.69146 -5.62426,-2.0789 -0.84216,-1.17269 -0.9172,-1.21154 -2.34057,-1.21154 -1.45599,0 -1.48638,-0.0174 -3.07555,-1.7535 -0.88277,-0.96443 -2.01476,-2.32518 -2.51553,-3.0239 l -0.91051,-1.2704 h 5.49887 c 3.36937,0 5.56465,0.10646 5.66876,0.2749 0.0934,0.15119 0.45742,0.2749 0.80886,0.2749 0.40777,0 0.69097,0.19893 0.78273,0.5498 0.14031,0.53654 0.009,0.5498 -5.46594,0.5498 -3.08534,0 -5.60973,0.0791 -5.60973,0.17587 0,0.0967 0.21649,0.3402 0.48108,0.54105 0.38541,0.29257 3.33155,0.36693 14.81417,0.37394 13.855811,0.008 14.354701,-0.009 14.98206,-0.53192 l 0.648981,-0.54065 -4.575161,-0.009 c -3.91283,-0.008 -4.59933,-0.0721 -4.74204,-0.44398 -0.46625,-1.21505 -0.46847,-1.21456 5.551071,-1.21456 5.77369,0 6.377689,-0.0974 6.377689,-1.02898 0,-0.29534 -0.889021,-0.36166 -4.443611,-0.3315 -4.390649,0.0373 -4.447699,0.0301 -4.786639,-0.60323 -0.18866,-0.35252 -0.28473,-0.73528 -0.21347,-0.85057 0.0713,-0.11529 2.39638,-0.20962 5.166921,-0.20962 4.75611,0 5.045178,-0.0298 5.176999,-0.53389 0.0767,-0.29363 0.0705,-0.6029 -0.01381,-0.68725 -0.0844,-0.0844 -2.103441,-0.15337 -4.48685,-0.15337 -4.28467,0 -4.33445,-0.007 -4.42131,-0.61852 -0.087,-0.61213 -0.13912,-0.6193 -5.05043,-0.69324 l -4.96261,-0.0747 -0.74159,-1.51205 c -0.40786,-0.83163 -0.74158,-1.57117 -0.74158,-1.64341 0,-0.0723 4.74942,-0.13137 10.55426,-0.13137 9.37051,0 10.572962,-0.0488 10.72111,-0.43483 0.0918,-0.23916 0.16686,-0.48657 0.16686,-0.5498 0,-0.0632 -4.500809,-0.11496 -10.0018,-0.11496 h -10.0018 l -0.16576,-0.61853 c -0.0911,-0.34019 -0.16751,-0.74223 -0.16966,-0.89342 -0.002,-0.17979 3.52344,-0.24776 10.19075,-0.19644 10.044179,0.0773 10.19679,0.0702 10.34048,-0.47917 0.138399,-0.52929 0.200809,-0.51409 1.227051,0.29871 1.035827,0.82038 1.077809,0.91558 0.999328,2.26603 -0.0796,1.3698 -0.107209,1.4121 -0.97536,1.49581 -1.12005,0.10799 -1.1567,0.47973 -0.0687,0.69732 0.725919,0.14519 0.824709,0.27904 0.824709,1.11737 0,0.89943 -0.0574,0.95803 -1.03088,1.05305 l -1.03087,0.10063 0.893421,0.35522 c 0.919671,0.36565 0.97299,0.50353 0.648269,1.67593 -0.142578,0.51479 -0.428889,0.72701 -1.140928,0.84568 l -0.950561,0.15843 0.746998,0.31243 c 0.722673,0.30226 0.734661,0.34186 0.368031,1.21607 -0.26915,0.64177 -0.60511,0.94603 -1.159349,1.04991 -0.726062,0.13608 -0.743151,0.16764 -0.245549,0.45336 0.517789,0.29731 0.510759,0.33867 -0.220171,1.29697 -0.609631,0.79929 -0.93754,0.98986 -1.70316,0.98986 -1.022921,0 -1.23799,0.36028 -0.471209,0.78939 0.500668,0.28018 0.517348,0.26004 -1.560031,1.88214 -0.260289,0.20326 -1.374331,0.33832 -2.834241,0.34363 -2.597728,0.01 -2.850688,0.18656 -1.825278,1.27805 l 0.5801,0.61748 -1.06118,0.28435 c -4.25616,1.14044 -8.57398,1.51561 -12.88188,1.1193 z m 5.91757,-3.02682 c 2.58129,-0.31713 6.51245,-1.28959 6.74694,-1.66901 0.087,-0.14047 -4.3538,-0.24401 -10.4653,-0.24401 -6.42146,0 -10.55411,0.10031 -10.4592,0.25389 0.23457,0.37955 2.48116,1.06025 4.9612,1.50319 2.68472,0.47951 6.11082,0.53747 9.21636,0.15594 z m 16.162301,-12.94435 c -0.0855,-0.56959 -0.20895,-0.58527 -4.651981,-0.59102 -2.510269,-0.003 -4.70603,0.0818 -4.87947,0.18899 -0.17344,0.10719 -0.31535,0.37316 -0.31535,0.59102 0,0.33029 0.82561,0.39613 4.96732,0.39613 4.911519,0 4.966341,-0.007 4.879481,-0.58512 z m 115.786746,14.39886 c 0.002,-0.26459 0.49719,-3.32629 1.09985,-6.80378 0.60266,-3.47749 1.64838,-9.53904 2.32383,-13.47012 0.67545,-3.93107 1.30932,-7.54944 1.40861,-8.04083 l 0.18053,-0.89342 h -3.62991 -3.62991 l 0.14458,-0.75598 c 0.0795,-0.415786 0.22393,-1.281722 0.32091,-1.9243 l 0.17632,-1.168328 h 6.32039 6.32038 l -0.15462,0.755975 c -0.085,0.415788 -0.39981,2.178583 -0.69948,3.917333 -0.71231,4.13301 -4.00457,23.05516 -4.5797,26.3217 l -0.44771,2.54283 h -2.57909 c -2.27458,0 -2.57861,-0.0568 -2.57498,-0.48108 z m -78.351337,-0.41425 c 2.64e-4,-0.11445 0.607861,-3.57819 1.350041,-7.69721 0.742159,-4.11903 2.195219,-12.22085 3.22902,-18.00407 l 1.879619,-10.514929 h 2.5439 c 1.46304,0 2.543881,0.11348 2.543881,0.267084 0,0.146899 -0.20493,1.199652 -0.455379,2.339451 -0.250442,1.139801 -0.400312,2.127422 -0.333021,2.194711 0.0673,0.06728 0.756909,-0.181351 1.532509,-0.552532 4.585197,-2.194394 9.531767,-1.903064 11.713577,0.689874 l 0.70614,0.8392 1.58096,-1.107463 c 4.05369,-2.839628 10.15744,-2.94857 14.10931,-0.251836 1.87977,1.282745 3.26538,3.58538 3.29635,5.47792 0.0125,0.76326 -1.50626,9.86203 -3.31525,19.86154 l -1.18113,6.52889 h -4.61787 c -2.65107,0 -4.61788,-0.10848 -4.61788,-0.2547 0,-0.14008 0.25272,-1.53176 0.5616,-3.09263 0.72921,-3.68498 3.46182,-18.68611 3.70033,-20.31364 0.23253,-1.58673 -0.21345,-3.27443 -1.1637,-4.40374 -1.91989,-2.281672 -6.09215,-2.156834 -7.31577,0.2189 -0.21759,0.42247 -0.66048,2.99482 -0.98418,5.71633 -0.85733,7.20783 -0.51826,6.46016 -2.92968,6.46016 -1.44787,0 -2.04035,-0.0997 -2.04139,-0.34362 -8e-4,-0.189 0.25883,-2.60791 0.57701,-5.37536 0.65348,-5.68367 0.58652,-6.15656 -1.04799,-7.40327 -1.11392,-0.84962 -3.32872,-1.1374 -4.86121,-0.63164 -1.315194,0.43406 -3.572947,2.23971 -4.402337,3.52079 -0.547539,0.84577 -1.049948,3.15261 -2.88721,13.257 -1.22337,6.72819 -2.223669,12.31706 -2.22286,12.41973 7.94e-4,0.10266 -1.112178,0.22637 -2.47329,0.2749 -1.361088,0.0485 -2.474439,-0.005 -2.4741,-0.11984 z m -19.307419,-2.1376 c -11.06546,-1.86324 -15.82438,-12.15103 -9.86953,-21.33583 4.144878,-6.39307 13.648989,-10.218537 20.85807,-8.395513 4.574778,1.156864 7.906129,3.432933 9.399918,6.422273 1.002451,2.00607 1.039601,2.78839 0.372991,7.85495 l -0.479229,3.64243 h -11.87528 c -13.363832,0 -12.285419,-0.19546 -11.86356,2.15031 0.392729,2.18392 1.928231,3.67918 4.36639,4.25194 l 1.41673,0.33281 -0.168571,1.621 c -0.0927,0.89155 -0.168598,2.09767 -0.168598,2.68028 0,0.68139 -0.122571,1.04774 -0.343612,1.02694 -0.18901,-0.0178 -0.929579,-0.131 -1.645719,-0.25159 z m 12.26869,-17.46963 c 0.0918,-0.23915 0.166848,-1.20934 0.166848,-2.15596 0,-2.31131 -0.814707,-3.87323 -2.488588,-4.77091 -1.085422,-0.58211 -1.500071,-0.6441 -3.696661,-0.55266 -2.092939,0.0871 -2.69807,0.22529 -3.92789,0.89676 -2.263378,1.23582 -4.324239,3.80813 -5.126739,6.39908 l -0.191579,0.61853 h 7.548888 c 6.629982,0 7.56916,-0.0529 7.715721,-0.43484 z m 62.569236,17.33147 c -5.80527,-1.2293 -9.63335,-4.33838 -11.24984,-9.13686 -1.02094,-3.03063 -0.54222,-7.31404 1.20216,-10.75641 3.50659,-6.91993 13.43479,-11.493365 21.30892,-9.815975 5.48828,1.169148 9.97671,4.908485 10.60454,8.834715 0.10287,0.64333 -0.0632,2.7424 -0.39849,5.0366 -0.31618,2.16346 -0.57487,3.98419 -0.57487,4.04606 0,0.0619 -5.35025,0.14474 -11.88944,0.18415 l -11.88944,0.0716 -0.0953,0.67517 c -0.12676,0.89839 0.43759,2.72154 1.10839,3.58068 0.77072,0.98713 2.35987,1.88623 3.68517,2.08497 l 1.13873,0.17076 -0.11104,1.28006 c -0.30101,3.47019 -0.42324,4.16529 -0.72883,4.14466 -0.17812,-0.012 -1.12793,-0.19212 -2.1107,-0.40023 z m 13.0234,-17.7557 c 0.48076,-2.40384 -0.17,-4.82765 -1.59768,-5.95067 -1.18516,-0.93225 -2.52132,-1.23962 -4.79549,-1.10316 -2.47686,0.14862 -4.39195,1.00131 -6.11197,2.72133 -1.02524,1.02524 -2.71674,4.04311 -2.71725,4.84794 -1.7e-4,0.26654 1.68801,0.34363 7.52518,0.34363 h 7.5254 z m -143.716087,10.5493 -0.42587,-0.89342 h 5.08122 c 2.79466,0 5.08121,-0.07 5.08121,-0.15553 0,-0.0855 -0.12807,-0.3948 -0.28459,-0.68725 -0.26498,-0.49514 -0.62136,-0.53173 -5.17897,-0.53173 h -4.8944 l -0.3190301,-0.70018 c -0.17546,-0.3851 -0.31904,-0.75622 -0.31904,-0.8247 0,-0.0685 2.2353101,-0.12452 4.9673401,-0.12452 4.92617,0 4.96659,-0.005 4.87948,-0.59078 -0.0861,-0.57912 -0.17867,-0.59006 -4.68755,-0.55402 l -4.5997,0.0368 -0.4172401,-0.80683 c -0.22946,-0.44376 -0.41722,-0.87483 -0.41722,-0.95793 0,-0.0831 2.2267001,-0.1511 4.9482101,-0.1511 4.76493,0 4.9482,-0.0204 4.9482,-0.5498 0,-0.52812 -0.18327,-0.5498 -4.64641,-0.5498 H 9.8853629 l -0.30177,-0.86573 c -0.16599,-0.47615 -0.30189,-0.87819 -0.30197,-0.89342 -10e-5,-0.0152 2.2575101,-0.0277 5.0169201,-0.0277 4.99363,0 5.01752,-0.003 5.10496,-0.61852 l 0.0878,-0.61853 h -4.41045 -4.41047 l -0.41941,-0.81105 c -0.23067,-0.44608 -0.4194101,-0.87905 -0.4194101,-0.96215 0,-0.0831 2.3359601,-0.1511 5.1910401,-0.1511 4.93857,0 5.19795,-0.0264 5.33308,-0.54313 0.13648,-0.52193 -0.0294,-0.54606 -4.25264,-0.61852 l -4.39465,-0.0754 -0.37533,-0.89343 -0.37536,-0.89343 h 5.24824 c 4.67597,0 5.28809,-0.0525 5.61346,-0.48107 0.20085,-0.26459 0.36911,-0.57386 0.37392,-0.68725 0.005,-0.1134 -1.9736,-0.20618 -4.39646,-0.20618 h -4.40521 l -0.2681,-0.70515 c -0.14746,-0.38782 -0.2681,-0.75894 -0.2681,-0.8247 0,-0.0658 2.45493,-0.11955 5.45541,-0.11955 4.93598,0 5.49871,-0.0479 5.91036,-0.50272 0.25022,-0.2765 0.45495,-0.58262 0.45495,-0.68027 0,-0.0977 -1.93345,-0.21162 -4.29654,-0.25326 -4.10949,-0.07241 -4.31441,-0.102624 -4.70684,-0.694227 l -0.41029,-0.618527 h 5.77149 c 5.40473,0 5.85669,-0.0393 7.11221,-0.618524 l 1.34072,-0.618527 -4.6733,-0.07425 c -4.46471,-0.07094 -4.6945,-0.101613 -5.14828,-0.68725 -0.26122,-0.337151 -0.4777,-0.705781 -0.48108,-0.819176 -0.003,-0.113398 6.1576,-0.206177 13.691,-0.206177 h 13.697081 l 0.597728,0.636244 c 0.32875,0.349932 0.59772,0.718727 0.59772,0.819541 0,0.100814 -2.814288,0.216543 -6.253969,0.257183 l -6.25398,0.07389 1.34071,0.618525 c 1.25564,0.579273 1.7073,0.618524 7.117101,0.618524 5.17892,0 5.81416,0.04976 6.141569,0.481076 0.20085,0.264591 0.36911,0.573855 0.37393,0.687253 0.005,0.113395 -2.403509,0.206172 -5.351809,0.206172 -2.948302,0 -5.360551,0.07 -5.360551,0.15552 0,0.0855 0.12805,0.3948 0.28457,0.68725 0.24979,0.46675 0.19068,0.53173 -0.48368,0.53173 -0.47053,0 -0.9013,-0.21306 -1.1116,-0.5498 -0.18992,-0.3041 -0.64108,-0.5498 -1.00956,-0.5498 -0.42798,0 -0.87836,-0.29796 -1.25957,-0.833304 -0.56306,-0.790737 -0.68337,-0.830829 -2.35537,-0.784831 -0.9691,0.02666 -1.76201,0.11534 -1.76201,0.197064 0,0.08173 0.26897,0.434896 0.59773,0.784831 l 0.59772,0.63624 h -0.59478 c -0.32712,0 -1.24554,0.24735 -2.04094,0.54967 -0.88569,0.33662 -2.11208,0.54971 -3.16432,0.5498 -1.80834,1.4e-4 -2.20792,0.33855 -1.03224,0.87423 l 0.68588,0.3125 -1.14397,1.0561 c -0.87507,0.80785 -1.37553,1.05825 -2.12909,1.06525 l -0.98514,0.009 0.63249,0.52731 c 0.60426,0.50376 0.61314,0.5647 0.19912,1.36535 -0.35691,0.69016 -0.60191,0.83805 -1.38847,0.83805 -1.12839,0 -1.22552,0.31216 -0.25824,0.82984 0.41438,0.22177 0.63678,0.52954 0.54863,0.75924 -0.0815,0.21246 -0.22296,0.68407 -0.31431,1.04801 -0.12753,0.50816 -0.35052,0.66171 -0.96098,0.66171 -0.94715,0 -0.99115,0.1653 -0.21196,0.79625 0.49573,0.40142 0.5538,0.64448 0.38819,1.62474 -0.1578,0.93401 -0.30751,1.15437 -0.78911,1.16145 -0.55263,0.008 -0.56059,0.0344 -0.11329,0.37394 0.66599,0.50556 0.68281,2.64122 0.0208,2.64122 -0.39974,0 -0.38613,0.0814 0.10359,0.61853 0.59115,0.64845 1.29227,2.48507 1.13211,2.96557 -0.0582,0.17442 -2.03487,0.30346 -5.22725,0.34123 l -5.13376,0.0607 z m 31.838759,-13.19521 c -0.0812,-0.26459 -0.384868,-1.00682 -0.675049,-1.64941 l -0.52759,-1.16832 h 5.749581 5.74957 l 0.569558,1.52226 c 0.313262,0.83725 0.569561,1.57948 0.569561,1.64941 0,0.0699 -2.539839,0.12713 -5.644089,0.12713 -5.13587,0 -5.657361,-0.0433 -5.791542,-0.48107 z m -1.815539,-5.01867 -0.46827,-0.82296 h 5.478151 5.47816 l 0.426469,0.8247 0.426471,0.8247 -5.43633,-0.002 -5.436341,-0.002 -0.46831,-0.82296 z m -14.46374,-8.65762 -0.31313,-0.68725 h 7.78084 7.78084 l 0.64565,0.68725 0.645631,0.687247 h -8.113361 -8.11335 z M 172.87322,88.991226 c -1.57497,-0.55186 -2.08944,-1.546349 -2.07535,-4.011779 0.01,-1.75929 0.14602,-2.40092 0.78599,-3.70896 0.85383,-1.74515 2.38662,-3.06738 3.88089,-3.34768 3.20086,-0.6005 5.40718,4.22435 3.58031,7.82952 -0.88502,1.746501 -2.12887,2.96123 -3.39122,3.311829 -1.2593,0.349742 -1.59984,0.34081 -2.78062,-0.0729 z"
       id="path1683"
       inkscape:connector-curvature="0" />
    <text
       xml:space="preserve"
       style="font-style:normal;font-variant:normal;font-weight:normal;font-stretch:normal;font-size:10.21393299px;line-height:1.25;font-family:sans-serif;-inkscape-font-specification:'sans-serif, Normal';font-variant-ligatures:normal;font-variant-caps:normal;font-variant-numeric:normal;font-feature-settings:normal;text-align:start;letter-spacing:0px;word-spacing:0px;writing-mode:lr-tb;text-anchor:start;fill:#ff00cc;fill-opacity:1;stroke:none;stroke-width:0.15610631;stroke-opacity:1"
       x="5.273891"
       y="70.329674"
       id="text1687"><tspan
         sodipodi:role="line"
         id="tspan1685"
         x="5.273891"
         y="70.329674"
         style="font-style:normal;font-variant:normal;font-weight:normal;font-stretch:normal;font-family:'Titillium Web';-inkscape-font-specification:'Titillium Web';fill:#ff00cc;fill-opacity:1;stroke:none;stroke-width:0.15610631;stroke-opacity:1">Productos</tspan></text>
  </g>
</svg>
