<?xml version="1.0" encoding="UTF-8" standalone="no"?>
<!-- Created with Inkscape (http://www.inkscape.org/) -->

<svg
   xmlns:dc="http://purl.org/dc/elements/1.1/"
   xmlns:cc="http://creativecommons.org/ns#"
   xmlns:rdf="http://www.w3.org/1999/02/22-rdf-syntax-ns#"
   xmlns:svg="http://www.w3.org/2000/svg"
   xmlns="http://www.w3.org/2000/svg"
   xmlns:sodipodi="http://sodipodi.sourceforge.net/DTD/sodipodi-0.dtd"
   xmlns:inkscape="http://www.inkscape.org/namespaces/inkscape"
   width="200mm"
   height="100mm"
   viewBox="0 0 200 100"
   version="1.1"
   id="svg872"
   inkscape:version="0.92.3 (2405546, 2018-03-11)"
   sodipodi:docname="electronicacrown.svg">
  <defs
     id="defs866" />
  <sodipodi:namedview
     id="base"
     pagecolor="#ffffff"
     bordercolor="#666666"
     borderopacity="1.0"
     inkscape:pageopacity="0.0"
     inkscape:pageshadow="2"
     inkscape:zoom="0.7"
     inkscape:cx="417.66371"
     inkscape:cy="282.06175"
     inkscape:document-units="mm"
     inkscape:current-layer="layer1"
     showgrid="false"
     fit-margin-top="0"
     fit-margin-left="0"
     fit-margin-right="0"
     fit-margin-bottom="0"
     inkscape:window-width="1360"
     inkscape:window-height="705"
     inkscape:window-x="-8"
     inkscape:window-y="-8"
     inkscape:window-maximized="1" />
  <metadata
     id="metadata869">
    <rdf:RDF>
      <cc:Work
         rdf:about="">
        <dc:format>image/svg+xml</dc:format>
        <dc:type
           rdf:resource="http://purl.org/dc/dcmitype/StillImage" />
        <dc:title></dc:title>
      </cc:Work>
    </rdf:RDF>
  </metadata>
  <g
     inkscape:label="Capa 1"
     inkscape:groupmode="layer"
     id="layer1"
     transform="translate(36.946308,-79.12611)">
    <rect
       style="opacity:1;fill:#f2f2f2;fill-opacity:1;stroke:#e51837;stroke-width:0.50016004;stroke-linecap:round;stroke-linejoin:miter;stroke-miterlimit:4;stroke-dasharray:none;stroke-opacity:1"
       id="rect1443"
       width="199.49985"
       height="99.49984"
       x="-36.696228"
       y="79.37619" />
    <g
       id="g1456"
       transform="translate(0.12068593,3.4762936)">
      <path
         inkscape:connector-curvature="0"
         id="rect842"
         d="m 52.786829,116.87575 c -4.551018,0 -8.214799,3.66378 -8.214799,8.2148 v 5.44237 c 0,4.55102 3.663781,8.2148 8.214799,8.2148 h 16.635124 c 4.551018,0 8.214795,-3.66378 8.214795,-8.2148 v -5.44237 c 0,-4.55102 -3.663777,-8.2148 -8.214795,-8.2148 z m 0.570827,5.48196 h 15.493189 c 1.488348,0 2.686508,1.19816 2.686508,2.68651 v 5.53503 c 0,1.48835 -1.19816,2.68651 -2.686508,2.68651 H 53.357656 c -1.488355,0 -2.686508,-1.19816 -2.686508,-2.68651 v -5.53503 c 0,-1.48835 1.198153,-2.68651 2.686508,-2.68651 z"
         style="opacity:1;fill:#000000;fill-opacity:1;stroke:none;stroke-width:0.29048082;stroke-linecap:round;stroke-linejoin:miter;stroke-miterlimit:4;stroke-dasharray:none;stroke-opacity:1" />
      <path
         sodipodi:nodetypes="ssssccccscccs"
         inkscape:connector-curvature="0"
         id="path4554"
         d="m -24.419226,116.87276 c -4.551013,-0.007 -8.2148,3.66378 -8.2148,8.2148 v 5.44237 c 0,4.55102 3.663782,8.21479 8.2148,8.21479 l 24.4801071,-0.0135 v -5.48202 c 0,0 -15.6992851,0.0136 -23.9092821,0.0136 -1.488348,0 -2.686502,-1.19816 -2.686507,-2.68651 v -5.53503 c 0,-1.48834 1.198159,-2.6865 2.686507,-2.6865 7.851868,-0.17665 23.9092821,0.003 23.9092821,0.003 v -5.44571 z"
         style="opacity:1;fill:#000000;fill-opacity:1;stroke:none;stroke-width:0.29048082;stroke-linecap:round;stroke-linejoin:miter;stroke-miterlimit:4;stroke-dasharray:none;stroke-opacity:1" />
      <path
         inkscape:connector-curvature="0"
         id="rect4574"
         d="m 6.2111058,116.79144 v 4.55341 c -0.056247,0.32048 -0.087323,0.65009 -0.087323,0.98751 v 3.84164 c 0,0.33742 0.031076,0.66703 0.087323,0.9875 v 11.44911 h 5.9755732 v -6.89568 h 18.784213 c 1.034625,0.2326 1.846814,0.78303 2.090976,2.14488 v 4.7508 h 6.060068 v -4.7143 c -0.06369,-1.7067 -0.631397,-2.95025 -1.613925,-3.81244 0.977686,-1.00062 1.580515,-2.3809 1.580515,-3.90987 v -3.84164 c 0,-3.06966 -2.428805,-5.54092 -5.445725,-5.54092 H 12.186679 11.569521 Z m 5.9755732,5.54092 h 19.604657 c 0.703951,0 1.270532,0.8976 1.270532,2.01292 0,1.11531 -0.566581,2.01319 -1.270532,2.01319 H 12.186679 Z"
         style="opacity:1;fill:#000000;fill-opacity:1;stroke:none;stroke-width:0.70452231;stroke-linecap:round;stroke-linejoin:miter;stroke-miterlimit:4;stroke-dasharray:none;stroke-opacity:1" />
      <path
         sodipodi:nodetypes="ccccccssscccssc"
         inkscape:connector-curvature="0"
         id="path4596"
         d="m 125.57108,116.86757 v 21.81918 h 5.94204 l -3e-5,-12.3798 c 0.0486,-0.36506 3e-5,-3.54319 3e-5,-3.94924 l 2.7078,-0.008 h 15.49319 c 1.48836,0 2.68652,1.19816 2.68652,2.68651 v 5.53503 c 0,0.0988 -0.006,0.19605 -0.0166,0.29201 l -1.1e-4,7.82357 h 6.05845 l 0.0576,-13.60429 c 0.0193,-4.55097 -3.66377,-8.21478 -8.21481,-8.21479 z"
         style="opacity:1;fill:#000000;fill-opacity:1;stroke:none;stroke-width:0.29048082;stroke-linecap:round;stroke-linejoin:miter;stroke-miterlimit:4;stroke-dasharray:none;stroke-opacity:1" />
      <path
         sodipodi:nodetypes="cccc"
         inkscape:connector-curvature="0"
         id="rect4631"
         d="m 100.7845,111.3832 16.5837,27.30355 H 84.149458 Z"
         style="opacity:1;fill:#ee3a43;fill-opacity:1;stroke:none;stroke-width:0.54334354;stroke-linecap:round;stroke-linejoin:miter;stroke-miterlimit:4;stroke-dasharray:none;stroke-opacity:1" />
      <path
         sodipodi:nodetypes="cccccccc"
         inkscape:connector-curvature="0"
         id="rect4616"
         d="m 78.925335,114.15571 12.009311,13.50314 9.849854,11.0279 9.92499,-11.0279 12.06253,-13.50314 -5.40382,24.53104 H 84.149458 Z"
         style="opacity:1;fill:#e51837;fill-opacity:1;stroke:none;stroke-width:0.54334354;stroke-linecap:round;stroke-linejoin:miter;stroke-miterlimit:4;stroke-dasharray:none;stroke-opacity:1" />
      <path
         sodipodi:nodetypes="ccccccccccccscccccc"
         inkscape:connector-curvature="0"
         id="path4634"
         d="m 91.390101,143.60076 -7.240768,2.9e-4 v 4.77907 h 1.623761 v -2.72011 c 0.01325,-0.0797 0,-0.77286 0,-0.86143 l 0.73985,-0.002 h 1.278398 c 0.287196,-0.003 0.335304,0.28143 0.326829,0.47227 l -0.0091,3.11145 h 1.379473 l 0.0091,-3.58372 h 1.774812 c 0.496523,0 0.51579,0.26192 0.51579,0.58655 l -0.0045,2.99771 1.34718,-5.4e-4 0.01572,-2.9876 c 0.0055,-0.99264 -0.577242,-1.79166 -1.756843,-1.79166 z"
         style="opacity:1;fill:#808080;fill-opacity:1;stroke:none;stroke-width:0.07091371;stroke-linecap:round;stroke-linejoin:miter;stroke-miterlimit:4;stroke-dasharray:none;stroke-opacity:1" />
      <path
         inkscape:connector-curvature="0"
         id="rect4644"
         d="m 93.890612,143.60077 h 1.415882 v 4.77935 h -1.415882 z"
         style="opacity:1;fill:#808080;fill-opacity:1;stroke:none;stroke-width:0.54334354;stroke-linecap:round;stroke-linejoin:miter;stroke-miterlimit:4;stroke-dasharray:none;stroke-opacity:1" />
      <path
         style="opacity:1;fill:#808080;fill-opacity:1;stroke:none;stroke-width:0.06351399;stroke-linecap:round;stroke-linejoin:miter;stroke-miterlimit:4;stroke-dasharray:none;stroke-opacity:1"
         d="m 97.919772,143.60076 c -0.995081,-0.002 -1.796177,0.8011 -1.796177,1.79618 v 1.18998 c 0,0.99509 0.801096,1.79618 1.796177,1.79618 l 4.683988,-0.003 v -1.19865 c 0,0 -2.764053,0.003 -4.559176,0.003 -0.325429,0 -0.587407,-0.26199 -0.587407,-0.58741 v -1.21024 c 0,-0.32543 0.261978,-0.58741 0.587407,-0.58741 1.716821,-0.0386 4.559176,4.3e-4 4.559176,4.3e-4 v -1.19072 z"
         id="path4647"
         inkscape:connector-curvature="0"
         sodipodi:nodetypes="ssssccccscccs" />
      <path
         sodipodi:nodetypes="ccssccccccccccsssccccssscc"
         style="opacity:1;fill:#808080;fill-opacity:1;stroke:none;stroke-width:0.14696871;stroke-linecap:round;stroke-linejoin:miter;stroke-miterlimit:4;stroke-dasharray:none;stroke-opacity:1"
         d="m 103.45344,143.60076 v 0.9974 c -0.0112,0.0702 -0.0173,0.1424 -0.0173,0.21631 v 0.84149 c 0,0.0739 0.006,0.1461 0.0173,0.2163 v 2.50786 h 1.27792 v -1.51045 h 3.53216 c 0.20555,0.051 0.3669,0.17152 0.41541,0.46982 v 1.04063 h 1.31285 v -1.03263 c -0.0127,-0.37385 -0.12544,-0.64624 -0.32063,-0.8351 0.19423,-0.21917 0.31399,-0.52152 0.31399,-0.85643 v -0.84149 c 0,-0.67239 -0.48251,-1.21371 -1.08188,-1.21371 h -4.26266 -0.12261 z m 1.27792,1.21371 h 3.69516 c 0.13984,0 0.25241,0.19662 0.25241,0.44092 0,0.2443 -0.11257,0.44098 -0.25241,0.44098 h -3.69516 z"
         id="path4651"
         inkscape:connector-curvature="0" />
      <path
         sodipodi:nodetypes="ssssssssssssssssss"
         style="opacity:1;fill:#808080;fill-opacity:1;stroke:none;stroke-width:0.06070495;stroke-linecap:round;stroke-linejoin:miter;stroke-miterlimit:4;stroke-dasharray:none;stroke-opacity:1"
         d="m 112.41465,143.60076 c -0.91055,0 -1.64359,0.79974 -1.64359,1.79313 v 1.18796 c 0,0.9934 0.73304,1.79312 1.64359,1.79312 h 3.32834 c 0.91055,0 1.6436,-0.79972 1.6436,-1.79312 v -1.18796 c 0,-0.99339 -0.73305,-1.79313 -1.6436,-1.79313 z m 0.11422,1.1966 h 2.95865 c 0.2978,0 0.5375,0.26154 0.5375,0.58641 v 1.2082 c 0,0.32487 -0.2397,0.5864 -0.5375,0.5864 h -2.95865 c -0.29777,0 -0.53751,-0.26153 -0.53751,-0.5864 v -1.2082 c 0,-0.32487 0.23974,-0.58641 0.53751,-0.58641 z"
         id="path4655"
         inkscape:connector-curvature="0" />
    </g>
    <g
       aria-label="Electrónica"
       style="font-style:normal;font-variant:normal;font-weight:normal;font-stretch:normal;font-size:17.31151009px;line-height:1.25;font-family:sans-serif;-inkscape-font-specification:'sans-serif, Normal';font-variant-ligatures:normal;font-variant-caps:normal;font-variant-numeric:normal;font-feature-settings:normal;text-align:start;letter-spacing:0px;word-spacing:0px;writing-mode:lr-tb;text-anchor:start;fill:#e51837;fill-opacity:1;stroke:none;stroke-width:0.26458332"
       id="text1460">
      <path
         d="M -33.302333,95.160706 V 83.181141 h 7.288146 v 1.177182 h -5.95516 v 4.137451 h 4.916469 v 1.159871 h -4.916469 v 4.327878 h 5.95516 v 1.177183 z"
         style="font-style:normal;font-variant:normal;font-weight:normal;font-stretch:normal;font-family:'Titillium Web';-inkscape-font-specification:'Titillium Web';fill:#e51837;fill-opacity:1;stroke-width:0.26458332"
         id="path1462"
         inkscape:connector-curvature="0" />
      <path
         d="M -23.854847,95.160706 V 82.731041 h 1.298363 v 12.429665 z"
         style="font-style:normal;font-variant:normal;font-weight:normal;font-stretch:normal;font-family:'Titillium Web';-inkscape-font-specification:'Titillium Web';fill:#e51837;fill-opacity:1;stroke-width:0.26458332"
         id="path1464"
         inkscape:connector-curvature="0" />
      <path
         d="m -14.08304,94.087392 0.502033,-0.05194 0.03462,1.02138 q -1.973512,0.276984 -3.375744,0.276984 -1.869643,0 -2.648661,-1.073314 -0.779018,-1.090625 -0.779018,-3.375744 0,-4.552928 3.618106,-4.552928 1.748462,0 2.614038,0.986756 0.865575,0.969445 0.865575,3.064138 l -0.06925,0.986756 h -5.712798 q 0,1.436855 0.519345,2.129316 0.519345,0.69246 1.800397,0.69246 1.298363,0 2.63135,-0.103869 z m -0.467411,-3.756598 q 0,-1.592659 -0.519345,-2.250496 -0.502034,-0.657837 -1.661905,-0.657837 -1.14256,0 -1.731151,0.69246 -0.57128,0.69246 -0.588592,2.215873 z"
         style="font-style:normal;font-variant:normal;font-weight:normal;font-stretch:normal;font-family:'Titillium Web';-inkscape-font-specification:'Titillium Web';fill:#e51837;fill-opacity:1;stroke-width:0.26458332"
         id="path1466"
         inkscape:connector-curvature="0" />
      <path
         d="m -7.9745117,86.331835 q 0.5712798,0 1.9388891,0.207739 l 0.4154763,0.05193 -0.051935,1.056002 q -1.3849208,-0.155803 -2.0427582,-0.155803 -1.4714783,0 -2.0081351,0.709772 -0.5193454,0.69246 -0.5193454,2.596726 0,1.886955 0.4847223,2.63135 0.5020338,0.744394 2.0600697,0.744394 l 2.0427582,-0.155803 0.051935,1.073314 q -1.6099705,0.242361 -2.4062999,0.242361 -2.0254463,0 -2.8044643,-1.038691 -0.761707,-1.038691 -0.761707,-3.496925 0,-2.475546 0.830953,-3.462302 0.8309522,-1.004068 2.7698413,-1.004068 z"
         style="font-style:normal;font-variant:normal;font-weight:normal;font-stretch:normal;font-family:'Titillium Web';-inkscape-font-specification:'Titillium Web';fill:#e51837;fill-opacity:1;stroke-width:0.26458332"
         id="path1468"
         inkscape:connector-curvature="0" />
      <path
         d="M 0.81189123,87.630199 H -1.9406389 v 4.137451 q 0,1.488789 0.2077381,1.9562 0.2250497,0.467411 1.03869065,0.467411 l 1.5407244,-0.103869 0.0865575,1.073314 q -1.15987118,0.190426 -1.76577403,0.190426 -1.35029782,0 -1.86964312,-0.657837 -0.5193452,-0.657838 -0.5193452,-2.510169 v -4.552927 h -1.2291172 v -1.125248 h 1.2291172 v -2.648662 h 1.2810517 v 2.648662 h 2.75253008 z"
         style="font-style:normal;font-variant:normal;font-weight:normal;font-stretch:normal;font-family:'Titillium Web';-inkscape-font-specification:'Titillium Web';fill:#e51837;fill-opacity:1;stroke-width:0.26458332"
         id="path1470"
         inkscape:connector-curvature="0" />
      <path
         d="m 2.4142868,95.160706 v -8.655755 h 1.2810518 v 1.177182 Q 5.20144,86.643443 6.8633449,86.314524 v 1.315675 q -0.7270834,0.138492 -1.5234128,0.432787 -0.779018,0.294296 -1.1944942,0.519346 l -0.4327878,0.225049 v 6.353325 z"
         style="font-style:normal;font-variant:normal;font-weight:normal;font-stretch:normal;font-family:'Titillium Web';-inkscape-font-specification:'Titillium Web';fill:#e51837;fill-opacity:1;stroke-width:0.26458332"
         id="path1472"
         inkscape:connector-curvature="0" />
      <path
         d="m 11.553683,86.331835 q 2.025447,0 2.856399,1.056003 0.848264,1.056002 0.848264,3.427679 0,2.371676 -0.796329,3.44499 -0.79633,1.073314 -2.908334,1.073314 -2.1120044,0 -2.9083338,-1.073314 -0.7963295,-1.073314 -0.7963295,-3.44499 0,-2.371677 0.848264,-3.427679 0.848264,-1.056003 2.8563993,-1.056003 z m 0,7.876738 q 1.471478,0 1.921577,-0.744395 0.4501,-0.761707 0.4501,-2.665973 0,-1.904266 -0.502034,-2.614038 -0.502034,-0.727083 -1.869643,-0.727083 -1.350298,0 -1.8696432,0.727083 -0.5020338,0.709772 -0.5020338,2.614038 0,1.886955 0.4500993,2.648661 0.4674107,0.761707 1.9215777,0.761707 z m -1.9042662,-10.161857 3.7392862,-1.696528 0.450099,1.107937 -3.825844,1.471478 z"
         style="font-style:normal;font-variant:normal;font-weight:normal;font-stretch:normal;font-family:'Titillium Web';-inkscape-font-specification:'Titillium Web';fill:#e51837;fill-opacity:1;stroke-width:0.26458332"
         id="path1474"
         inkscape:connector-curvature="0" />
      <path
         d="m 18.657352,95.160706 h -1.298363 v -8.655755 h 1.281052 v 0.605902 q 1.402232,-0.779018 2.683284,-0.779018 1.731151,0 2.319742,0.934822 0.605903,0.934822 0.605903,3.32381 v 4.570239 H 22.967918 V 90.62509 q 0,-1.800397 -0.363541,-2.458235 -0.346231,-0.675148 -1.506102,-0.675148 -0.553968,0 -1.177183,0.173115 -0.605902,0.155803 -0.934821,0.311607 l -0.328919,0.155803 z"
         style="font-style:normal;font-variant:normal;font-weight:normal;font-stretch:normal;font-family:'Titillium Web';-inkscape-font-specification:'Titillium Web';fill:#e51837;fill-opacity:1;stroke-width:0.26458332"
         id="path1476"
         inkscape:connector-curvature="0" />
      <path
         d="m 26.657165,95.160706 v -8.655755 h 1.298363 v 8.655755 z m 0,-10.611956 v -1.506101 h 1.298363 v 1.506101 z"
         style="font-style:normal;font-variant:normal;font-weight:normal;font-stretch:normal;font-family:'Titillium Web';-inkscape-font-specification:'Titillium Web';fill:#e51837;fill-opacity:1;stroke-width:0.26458332"
         id="path1478"
         inkscape:connector-curvature="0" />
      <path
         d="m 33.681309,86.331835 q 0.57128,0 1.938889,0.207739 l 0.415477,0.05193 -0.05194,1.056002 q -1.384921,-0.155803 -2.042758,-0.155803 -1.471479,0 -2.008135,0.709772 -0.519346,0.69246 -0.519346,2.596726 0,1.886955 0.484723,2.63135 0.502033,0.744394 2.060069,0.744394 l 2.042758,-0.155803 0.05194,1.073314 q -1.60997,0.242361 -2.4063,0.242361 -2.025447,0 -2.804465,-1.038691 -0.761706,-1.038691 -0.761706,-3.496925 0,-2.475546 0.830953,-3.462302 0.830952,-1.004068 2.769841,-1.004068 z"
         style="font-style:normal;font-variant:normal;font-weight:normal;font-stretch:normal;font-family:'Titillium Web';-inkscape-font-specification:'Titillium Web';fill:#e51837;fill-opacity:1;stroke-width:0.26458332"
         id="path1480"
         inkscape:connector-curvature="0" />
      <path
         d="m 44.094994,89.118989 v 4.431746 q 0.05194,0.640526 1.004068,0.761707 l -0.05194,1.021379 q -1.367609,0 -2.06007,-0.692461 -1.558036,0.692461 -3.116071,0.692461 -1.194495,0 -1.817709,-0.675149 -0.623214,-0.675149 -0.623214,-1.938889 0,-1.263741 0.640526,-1.852332 0.640525,-0.605903 2.008135,-0.744395 l 2.717907,-0.259673 v -0.744394 q 0,-0.882887 -0.380853,-1.263741 -0.380854,-0.380853 -1.038691,-0.380853 -1.384921,0 -2.873711,0.173115 l -0.536657,0.05194 -0.05193,-0.986756 q 1.904266,-0.380854 3.375744,-0.380854 1.471479,0 2.129316,0.675149 0.675149,0.675149 0.675149,2.112005 z m -5.331945,3.531548 q 0,1.592659 1.315675,1.592659 1.177182,0 2.319742,-0.398165 l 0.398165,-0.138492 V 90.85014 l -2.562104,0.242361 q -0.779018,0.06925 -1.125248,0.450099 -0.34623,0.380853 -0.34623,1.107937 z"
         style="font-style:normal;font-variant:normal;font-weight:normal;font-stretch:normal;font-family:'Titillium Web';-inkscape-font-specification:'Titillium Web';fill:#e51837;fill-opacity:1;stroke-width:0.26458332"
         id="path1482"
         inkscape:connector-curvature="0" />
    </g>
  </g>
</svg>
