<?xml version="1.0" encoding="UTF-8" standalone="no"?>
<!-- Created with Inkscape (http://www.inkscape.org/) -->

<svg
   xmlns:dc="http://purl.org/dc/elements/1.1/"
   xmlns:cc="http://creativecommons.org/ns#"
   xmlns:rdf="http://www.w3.org/1999/02/22-rdf-syntax-ns#"
   xmlns:svg="http://www.w3.org/2000/svg"
   xmlns="http://www.w3.org/2000/svg"
   xmlns:sodipodi="http://sodipodi.sourceforge.net/DTD/sodipodi-0.dtd"
   xmlns:inkscape="http://www.inkscape.org/namespaces/inkscape"
   width="132.64946mm"
   height="66.503632mm"
   viewBox="0 0 132.64946 66.503632"
   version="1.1"
   id="svg1394"
   inkscape:version="0.92.3 (2405546, 2018-03-11)"
   sodipodi:docname="herramientastotal.svg">
  <defs
     id="defs1388" />
  <sodipodi:namedview
     id="base"
     pagecolor="#ffffff"
     bordercolor="#666666"
     borderopacity="1.0"
     inkscape:pageopacity="0.0"
     inkscape:pageshadow="2"
     inkscape:zoom="1.7273283"
     inkscape:cx="250.67614"
     inkscape:cy="164.90429"
     inkscape:document-units="mm"
     inkscape:current-layer="layer1"
     showgrid="false"
     fit-margin-top="0"
     fit-margin-left="0"
     fit-margin-right="0"
     fit-margin-bottom="0"
     inkscape:window-width="1360"
     inkscape:window-height="705"
     inkscape:window-x="-8"
     inkscape:window-y="-8"
     inkscape:window-maximized="1" />
  <metadata
     id="metadata1391">
    <rdf:RDF>
      <cc:Work
         rdf:about="">
        <dc:format>image/svg+xml</dc:format>
        <dc:type
           rdf:resource="http://purl.org/dc/dcmitype/StillImage" />
        <dc:title></dc:title>
      </cc:Work>
    </rdf:RDF>
  </metadata>
  <g
     inkscape:label="Capa 1"
     inkscape:groupmode="layer"
     id="layer1"
     transform="translate(-37.240742,-69.468426)">
    <rect
       style="opacity:1;fill:#ffffff;fill-opacity:1;stroke:#007279;stroke-width:0.52916676;stroke-linecap:round;stroke-linejoin:miter;stroke-miterlimit:4;stroke-dasharray:none;stroke-opacity:1"
       id="rect1282"
       width="132.1203"
       height="65.974464"
       x="37.505325"
       y="69.733009" />
    <g
       id="g1325"
       transform="translate(1370.1065,-345.93353)">
      <path
         sodipodi:nodetypes="ccccccccc"
         inkscape:connector-curvature="0"
         id="rect1064"
         d="m -1264.4796,436.74027 h -8.92 l 1.3078,-4.66199 h 24.9802 l 1.231,4.66199 h -9.024 l -6.5666,21.23279 h -9.4169 z"
         style="opacity:1;fill:#007279;fill-opacity:1;stroke:none;stroke-width:0.31542459;stroke-linecap:round;stroke-linejoin:miter;stroke-miterlimit:4;stroke-dasharray:none;stroke-opacity:1" />
      <path
         style="opacity:1;fill:#007279;fill-opacity:1;stroke:none;stroke-width:0.31542459;stroke-linecap:round;stroke-linejoin:miter;stroke-miterlimit:4;stroke-dasharray:none;stroke-opacity:1"
         d="m -1318.5653,436.74027 h -8.92 l 1.3079,-4.66199 h 24.9801 l 1.231,4.66199 h -9.0239 l -6.5666,21.23279 h -9.4169 z"
         id="path1073"
         inkscape:connector-curvature="0"
         sodipodi:nodetypes="ccccccccc" />
      <path
         sodipodi:nodetypes="ccccccc"
         inkscape:connector-curvature="0"
         id="rect1075"
         d="m -1219.8606,432.07828 h 9.3885 l -6.8072,21.43898 h 11.6824 l -1.3065,4.4558 h -20.9314 z"
         style="opacity:1;fill:#007279;fill-opacity:1;stroke:none;stroke-width:0.31542459;stroke-linecap:round;stroke-linejoin:miter;stroke-miterlimit:4;stroke-dasharray:none;stroke-opacity:1" />
      <path
         sodipodi:nodetypes="ccccccccccccc"
         inkscape:connector-curvature="0"
         id="rect1080"
         d="m -1244.1225,432.0783 9.2865,-2e-5 8.1557,25.89478 h -9.6038 l -0.977,-3.26556 h -10.3144 l -2.0774,3.26556 h -8.4587 l 12.8126,-19.65097 2.7429,8.48471 -2.2822,3.71586 h 6.272 z"
         style="opacity:1;fill:#007279;fill-opacity:1;stroke:none;stroke-width:0.31542459;stroke-linecap:round;stroke-linejoin:miter;stroke-miterlimit:4;stroke-dasharray:none;stroke-opacity:1" />
      <path
         style="opacity:1;fill:#007279;fill-opacity:1;stroke:none;stroke-width:0.31542459;stroke-linecap:round;stroke-linejoin:miter;stroke-miterlimit:4;stroke-dasharray:none;stroke-opacity:1"
         d="m -1283.8806,457.97306 -1.893,-6.68244 3.4277,-11.76194 c 1.2478,-2.9946 0.5822,-2.9946 -1.0456,-2.9946 h -6.8731 l -1.3152,-4.4558 h 15.3313 c 3.2115,0.84233 4.6482,3.05262 3.2471,7.4504 l -4.1393,13.78239 c -1.8623,3.35956 -4.1996,4.48786 -6.7399,4.66199 z"
         id="path1092"
         inkscape:connector-curvature="0"
         sodipodi:nodetypes="cccccccccc" />
      <g
         style="fill:#007279;fill-opacity:1;stroke:#007279;stroke-opacity:1"
         transform="matrix(1.1902815,0,0,1.1902815,-1349.5544,186.66821)"
         id="g1198">
        <g
           id="text1111"
           style="font-style:normal;font-variant:normal;font-weight:normal;font-stretch:normal;font-size:7.17838287px;line-height:1.25;font-family:sans-serif;-inkscape-font-specification:'sans-serif, Normal';font-variant-ligatures:normal;font-variant-caps:normal;font-variant-numeric:normal;font-feature-settings:normal;text-align:start;letter-spacing:0px;word-spacing:0px;writing-mode:lr-tb;text-anchor:start;fill:#007279;fill-opacity:1;stroke:#007279;stroke-width:0.30000001;stroke-miterlimit:4;stroke-dasharray:none;stroke-opacity:1"
           transform="scale(0.98535787,1.0148597)"
           aria-label="One-">
          <path
             inkscape:connector-curvature="0"
             id="path1228"
             style="font-style:normal;font-variant:normal;font-weight:normal;font-stretch:normal;font-family:'Square721 BT';-inkscape-font-specification:'Square721 BT';fill:#007279;fill-opacity:1;stroke:#007279;stroke-width:0.30000001;stroke-miterlimit:4;stroke-dasharray:none;stroke-opacity:1"
             d="m 40.74573,229.9166 h -0.322466 q -0.550296,0 -0.778126,0.0596 -0.227829,0.0596 -0.392568,0.19979 -0.154223,0.13319 -0.217314,0.36102 -0.06309,0.22432 -0.06309,0.77462 v 1.47914 q 0,0.54679 0.06309,0.77111 0.06309,0.22082 0.217314,0.35402 0.164739,0.1402 0.392568,0.19979 0.22783,0.0596 0.778126,0.0596 h 0.322466 q 0.550296,0 0.781631,-0.0596 0.231334,-0.0596 0.396073,-0.19979 0.150718,-0.12969 0.210304,-0.34701 0.06309,-0.21731 0.06309,-0.77812 v -1.48615 q 0,-0.5503 -0.06309,-0.77462 -0.06309,-0.22783 -0.217315,-0.36102 -0.161233,-0.1367 -0.389062,-0.19278 -0.22783,-0.0596 -0.781631,-0.0596 z m -2.369427,1.2443 q 0,-0.99894 0.413598,-1.39151 0.413598,-0.39607 1.468624,-0.39607 h 0.658954 q 1.065541,0 1.472129,0.38906 0.410093,0.38906 0.410093,1.39852 v 1.77006 q 0,1.00245 -0.417103,1.39502 -0.413599,0.39257 -1.465119,0.39257 h -0.658954 q -1.055026,0 -1.468624,-0.39257 -0.413598,-0.39257 -0.413598,-1.39502 z" />
          <path
             inkscape:connector-curvature="0"
             id="path1230"
             style="font-style:normal;font-variant:normal;font-weight:normal;font-stretch:normal;font-family:'Square721 BT';-inkscape-font-specification:'Square721 BT';fill:#007279;fill-opacity:1;stroke:#007279;stroke-width:0.30000001;stroke-miterlimit:4;stroke-dasharray:none;stroke-opacity:1"
             d="m 43.833697,234.65546 v -3.69084 h 0.522255 v 0.50473 q 0.133193,-0.28391 0.427619,-0.41711 0.294425,-0.13669 0.778125,-0.13669 0.725549,0 1.01647,0.29442 0.290921,0.29092 0.290921,1.02699 v 2.4185 h -0.546791 v -2.30283 q 0,-0.57834 -0.171748,-0.7606 -0.168244,-0.18227 -0.658953,-0.18227 -0.578337,0 -0.848227,0.26639 -0.266386,0.26288 -0.266386,0.8342 v 2.14511 z" />
          <path
             inkscape:connector-curvature="0"
             id="path1232"
             style="font-style:normal;font-variant:normal;font-weight:normal;font-stretch:normal;font-family:'Square721 BT';-inkscape-font-specification:'Square721 BT';fill:#007279;fill-opacity:1;stroke:#007279;stroke-width:0.30000001;stroke-miterlimit:4;stroke-dasharray:none;stroke-opacity:1"
             d="m 48.386783,232.45077 h 2.089022 v -0.14371 q 0,-0.51875 -0.185769,-0.70452 -0.185769,-0.18577 -0.736065,-0.18577 h -0.25587 q -0.546791,0 -0.729054,0.18577 -0.182264,0.18577 -0.182264,0.70452 z m 0.918328,2.25376 q -0.827196,0 -1.156673,-0.32247 -0.329476,-0.32247 -0.329476,-1.13214 v -0.87626 q 0,-0.81318 0.325971,-1.13565 0.329477,-0.32246 1.153168,-0.32246 h 0.25587 q 0.827197,0 1.156673,0.32246 0.329477,0.32247 0.329477,1.13565 v 0.5573 l -2.653338,0.004 q -0.0035,0.0561 -0.007,0.12618 0,0.0666 0,0.18927 0,0.57133 0.182263,0.76761 0.182264,0.19278 0.736065,0.19278 h 0.25587 q 0.494215,0 0.686994,-0.1402 0.192779,-0.14371 0.224324,-0.49772 h 0.567822 q -0.04206,0.59937 -0.385558,0.86575 -0.343497,0.26639 -1.086572,0.26639 z" />
          <path
             inkscape:connector-curvature="0"
             id="path1234"
             style="font-style:normal;font-variant:normal;font-weight:normal;font-stretch:normal;font-family:'Square721 BT';-inkscape-font-specification:'Square721 BT';fill:#007279;fill-opacity:1;stroke:#007279;stroke-width:0.30000001;stroke-miterlimit:4;stroke-dasharray:none;stroke-opacity:1"
             d="m 51.919893,232.9555 v -0.49071 h 1.959334 v 0.49071 z" />
        </g>
        <g
           id="text1116"
           style="font-style:normal;font-variant:normal;font-weight:normal;font-stretch:normal;font-size:7.27065754px;line-height:1.25;font-family:sans-serif;-inkscape-font-specification:'sans-serif, Normal';font-variant-ligatures:normal;font-variant-caps:normal;font-variant-numeric:normal;font-feature-settings:normal;text-align:start;letter-spacing:0px;word-spacing:0px;writing-mode:lr-tb;text-anchor:start;fill:#007279;fill-opacity:1;stroke:#007279;stroke-width:0.50400001;stroke-miterlimit:4;stroke-dasharray:none;stroke-opacity:1"
           transform="scale(1.015196,0.98503142)"
           aria-label="T">
          <path
             inkscape:connector-curvature="0"
             id="path1237"
             style="font-style:normal;font-variant:normal;font-weight:normal;font-stretch:normal;font-family:'Square721 BT';-inkscape-font-specification:'Square721 BT';letter-spacing:0px;fill:#007279;fill-opacity:1;stroke:#007279;stroke-width:0.50400001;stroke-miterlimit:4;stroke-dasharray:none;stroke-opacity:1"
             d="m 71.329602,236.78784 v -0.56092 h 3.95839 v 0.56092 h -1.68986 v 4.72522 h -0.58577 v -4.72522 z" />
        </g>
        <g
           id="text1120"
           style="font-style:normal;font-variant:normal;font-weight:normal;font-stretch:normal;font-size:7.17838287px;line-height:1.25;font-family:sans-serif;-inkscape-font-specification:'sans-serif, Normal';font-variant-ligatures:normal;font-variant-caps:normal;font-variant-numeric:normal;font-feature-settings:normal;text-align:start;letter-spacing:0px;word-spacing:0px;writing-mode:lr-tb;text-anchor:start;fill:#007279;fill-opacity:1;stroke:#007279;stroke-width:0.30000001;stroke-miterlimit:4;stroke-dasharray:none;stroke-opacity:1"
           transform="scale(0.98535787,1.0148597)"
           aria-label="Stop">
          <path
             inkscape:connector-curvature="0"
             id="path1240"
             style="font-style:normal;font-variant:normal;font-weight:normal;font-stretch:normal;font-family:'Square721 BT';-inkscape-font-specification:'Square721 BT';fill:#007279;fill-opacity:1;stroke:#007279;stroke-width:0.30000001;stroke-miterlimit:4;stroke-dasharray:none;stroke-opacity:1"
             d="m 54.207214,232.59708 h 0.581841 v 0.0982 q 0,0.46617 0.0701,0.68699 0.0701,0.22082 0.231334,0.31195 0.126183,0.0701 0.389063,0.10165 0.26288,0.028 1.083066,0.028 0.445144,0 0.690499,-0.0561 0.245355,-0.0596 0.364527,-0.18928 0.0666,-0.0701 0.09814,-0.23834 0.03155,-0.16824 0.03155,-0.45566 0,-0.58184 -0.119172,-0.72905 -0.115668,-0.15072 -0.46267,-0.17876 l -1.608827,-0.12619 q -0.722044,-0.0561 -0.998944,-0.36102 -0.276901,-0.30494 -0.276901,-1.02698 0,-0.45566 0.09113,-0.73256 0.09113,-0.2769 0.294426,-0.45917 0.157728,-0.1402 0.441638,-0.19628 0.283911,-0.0596 1.00245,-0.0596 h 0.185769 q 0.802661,0 1.128633,0.0771 0.329476,0.0771 0.550296,0.26639 0.150718,0.12618 0.220819,0.36102 0.07361,0.23134 0.07361,0.57834 0,0.10165 -0.0035,0.15773 0,0.0526 -0.0035,0.0946 H 57.68075 v -0.12968 q 0,-0.28742 -0.03505,-0.43814 -0.03155,-0.15422 -0.105152,-0.22783 -0.108657,-0.10865 -0.389063,-0.15072 -0.2769,-0.0456 -1.055026,-0.0456 -0.806166,0 -1.012965,0.18226 -0.206799,0.18227 -0.206799,0.72906 0,0.44865 0.133193,0.62039 0.136697,0.16825 0.522255,0.19979 l 1.640373,0.1367 q 0.644932,0.0561 0.904308,0.35752 0.259375,0.29793 0.259375,0.99894 0,0.51174 -0.0666,0.77112 -0.0666,0.25587 -0.220819,0.42762 -0.189274,0.21381 -0.51174,0.30143 -0.318962,0.0841 -1.167188,0.0841 h -0.259376 q -0.722044,0 -1.02348,-0.0736 -0.297931,-0.0736 -0.49772,-0.25587 -0.196284,-0.16825 -0.290921,-0.45566 -0.09113,-0.28742 -0.09113,-0.72906 z" />
          <path
             inkscape:connector-curvature="0"
             id="path1242"
             style="font-style:normal;font-variant:normal;font-weight:normal;font-stretch:normal;font-family:'Square721 BT';-inkscape-font-specification:'Square721 BT';fill:#007279;fill-opacity:1;stroke:#007279;stroke-width:0.30000001;stroke-miterlimit:4;stroke-dasharray:none;stroke-opacity:1"
             d="m 59.0372,231.07238 v -0.46618 h 0.452154 v -0.8307 h 0.546791 v 0.8307 h 1.808616 v 0.46618 h -1.808616 v 2.03294 q 0,0.43463 0.140203,0.59236 0.143707,0.15422 0.543285,0.15422 0.396073,0 0.532771,-0.15072 0.140203,-0.15072 0.140203,-0.59586 v -0.10866 h 0.553801 v 0.0316 q 0,0.77812 -0.259375,1.04801 -0.25587,0.26989 -1.069047,0.26989 -0.634417,0 -0.883277,-0.28391 -0.245355,-0.28741 -0.245355,-1.03399 v -1.95583 z" />
          <path
             inkscape:connector-curvature="0"
             id="path1244"
             style="font-style:normal;font-variant:normal;font-weight:normal;font-stretch:normal;font-family:'Square721 BT';-inkscape-font-specification:'Square721 BT';fill:#007279;fill-opacity:1;stroke:#007279;stroke-width:0.30000001;stroke-miterlimit:4;stroke-dasharray:none;stroke-opacity:1"
             d="m 65.458488,232.76883 v -0.63091 q 0,-0.69751 -0.178759,-0.88678 -0.175253,-0.19278 -0.743075,-0.19278 h -0.25587 q -0.564316,0 -0.739569,0.18927 -0.171749,0.18928 -0.171749,0.89029 v 0.63091 q 0,0.70452 0.175254,0.8938 0.175253,0.18927 0.736064,0.18927 h 0.25587 q 0.564317,0 0.743075,-0.19278 0.178759,-0.19278 0.178759,-0.89029 z m -1.170694,1.57728 q -0.827196,0 -1.156673,-0.32246 -0.329476,-0.32247 -0.329476,-1.13214 v -0.87627 q 0,-0.81317 0.325971,-1.13564 0.329477,-0.32247 1.153168,-0.32247 h 0.25587 q 0.827197,0 1.156673,0.32247 0.329477,0.32247 0.329477,1.13564 v 0.87627 q 0,0.81318 -0.329477,1.13564 -0.325971,0.31896 -1.149663,0.31896 z" />
          <path
             inkscape:connector-curvature="0"
             id="path1246"
             style="font-style:normal;font-variant:normal;font-weight:normal;font-stretch:normal;font-family:'Square721 BT';-inkscape-font-specification:'Square721 BT';fill:#007279;fill-opacity:1;stroke:#007279;stroke-width:0.30000001;stroke-miterlimit:4;stroke-dasharray:none;stroke-opacity:1"
             d="m 67.55452,232.75481 q 0,0.57483 0.266385,0.83771 0.26989,0.25938 0.862247,0.25938 0.536276,0 0.711529,-0.19278 0.178759,-0.19278 0.178759,-0.89029 v -0.63091 q 0,-0.70101 -0.178759,-0.89379 -0.175253,-0.19278 -0.711529,-0.19278 -0.592357,0 -0.862247,0.26288 -0.266385,0.25937 -0.266385,0.83771 z m -0.543286,-2.14861 h 0.522255 v 0.57484 q 0.133193,-0.32247 0.413598,-0.47319 0.283911,-0.15072 0.757095,-0.15072 0.788641,0 1.111108,0.32597 0.325971,0.32598 0.325971,1.13214 v 0.87627 q 0,0.80266 -0.325971,1.12863 -0.322467,0.32597 -1.111108,0.32597 -0.455659,0 -0.725549,-0.13319 -0.266385,-0.1367 -0.424113,-0.44164 v 1.93831 h -0.543286 z" />
        </g>
        <g
           id="text1124"
           style="font-style:normal;font-variant:normal;font-weight:normal;font-stretch:normal;font-size:7.17838287px;line-height:1.25;font-family:sans-serif;-inkscape-font-specification:'sans-serif, Normal';font-variant-ligatures:normal;font-variant-caps:normal;font-variant-numeric:normal;font-feature-settings:normal;text-align:start;letter-spacing:0px;word-spacing:0px;writing-mode:lr-tb;text-anchor:start;fill:#007279;fill-opacity:1;stroke:#007279;stroke-width:0.30000001;stroke-miterlimit:4;stroke-dasharray:none;stroke-opacity:1"
           transform="scale(0.98535787,1.0148597)"
           aria-label="o">
          <path
             inkscape:connector-curvature="0"
             id="path1249"
             style="font-style:normal;font-variant:normal;font-weight:normal;font-stretch:normal;font-family:'Square721 BT';-inkscape-font-specification:'Square721 BT';letter-spacing:0px;fill:#007279;fill-opacity:1;stroke:#007279;stroke-width:0.30000001;stroke-miterlimit:4;stroke-dasharray:none;stroke-opacity:1"
             d="m 80.991114,233.01503 v -0.63091 q 0,-0.69751 -0.178759,-0.88678 -0.175253,-0.19278 -0.743075,-0.19278 h -0.25587 q -0.564316,0 -0.739569,0.18927 -0.171749,0.18928 -0.171749,0.89029 v 0.63091 q 0,0.70452 0.175254,0.8938 0.175253,0.18927 0.736064,0.18927 h 0.25587 q 0.564317,0 0.743075,-0.19278 0.178759,-0.19278 0.178759,-0.89029 z m -1.170693,1.57728 q -0.827197,0 -1.156673,-0.32246 -0.329477,-0.32247 -0.329477,-1.13214 v -0.87627 q 0,-0.81317 0.325971,-1.13564 0.329477,-0.32247 1.153168,-0.32247 h 0.25587 q 0.827197,0 1.156674,0.32247 0.329476,0.32247 0.329476,1.13564 v 0.87627 q 0,0.81318 -0.329476,1.13564 -0.325972,0.31896 -1.149663,0.31896 z" />
        </g>
        <g
           id="text1128"
           style="font-style:normal;font-variant:normal;font-weight:normal;font-stretch:normal;font-size:7.17838287px;line-height:1.25;font-family:sans-serif;-inkscape-font-specification:'sans-serif, Normal';font-variant-ligatures:normal;font-variant-caps:normal;font-variant-numeric:normal;font-feature-settings:normal;text-align:start;letter-spacing:0px;word-spacing:0px;writing-mode:lr-tb;text-anchor:start;fill:#007279;fill-opacity:1;stroke:#007279;stroke-width:0.30000001;stroke-miterlimit:4;stroke-dasharray:none;stroke-opacity:1"
           transform="scale(0.98535787,1.0148597)"
           aria-label="o">
          <path
             inkscape:connector-curvature="0"
             id="path1252"
             style="font-style:normal;font-variant:normal;font-weight:normal;font-stretch:normal;font-family:'Square721 BT';-inkscape-font-specification:'Square721 BT';letter-spacing:0px;fill:#007279;fill-opacity:1;stroke:#007279;stroke-width:0.30000001;stroke-miterlimit:4;stroke-dasharray:none;stroke-opacity:1"
             d="m 85.298044,233.01503 v -0.63091 q 0,-0.69751 -0.178758,-0.88678 -0.175254,-0.19278 -0.743075,-0.19278 h -0.25587 q -0.564316,0 -0.73957,0.18927 -0.171748,0.18928 -0.171748,0.89029 v 0.63091 q 0,0.70452 0.175253,0.8938 0.175254,0.18927 0.736065,0.18927 h 0.25587 q 0.564316,0 0.743075,-0.19278 0.178758,-0.19278 0.178758,-0.89029 z m -1.170693,1.57728 q -0.827196,0 -1.156673,-0.32246 -0.329476,-0.32247 -0.329476,-1.13214 v -0.87627 q 0,-0.81317 0.325971,-1.13564 0.329477,-0.32247 1.153168,-0.32247 h 0.25587 q 0.827197,0 1.156673,0.32247 0.329477,0.32247 0.329477,1.13564 v 0.87627 q 0,0.81318 -0.329477,1.13564 -0.325971,0.31896 -1.149663,0.31896 z" />
        </g>
        <g
           id="text1132"
           style="font-style:normal;font-variant:normal;font-weight:normal;font-stretch:normal;font-size:7.17838287px;line-height:1.25;font-family:sans-serif;-inkscape-font-specification:'sans-serif, Normal';font-variant-ligatures:normal;font-variant-caps:normal;font-variant-numeric:normal;font-feature-settings:normal;text-align:start;letter-spacing:0px;word-spacing:0px;writing-mode:lr-tb;text-anchor:start;fill:#007279;fill-opacity:1;stroke:#007279;stroke-width:0.30000001;stroke-miterlimit:4;stroke-dasharray:none;stroke-opacity:1"
           transform="scale(0.98535787,1.0148597)"
           aria-label="l">
          <path
             inkscape:connector-curvature="0"
             id="path1255"
             style="font-style:normal;font-variant:normal;font-weight:normal;font-stretch:normal;font-family:'Square721 BT';-inkscape-font-specification:'Square721 BT';letter-spacing:0px;fill:#007279;fill-opacity:1;stroke:#007279;stroke-width:0.30000001;stroke-miterlimit:4;stroke-dasharray:none;stroke-opacity:1"
             d="m 87.098842,234.54324 v -5.21905 h 0.543286 v 5.21905 z" />
        </g>
        <g
           id="text1136"
           style="font-style:normal;font-variant:normal;font-weight:normal;font-stretch:normal;font-size:7.17838287px;line-height:1.25;font-family:sans-serif;-inkscape-font-specification:'sans-serif, Normal';font-variant-ligatures:normal;font-variant-caps:normal;font-variant-numeric:normal;font-feature-settings:normal;text-align:start;letter-spacing:0px;word-spacing:0px;writing-mode:lr-tb;text-anchor:start;fill:#007279;fill-opacity:1;stroke:#007279;stroke-width:0.30000001;stroke-miterlimit:4;stroke-dasharray:none;stroke-opacity:1"
           transform="scale(0.98535787,1.0148597)"
           aria-label="s">
          <path
             inkscape:connector-curvature="0"
             id="path1258"
             style="font-style:normal;font-variant:normal;font-weight:normal;font-stretch:normal;font-family:'Square721 BT';-inkscape-font-specification:'Square721 BT';letter-spacing:0px;fill:#007279;fill-opacity:1;stroke:#007279;stroke-width:0.30000001;stroke-miterlimit:4;stroke-dasharray:none;stroke-opacity:1"
             d="m 88.702318,233.44616 h 0.553801 v 0.0841 q 0,0.33999 0.210304,0.46968 0.210304,0.12618 0.844722,0.12618 0.711529,0 0.876268,-0.12969 0.164738,-0.12969 0.164738,-0.50122 0,-0.36102 -0.136698,-0.4802 -0.133193,-0.12267 -0.672973,-0.15072 -0.199789,-0.0105 -0.539781,-0.021 -0.743075,-0.021 -0.883278,-0.10164 -0.210304,-0.11567 -0.301436,-0.31546 -0.08763,-0.19979 -0.08763,-0.57483 0,-0.61339 0.311951,-0.8307 0.311951,-0.21732 1.373987,-0.21732 0.823692,0 1.114612,0.2068 0.294426,0.2068 0.294426,0.72555 H 91.27854 v -0.0351 q 0,-0.24535 -0.213809,-0.33648 -0.210304,-0.0946 -0.841217,-0.0946 -0.609882,0 -0.778125,0.11216 -0.168244,0.11216 -0.168244,0.46968 0,0.21731 0.03155,0.30494 0.03155,0.0876 0.112162,0.13319 0.164739,0.0876 0.729055,0.10165 0.143708,0.004 0.220819,0.007 0.462669,0.0175 0.72555,0.0491 0.26288,0.028 0.375042,0.0806 0.245355,0.11216 0.347002,0.32246 0.105152,0.21031 0.105152,0.60989 0,0.40658 -0.101647,0.61689 -0.101647,0.2103 -0.364527,0.37154 -0.119172,0.0771 -0.389063,0.10865 -0.26989,0.035 -0.750085,0.035 -0.981419,0 -1.300381,-0.22432 -0.315456,-0.22783 -0.315456,-0.82369 z" />
        </g>
        <g
           id="text1140"
           style="font-style:normal;font-variant:normal;font-weight:normal;font-stretch:normal;font-size:7.17838287px;line-height:1.25;font-family:sans-serif;-inkscape-font-specification:'sans-serif, Normal';font-variant-ligatures:normal;font-variant-caps:normal;font-variant-numeric:normal;font-feature-settings:normal;text-align:start;letter-spacing:0px;word-spacing:0px;writing-mode:lr-tb;text-anchor:start;fill:#007279;fill-opacity:1;stroke:#007279;stroke-width:0.30000001;stroke-miterlimit:4;stroke-dasharray:none;stroke-opacity:1"
           transform="scale(0.98535787,1.0148597)"
           aria-label="S">
          <path
             inkscape:connector-curvature="0"
             id="path1261"
             style="font-style:normal;font-variant:normal;font-weight:normal;font-stretch:normal;font-family:'Square721 BT';-inkscape-font-specification:'Square721 BT';letter-spacing:0px;fill:#007279;fill-opacity:1;stroke:#007279;stroke-width:0.30000001;stroke-miterlimit:4;stroke-dasharray:none;stroke-opacity:1"
             d="m 95.526076,232.84328 h 0.581842 v 0.0982 q 0,0.46617 0.0701,0.68699 0.0701,0.22082 0.231335,0.31195 0.126183,0.0701 0.389063,0.10165 0.26288,0.028 1.083066,0.028 0.445144,0 0.690499,-0.0561 0.245355,-0.0596 0.364527,-0.18928 0.0666,-0.0701 0.09814,-0.23834 0.03155,-0.16824 0.03155,-0.45566 0,-0.58184 -0.119172,-0.72905 -0.115668,-0.15072 -0.46267,-0.17876 l -1.608827,-0.12619 q -0.722044,-0.0561 -0.998945,-0.36102 -0.2769,-0.30494 -0.2769,-1.02698 0,-0.45566 0.09113,-0.73256 0.09113,-0.2769 0.294426,-0.45917 0.157728,-0.1402 0.441638,-0.19628 0.283911,-0.0596 1.00245,-0.0596 h 0.185769 q 0.802661,0 1.128633,0.0771 0.329476,0.0771 0.550295,0.26639 0.150718,0.12618 0.22082,0.36102 0.07361,0.23134 0.07361,0.57834 0,0.10165 -0.0035,0.15773 0,0.0526 -0.0035,0.0946 h -0.581841 v -0.12968 q 0,-0.28742 -0.03505,-0.43814 -0.03155,-0.15422 -0.105152,-0.22783 -0.108657,-0.10865 -0.389063,-0.15072 -0.2769,-0.0456 -1.055026,-0.0456 -0.806166,0 -1.012965,0.18226 -0.206799,0.18227 -0.206799,0.72906 0,0.44865 0.133192,0.62039 0.136698,0.16825 0.522256,0.19979 l 1.640372,0.1367 q 0.644933,0.0561 0.904308,0.35752 0.259376,0.29793 0.259376,0.99894 0,0.51174 -0.0666,0.77112 -0.0666,0.25587 -0.220819,0.42762 -0.189274,0.21381 -0.51174,0.30143 -0.318962,0.0841 -1.167188,0.0841 H 97.42934 q -0.722044,0 -1.02348,-0.0736 -0.297931,-0.0736 -0.49772,-0.25587 -0.196284,-0.16825 -0.290921,-0.45566 -0.09113,-0.28742 -0.09113,-0.72906 z" />
        </g>
        <g
           id="text1148"
           style="font-style:normal;font-variant:normal;font-weight:normal;font-stretch:normal;font-size:7.17838287px;line-height:1.25;font-family:sans-serif;-inkscape-font-specification:'sans-serif, Normal';font-variant-ligatures:normal;font-variant-caps:normal;font-variant-numeric:normal;font-feature-settings:normal;text-align:start;letter-spacing:0px;word-spacing:0px;writing-mode:lr-tb;text-anchor:start;fill:#007279;fill-opacity:1;stroke:#007279;stroke-width:0.30000001;stroke-miterlimit:4;stroke-dasharray:none;stroke-opacity:1"
           transform="scale(0.98535787,1.0148597)"
           aria-label="a">
          <path
             inkscape:connector-curvature="0"
             id="path1264"
             style="font-style:normal;font-variant:normal;font-weight:normal;font-stretch:normal;font-family:'Square721 BT';-inkscape-font-specification:'Square721 BT';letter-spacing:0px;fill:#007279;fill-opacity:1;stroke:#007279;stroke-width:0.30000001;stroke-miterlimit:4;stroke-dasharray:none;stroke-opacity:1"
             d="m 106.44701,233.60388 v -0.38906 q 0,-0.26288 -0.26989,-0.38556 -0.26639,-0.12267 -0.85174,-0.12267 -0.53627,0 -0.71854,0.13669 -0.17875,0.1332 -0.17875,0.51525 0,0.43463 0.18927,0.58184 0.19278,0.14371 0.76761,0.14371 0.51525,0 0.78864,-0.12268 0.2734,-0.12618 0.2734,-0.35752 z m 0.028,0.5503 q -0.12619,0.23134 -0.40309,0.33649 -0.27339,0.10164 -0.7606,0.10164 -0.86575,0 -1.16017,-0.24535 -0.29443,-0.24886 -0.29443,-0.92183 0,-0.38907 0.0666,-0.60989 0.0701,-0.22082 0.22783,-0.35401 0.13319,-0.11216 0.38906,-0.15773 0.25937,-0.0491 0.74307,-0.0491 0.50123,0 0.76411,0.0841 0.26638,0.0806 0.39958,0.2734 v -0.63792 q 0,-0.45216 -0.17526,-0.58535 -0.17525,-0.13319 -0.87977,-0.13319 -0.51174,0 -0.67998,0.10866 -0.16825,0.10515 -0.17526,0.39957 h -0.54328 v -0.0841 q 0,-0.47318 0.30494,-0.67297 0.30844,-0.2033 1.05853,-0.2033 0.58535,0 0.89029,0.0491 0.30494,0.0491 0.45215,0.15773 0.16123,0.12619 0.22783,0.31195 0.0666,0.18577 0.0666,0.63793 v 2.58323 h -0.49772 z" />
        </g>
        <g
           id="text1152"
           style="font-style:normal;font-variant:normal;font-weight:normal;font-stretch:normal;font-size:6.89253044px;line-height:1.25;font-family:sans-serif;-inkscape-font-specification:'sans-serif, Normal';font-variant-ligatures:normal;font-variant-caps:normal;font-variant-numeric:normal;font-feature-settings:normal;text-align:start;letter-spacing:0px;word-spacing:0px;writing-mode:lr-tb;text-anchor:start;fill:#007279;fill-opacity:1;stroke:#007279;stroke-width:0.28805363;stroke-miterlimit:4;stroke-dasharray:none;stroke-opacity:1"
           transform="scale(0.94368919,1.0596709)"
           aria-label="t">
          <path
             inkscape:connector-curvature="0"
             id="path1267"
             style="font-style:normal;font-variant:normal;font-weight:normal;font-stretch:normal;font-family:'Square721 BT';-inkscape-font-specification:'Square721 BT';letter-spacing:0px;fill:#007279;fill-opacity:1;stroke:#007279;stroke-width:0.28805363;stroke-miterlimit:4;stroke-dasharray:none;stroke-opacity:1"
             d="m 112.73547,221.53418 v -0.44761 h 0.43414 v -0.79762 h 0.52502 v 0.79762 h 1.7366 v 0.44761 h -1.7366 v 1.95198 q 0,0.41733 0.13462,0.56877 0.13799,0.14808 0.52165,0.14808 0.3803,0 0.51156,-0.14471 0.13462,-0.14472 0.13462,-0.57214 v -0.10433 h 0.53175 v 0.0303 q 0,0.74714 -0.24905,1.00629 -0.24568,0.25914 -1.02648,0.25914 -0.60915,0 -0.8481,-0.27261 -0.23559,-0.27597 -0.23559,-0.99282 v -1.87794 z" />
        </g>
        <g
           id="text1156"
           style="font-style:normal;font-variant:normal;font-weight:normal;font-stretch:normal;font-size:6.89253044px;line-height:1.25;font-family:sans-serif;-inkscape-font-specification:'sans-serif, Normal';font-variant-ligatures:normal;font-variant-caps:normal;font-variant-numeric:normal;font-feature-settings:normal;text-align:start;letter-spacing:0px;word-spacing:0px;writing-mode:lr-tb;text-anchor:start;fill:#007279;fill-opacity:1;stroke:#007279;stroke-width:0.28805363;stroke-miterlimit:4;stroke-dasharray:none;stroke-opacity:1"
           transform="scale(0.9436892,1.0596709)"
           aria-label="t">
          <path
             inkscape:connector-curvature="0"
             id="path1270"
             style="font-style:normal;font-variant:normal;font-weight:normal;font-stretch:normal;font-family:'Square721 BT';-inkscape-font-specification:'Square721 BT';letter-spacing:0px;fill:#007279;fill-opacity:1;stroke:#007279;stroke-width:0.28805363;stroke-miterlimit:4;stroke-dasharray:none;stroke-opacity:1"
             d="m 104.89806,221.53418 v -0.44761 h 0.43415 v -0.79762 h 0.52502 v 0.79762 h 1.73659 v 0.44761 h -1.73659 v 1.95198 q 0,0.41733 0.13462,0.56877 0.13798,0.14808 0.52165,0.14808 0.3803,0 0.51156,-0.14471 0.13461,-0.14472 0.13461,-0.57214 v -0.10433 h 0.53175 v 0.0303 q 0,0.74714 -0.24904,1.00629 -0.24568,0.25914 -1.02648,0.25914 -0.60915,0 -0.8481,-0.27261 -0.23559,-0.27597 -0.23559,-0.99282 v -1.87794 z" />
        </g>
        <g
           id="text1160"
           style="font-style:normal;font-variant:normal;font-weight:normal;font-stretch:normal;font-size:6.89253044px;line-height:1.25;font-family:sans-serif;-inkscape-font-specification:'sans-serif, Normal';font-variant-ligatures:normal;font-variant-caps:normal;font-variant-numeric:normal;font-feature-settings:normal;text-align:start;letter-spacing:0px;word-spacing:0px;writing-mode:lr-tb;text-anchor:start;fill:#007279;fill-opacity:1;stroke:#007279;stroke-width:0.28805363;stroke-miterlimit:4;stroke-dasharray:none;stroke-opacity:1"
           transform="scale(0.94368921,1.0596709)"
           aria-label="i">
          <path
             inkscape:connector-curvature="0"
             id="path1273"
             style="font-style:normal;font-variant:normal;font-weight:normal;font-stretch:normal;font-family:'Square721 BT';-inkscape-font-specification:'Square721 BT';letter-spacing:0px;fill:#007279;fill-opacity:1;stroke:#007279;stroke-width:0.28805363;stroke-miterlimit:4;stroke-dasharray:none;stroke-opacity:1"
             d="m 116.49361,220.21154 v -0.59233 h 0.52165 v 0.59233 z m 0,4.41889 v -3.54386 h 0.52165 v 3.54386 z" />
        </g>
        <g
           id="text1164"
           style="font-style:normal;font-variant:normal;font-weight:normal;font-stretch:normal;font-size:7.17838287px;line-height:1.25;font-family:sans-serif;-inkscape-font-specification:'sans-serif, Normal';font-variant-ligatures:normal;font-variant-caps:normal;font-variant-numeric:normal;font-feature-settings:normal;text-align:start;letter-spacing:0px;word-spacing:0px;writing-mode:lr-tb;text-anchor:start;fill:#007279;fill-opacity:1;stroke:#007279;stroke-width:0.30000001;stroke-miterlimit:4;stroke-dasharray:none;stroke-opacity:1"
           transform="scale(0.98535787,1.0148597)"
           aria-label="o">
          <path
             inkscape:connector-curvature="0"
             id="path1276"
             style="font-style:normal;font-variant:normal;font-weight:normal;font-stretch:normal;font-family:'Square721 BT';-inkscape-font-specification:'Square721 BT';letter-spacing:0px;fill:#007279;fill-opacity:1;stroke:#007279;stroke-width:0.30000001;stroke-miterlimit:4;stroke-dasharray:none;stroke-opacity:1"
             d="m 115.9372,233.01503 v -0.63091 q 0,-0.69751 -0.17876,-0.88678 -0.17526,-0.19278 -0.74308,-0.19278 h -0.25587 q -0.56431,0 -0.73957,0.18927 -0.17174,0.18928 -0.17174,0.89029 v 0.63091 q 0,0.70452 0.17525,0.8938 0.17525,0.18927 0.73606,0.18927 h 0.25587 q 0.56432,0 0.74308,-0.19278 0.17876,-0.19278 0.17876,-0.89029 z m -1.1707,1.57728 q -0.82719,0 -1.15667,-0.32246 -0.32948,-0.32247 -0.32948,-1.13214 v -0.87627 q 0,-0.81317 0.32598,-1.13564 0.32947,-0.32247 1.15316,-0.32247 h 0.25587 q 0.8272,0 1.15668,0.32247 0.32947,0.32247 0.32947,1.13564 v 0.87627 q 0,0.81318 -0.32947,1.13564 -0.32597,0.31896 -1.14967,0.31896 z" />
        </g>
        <g
           id="text1168"
           style="font-style:normal;font-variant:normal;font-weight:normal;font-stretch:normal;font-size:7.50426388px;line-height:1.25;font-family:sans-serif;-inkscape-font-specification:'sans-serif, Normal';font-variant-ligatures:normal;font-variant-caps:normal;font-variant-numeric:normal;font-feature-settings:normal;text-align:start;letter-spacing:0px;word-spacing:0px;writing-mode:lr-tb;text-anchor:start;fill:#007279;fill-opacity:1;stroke:#007279;stroke-width:0.31361929;stroke-miterlimit:4;stroke-dasharray:none;stroke-opacity:1"
           transform="scale(1.0338003,0.96730483)"
           aria-label="n">
          <path
             inkscape:connector-curvature="0"
             id="path1279"
             style="font-style:normal;font-variant:normal;font-weight:normal;font-stretch:normal;font-family:'Square721 BT';-inkscape-font-specification:'Square721 BT';letter-spacing:0px;fill:#007279;fill-opacity:1;stroke:#007279;stroke-width:0.31361929;stroke-miterlimit:4;stroke-dasharray:none;stroke-opacity:1"
             d="m 112.1687,246.06688 v -3.85839 h 0.54597 v 0.52764 q 0.13924,-0.2968 0.44703,-0.43604 0.30779,-0.1429 0.81345,-0.1429 0.75849,0 1.06261,0.30779 0.30413,0.30413 0.30413,1.07361 v 2.52829 h -0.57161 v -2.40737 q 0,-0.6046 -0.17955,-0.79513 -0.17588,-0.19054 -0.68886,-0.19054 -0.6046,0 -0.88674,0.27848 -0.27848,0.27481 -0.27848,0.87207 v 2.24249 z" />
        </g>
      </g>
      <path
         sodipodi:nodetypes="cccccccccc"
         inkscape:connector-curvature="0"
         id="rect1087"
         d="m -1294.4012,432.07828 1.893,6.68245 -3.4276,11.76193 c -1.2479,2.9946 -0.5823,2.9946 1.0456,2.9946 h 6.8732 l 1.3153,4.4558 h -15.3315 c -3.2114,-0.84234 -4.6482,-3.05262 -3.2472,-7.4504 l 4.1393,-13.78239 c 1.8624,-3.35955 4.1997,-4.48785 6.7399,-4.66199 z"
         style="opacity:1;fill:#007279;fill-opacity:1;stroke:none;stroke-width:0.31542459;stroke-linecap:round;stroke-linejoin:miter;stroke-miterlimit:4;stroke-dasharray:none;stroke-opacity:1" />
    </g>
    <g
       aria-label="Herramientas"
       transform="scale(0.98535787,1.0148597)"
       style="font-style:normal;font-variant:normal;font-weight:normal;font-stretch:normal;font-size:9.6741724px;line-height:1.25;font-family:sans-serif;-inkscape-font-specification:'sans-serif, Normal';font-variant-ligatures:normal;font-variant-caps:normal;font-variant-numeric:normal;font-feature-settings:normal;text-align:start;letter-spacing:0px;word-spacing:0px;writing-mode:lr-tb;text-anchor:start;fill:#007279;fill-opacity:1;stroke:#007279;stroke-width:0.15874998;stroke-miterlimit:4;stroke-dasharray:none;stroke-opacity:1"
       id="text1961">
      <path
         d="m 45.023971,80.21019 v -7.033615 h 0.77469 v 3.03735 h 4.052949 v -3.03735 h 0.77469 v 7.033615 h -0.77469 v -3.259365 h -4.052949 v 3.259365 z"
         style="font-style:normal;font-variant:normal;font-weight:normal;font-stretch:normal;font-family:'Square721 BT';-inkscape-font-specification:'Square721 BT';fill:#007279;fill-opacity:1;stroke:#007279;stroke-width:0.15874998;stroke-miterlimit:4;stroke-dasharray:none;stroke-opacity:1"
         id="path2033"
         inkscape:connector-curvature="0" />
      <path
         d="m 52.813381,77.238972 h 2.815335 v -0.193673 q 0,-0.69911 -0.250357,-0.949467 -0.250357,-0.250357 -0.99198,-0.250357 h -0.344832 q -0.7369,0 -0.982533,0.250357 -0.245633,0.250357 -0.245633,0.949467 z m 1.237614,3.03735 q -1.114798,0 -1.558827,-0.434582 -0.444029,-0.434582 -0.444029,-1.525761 V 77.13505 q 0,-1.095902 0.439305,-1.530484 0.44403,-0.434582 1.554103,-0.434582 h 0.344832 q 1.114797,0 1.558826,0.434582 0.44403,0.434582 0.44403,1.530484 v 0.751071 l -3.575854,0.0047 q -0.0047,0.07558 -0.0094,0.170054 0,0.08975 0,0.25508 0,0.769966 0.245634,1.034494 0.245633,0.259805 0.99198,0.259805 h 0.344832 q 0.666044,0 0.925848,-0.188949 0.259804,-0.193672 0.302318,-0.670768 h 0.765242 q -0.05669,0.807756 -0.519609,1.166758 -0.462924,0.359003 -1.464352,0.359003 z"
         style="font-style:normal;font-variant:normal;font-weight:normal;font-stretch:normal;font-family:'Square721 BT';-inkscape-font-specification:'Square721 BT';fill:#007279;fill-opacity:1;stroke:#007279;stroke-width:0.15874998;stroke-miterlimit:4;stroke-dasharray:none;stroke-opacity:1"
         id="path2035"
         inkscape:connector-curvature="0" />
      <path
         d="m 57.702428,80.21019 v -4.974074 h 0.713281 v 0.680215 q 0.155883,-0.387345 0.486543,-0.566846 0.33066,-0.179501 0.878612,-0.179501 0.812479,0 1.138415,0.392068 0.330661,0.392069 0.330661,1.388773 v 0.03779 H 60.508316 V 76.84218 q 0,-0.595189 -0.188949,-0.798309 -0.188948,-0.207843 -0.713281,-0.207843 -0.614083,0 -0.888059,0.349555 -0.273975,0.344831 -0.273975,1.133692 v 2.890915 z"
         style="font-style:normal;font-variant:normal;font-weight:normal;font-stretch:normal;font-family:'Square721 BT';-inkscape-font-specification:'Square721 BT';fill:#007279;fill-opacity:1;stroke:#007279;stroke-width:0.15874998;stroke-miterlimit:4;stroke-dasharray:none;stroke-opacity:1"
         id="path2037"
         inkscape:connector-curvature="0" />
      <path
         d="m 62.237196,80.21019 v -4.974074 h 0.713281 v 0.680215 q 0.155883,-0.387345 0.486543,-0.566846 0.33066,-0.179501 0.878612,-0.179501 0.812479,0 1.138415,0.392068 0.330661,0.392069 0.330661,1.388773 v 0.03779 H 65.043084 V 76.84218 q 0,-0.595189 -0.188949,-0.798309 -0.188948,-0.207843 -0.713281,-0.207843 -0.614083,0 -0.888059,0.349555 -0.273975,0.344831 -0.273975,1.133692 v 2.890915 z"
         style="font-style:normal;font-variant:normal;font-weight:normal;font-stretch:normal;font-family:'Square721 BT';-inkscape-font-specification:'Square721 BT';fill:#007279;fill-opacity:1;stroke:#007279;stroke-width:0.15874998;stroke-miterlimit:4;stroke-dasharray:none;stroke-opacity:1"
         id="path2039"
         inkscape:connector-curvature="0" />
      <path
         d="m 70.03133,78.944234 v -0.524333 q 0,-0.354279 -0.363726,-0.519609 -0.359003,-0.16533 -1.147863,-0.16533 -0.722729,0 -0.968362,0.184225 -0.24091,0.179501 -0.24091,0.694386 0,0.585741 0.255081,0.784137 0.259804,0.193673 1.034494,0.193673 0.694386,0 1.062836,-0.16533 0.36845,-0.170054 0.36845,-0.481819 z m 0.03779,0.741623 q -0.170054,0.311766 -0.543228,0.453477 -0.36845,0.136988 -1.025046,0.136988 -1.166758,0 -1.563551,-0.33066 -0.396792,-0.335384 -0.396792,-1.242338 0,-0.524332 0.08975,-0.821927 0.09447,-0.297594 0.307041,-0.477095 0.179502,-0.151159 0.524333,-0.212567 0.349555,-0.06613 1.001428,-0.06613 0.675491,0 1.02977,0.113369 0.359003,0.108645 0.538504,0.36845 v -0.859717 q 0,-0.609359 -0.236186,-0.78886 -0.236186,-0.179502 -1.185653,-0.179502 -0.689663,0 -0.916401,0.146436 -0.226738,0.141711 -0.236186,0.538503 h -0.732176 v -0.113369 q 0,-0.637702 0.410963,-0.906954 0.415688,-0.273975 1.426563,-0.273975 0.788861,0 1.199824,0.06613 0.410963,0.06613 0.60936,0.212567 0.217291,0.170054 0.307041,0.420411 0.08975,0.250357 0.08975,0.859716 v 3.48138 H 70.09746 Z"
         style="font-style:normal;font-variant:normal;font-weight:normal;font-stretch:normal;font-family:'Square721 BT';-inkscape-font-specification:'Square721 BT';fill:#007279;fill-opacity:1;stroke:#007279;stroke-width:0.15874998;stroke-miterlimit:4;stroke-dasharray:none;stroke-opacity:1"
         id="path2041"
         inkscape:connector-curvature="0" />
      <path
         d="m 72.345951,80.21019 v -4.974074 h 0.718005 v 0.680215 q 0.155883,-0.382621 0.519609,-0.562122 0.36845,-0.184225 0.968362,-0.184225 0.632978,0 0.987257,0.193672 0.359003,0.193673 0.53378,0.628255 0.217291,-0.434582 0.57157,-0.628255 0.359002,-0.193672 0.935296,-0.193672 0.977809,0 1.355707,0.387345 0.377897,0.387344 0.377897,1.393496 v 3.259365 h -0.7369 v -3.027903 q 0,-0.831374 -0.217291,-1.086455 -0.212567,-0.259804 -0.836098,-0.259804 -0.689662,0 -1.006151,0.354279 -0.311766,0.349555 -0.311766,1.128968 v 2.890915 h -0.713281 v -3.36801 q 0,-0.590465 -0.217291,-0.798309 -0.212567,-0.207843 -0.817203,-0.207843 -0.708558,0 -1.043941,0.359002 -0.330661,0.359003 -0.330661,1.124245 v 2.890915 z"
         style="font-style:normal;font-variant:normal;font-weight:normal;font-stretch:normal;font-family:'Square721 BT';-inkscape-font-specification:'Square721 BT';fill:#007279;fill-opacity:1;stroke:#007279;stroke-width:0.15874998;stroke-miterlimit:4;stroke-dasharray:none;stroke-opacity:1"
         id="path2043"
         inkscape:connector-curvature="0" />
      <path
         d="m 80.801402,74.007949 v -0.831374 h 0.732176 v 0.831374 z m 0,6.202241 v -4.974074 h 0.732176 v 4.974074 z"
         style="font-style:normal;font-variant:normal;font-weight:normal;font-stretch:normal;font-family:'Square721 BT';-inkscape-font-specification:'Square721 BT';fill:#007279;fill-opacity:1;stroke:#007279;stroke-width:0.15874998;stroke-miterlimit:4;stroke-dasharray:none;stroke-opacity:1"
         id="path2045"
         inkscape:connector-curvature="0" />
      <path
         d="m 83.630911,77.238972 h 2.815336 v -0.193673 q 0,-0.69911 -0.250357,-0.949467 -0.250357,-0.250357 -0.991981,-0.250357 h -0.344831 q -0.7369,0 -0.982533,0.250357 -0.245634,0.250357 -0.245634,0.949467 z m 1.237614,3.03735 q -1.114797,0 -1.558826,-0.434582 -0.44403,-0.434582 -0.44403,-1.525761 V 77.13505 q 0,-1.095902 0.439306,-1.530484 0.444029,-0.434582 1.554103,-0.434582 h 0.344831 q 1.114797,0 1.558827,0.434582 0.444029,0.434582 0.444029,1.530484 v 0.751071 l -3.575854,0.0047 q -0.0047,0.07558 -0.0094,0.170054 0,0.08975 0,0.25508 0,0.769966 0.245633,1.034494 0.245634,0.259805 0.991981,0.259805 h 0.344831 q 0.666044,0 0.925849,-0.188949 0.259804,-0.193672 0.302318,-0.670768 h 0.765242 q -0.05669,0.807756 -0.519609,1.166758 -0.462924,0.359003 -1.464352,0.359003 z"
         style="font-style:normal;font-variant:normal;font-weight:normal;font-stretch:normal;font-family:'Square721 BT';-inkscape-font-specification:'Square721 BT';fill:#007279;fill-opacity:1;stroke:#007279;stroke-width:0.15874998;stroke-miterlimit:4;stroke-dasharray:none;stroke-opacity:1"
         id="path2047"
         inkscape:connector-curvature="0" />
      <path
         d="m 88.529406,80.21019 v -4.974074 h 0.703834 v 0.680215 q 0.179501,-0.382621 0.576293,-0.562122 0.396793,-0.184225 1.048666,-0.184225 0.977809,0 1.369878,0.396792 0.392068,0.392069 0.392068,1.384049 v 3.259365 h -0.7369 v -3.103482 q 0,-0.779414 -0.231462,-1.025047 -0.226738,-0.245633 -0.888059,-0.245633 -0.779413,0 -1.143139,0.359002 -0.359003,0.354279 -0.359003,1.124245 v 2.890915 z"
         style="font-style:normal;font-variant:normal;font-weight:normal;font-stretch:normal;font-family:'Square721 BT';-inkscape-font-specification:'Square721 BT';fill:#007279;fill-opacity:1;stroke:#007279;stroke-width:0.15874998;stroke-miterlimit:4;stroke-dasharray:none;stroke-opacity:1"
         id="path2049"
         inkscape:connector-curvature="0" />
      <path
         d="m 93.607402,75.86437 v -0.628254 h 0.609359 v -1.119521 h 0.7369 v 1.119521 h 2.437438 v 0.628254 h -2.437438 v 2.739756 q 0,0.585741 0.188949,0.798308 0.193672,0.207844 0.732176,0.207844 0.53378,0 0.718005,-0.20312 0.188949,-0.20312 0.188949,-0.803032 v -0.146435 h 0.746347 v 0.04251 q 0,1.048665 -0.349555,1.412392 -0.344831,0.363726 -1.440734,0.363726 -0.854993,0 -1.190376,-0.382621 -0.330661,-0.387345 -0.330661,-1.393497 V 75.86437 Z"
         style="font-style:normal;font-variant:normal;font-weight:normal;font-stretch:normal;font-family:'Square721 BT';-inkscape-font-specification:'Square721 BT';fill:#007279;fill-opacity:1;stroke:#007279;stroke-width:0.15874998;stroke-miterlimit:4;stroke-dasharray:none;stroke-opacity:1"
         id="path2051"
         inkscape:connector-curvature="0" />
      <path
         d="m 102.13371,78.944234 v -0.524333 q 0,-0.354279 -0.36373,-0.519609 -0.359,-0.16533 -1.14786,-0.16533 -0.722729,0 -0.968363,0.184225 -0.240909,0.179501 -0.240909,0.694386 0,0.585741 0.255081,0.784137 0.259804,0.193673 1.034491,0.193673 0.69439,0 1.06284,-0.16533 0.36845,-0.170054 0.36845,-0.481819 z m 0.0378,0.741623 q -0.17006,0.311766 -0.54323,0.453477 -0.36845,0.136988 -1.02505,0.136988 -1.166754,0 -1.563546,-0.33066 -0.396792,-0.335384 -0.396792,-1.242338 0,-0.524332 0.08975,-0.821927 0.09447,-0.297594 0.307041,-0.477095 0.179501,-0.151159 0.524333,-0.212567 0.349555,-0.06613 1.001424,-0.06613 0.6755,0 1.02978,0.113369 0.359,0.108645 0.5385,0.36845 v -0.859717 q 0,-0.609359 -0.23619,-0.78886 -0.23618,-0.179502 -1.18565,-0.179502 -0.68966,0 -0.916402,0.146436 -0.226739,0.141711 -0.236186,0.538503 h -0.732176 v -0.113369 q 0,-0.637702 0.410963,-0.906954 0.415687,-0.273975 1.426561,-0.273975 0.78886,0 1.19983,0.06613 0.41096,0.06613 0.60936,0.212567 0.21729,0.170054 0.30704,0.420411 0.0897,0.250357 0.0897,0.859716 v 3.48138 h -0.67077 z"
         style="font-style:normal;font-variant:normal;font-weight:normal;font-stretch:normal;font-family:'Square721 BT';-inkscape-font-specification:'Square721 BT';fill:#007279;fill-opacity:1;stroke:#007279;stroke-width:0.15874998;stroke-miterlimit:4;stroke-dasharray:none;stroke-opacity:1"
         id="path2053"
         inkscape:connector-curvature="0" />
      <path
         d="m 104.16018,78.731666 h 0.74635 v 0.11337 q 0,0.4582 0.28342,0.632978 0.28343,0.170053 1.13842,0.170053 0.95891,0 1.18093,-0.174777 0.22201,-0.174778 0.22201,-0.675492 0,-0.486542 -0.18422,-0.647149 -0.1795,-0.16533 -0.90695,-0.20312 -0.26926,-0.01417 -0.72746,-0.02834 -1.00143,-0.02834 -1.19037,-0.136988 -0.28343,-0.155882 -0.40624,-0.425134 -0.1181,-0.269252 -0.1181,-0.77469 0,-0.82665 0.42041,-1.119521 0.42041,-0.29287 1.8517,-0.29287 1.11007,0 1.50214,0.278699 0.3968,0.278699 0.3968,0.97781 h -0.7369 v -0.04724 q 0,-0.33066 -0.28815,-0.453476 -0.28342,-0.127541 -1.13369,-0.127541 -0.82193,0 -1.04867,0.151159 -0.22674,0.151159 -0.22674,0.632978 0,0.292871 0.0425,0.410964 0.0425,0.118092 0.15116,0.179501 0.22201,0.118093 0.98253,0.136988 0.19367,0.0047 0.29759,0.0094 0.62353,0.02362 0.97781,0.06613 0.35428,0.03779 0.50544,0.108646 0.33066,0.151158 0.46765,0.434582 0.14171,0.283423 0.14171,0.821926 0,0.547951 -0.13699,0.831374 -0.13699,0.283423 -0.49126,0.500714 -0.16061,0.103922 -0.52434,0.146436 -0.36372,0.04724 -1.01087,0.04724 -1.32264,0 -1.7525,-0.302318 -0.42514,-0.307042 -0.42514,-1.110074 z"
         style="font-style:normal;font-variant:normal;font-weight:normal;font-stretch:normal;font-family:'Square721 BT';-inkscape-font-specification:'Square721 BT';fill:#007279;fill-opacity:1;stroke:#007279;stroke-width:0.15874998;stroke-miterlimit:4;stroke-dasharray:none;stroke-opacity:1"
         id="path2055"
         inkscape:connector-curvature="0" />
    </g>
  </g>
</svg>
