<?xml version="1.0" encoding="UTF-8" standalone="no"?>
<!-- Created with Inkscape (http://www.inkscape.org/) -->

<svg
   xmlns:dc="http://purl.org/dc/elements/1.1/"
   xmlns:cc="http://creativecommons.org/ns#"
   xmlns:rdf="http://www.w3.org/1999/02/22-rdf-syntax-ns#"
   xmlns:svg="http://www.w3.org/2000/svg"
   xmlns="http://www.w3.org/2000/svg"
   xmlns:sodipodi="http://sodipodi.sourceforge.net/DTD/sodipodi-0.dtd"
   xmlns:inkscape="http://www.inkscape.org/namespaces/inkscape"
   width="139.64696mm"
   height="40.758377mm"
   viewBox="0 0 139.64695 40.758377"
   version="1.1"
   id="svg6760"
   inkscape:version="0.92.3 (2405546, 2018-03-11)"
   sodipodi:docname="logo-con-nombre.svg">
  <defs
     id="defs6754">
    <filter
       inkscape:collect="always"
       style="color-interpolation-filters:sRGB"
       id="filter948"
       x="-0.027045786"
       width="1.0540916"
       y="-0.027353682"
       height="1.0547074">
      <feGaussianBlur
         inkscape:collect="always"
         stdDeviation="1.4132773"
         id="feGaussianBlur950" />
    </filter>
    <filter
       inkscape:collect="always"
       style="color-interpolation-filters:sRGB"
       id="filter952"
       x="-0.019071836"
       width="1.0381438"
       y="-0.073932029"
       height="1.1478641">
      <feGaussianBlur
         inkscape:collect="always"
         stdDeviation="0.44044271"
         id="feGaussianBlur954" />
    </filter>
    <filter
       inkscape:collect="always"
       style="color-interpolation-filters:sRGB"
       id="filter956"
       x="-0.012468928"
       width="1.0249379"
       y="-0.057125621"
       height="1.1142513">
      <feGaussianBlur
         inkscape:collect="always"
         stdDeviation="0.44044271"
         id="feGaussianBlur958" />
    </filter>
  </defs>
  <sodipodi:namedview
     id="base"
     pagecolor="#ffffff"
     bordercolor="#666666"
     borderopacity="1.0"
     inkscape:pageopacity="0.0"
     inkscape:pageshadow="2"
     inkscape:zoom="0.98994949"
     inkscape:cx="317.14086"
     inkscape:cy="184.31669"
     inkscape:document-units="mm"
     inkscape:current-layer="layer1"
     showgrid="false"
     inkscape:window-width="1360"
     inkscape:window-height="705"
     inkscape:window-x="-8"
     inkscape:window-y="-8"
     inkscape:window-maximized="1"
     units="mm"
     fit-margin-top="0"
     fit-margin-left="0"
     fit-margin-right="0"
     fit-margin-bottom="0" />
  <metadata
     id="metadata6757">
    <rdf:RDF>
      <cc:Work
         rdf:about="">
        <dc:format>image/svg+xml</dc:format>
        <dc:type
           rdf:resource="http://purl.org/dc/dcmitype/StillImage" />
        <dc:title />
      </cc:Work>
    </rdf:RDF>
  </metadata>
  <g
     inkscape:label="Capa 1"
     inkscape:groupmode="layer"
     id="layer1"
     transform="translate(-0.66211801,-256.38333)">
    <g
       style="clip-rule:evenodd;opacity:0.33000004;fill:#000000;fill-opacity:1;fill-rule:evenodd;filter:url(#filter948);image-rendering:optimizeQuality;shape-rendering:geometricPrecision;text-rendering:geometricPrecision"
       id="g926"
       transform="matrix(0.31164634,0,0,0.31164634,0.64714786,256.14849)"
       inkscape:export-xdpi="96"
       inkscape:export-ydpi="96">
      <g
         id="g924"
         style="fill:#000000;fill-opacity:1">
        <metadata
           id="metadata870" />
        <g
           id="g922"
           style="fill:#000000;fill-opacity:1">
          <path
             d="M 127.623,78.7466 66.8844,53.5685 c -0.2844,-0.118 -0.5821,-0.1756 -0.8742,-0.16 -0.2925,-0.0156 -0.5916,0.0349 -0.8742,0.16 L 4.6696,78.7466 c -1.0105,0.4203 -1.5099,1.6748 -1.0681,2.7217 l 17.6138,37.8825 c 0.9426,0.4375 6.8026,0.8339 9.9452,-4.2531 1.9033,-2.8232 3.3452,-3.5495 5.5771,-3.6138 3.7619,-0.108 3.9522,1.4184 6.0436,3.7062 3.7178,6.2022 13.411,5.7247 17.2295,0.08 2.2621,-4.3611 8.0109,-5.743 11.4892,-0.2621 3.2215,5.7742 12.7793,6.5222 17.4257,0.0569 2.5341,-5.0196 9.015,-4.2266 11.2543,-0.4065 0.797,1.4936 3.8346,5.8981 10.3181,4.6586 l 18.1935,-37.8487 c 0.4416,-1.0469 -0.0657,-2.2782 -1.0685,-2.7217 z m -70.0553,10.395 0.8246,0.2558 c 0.4454,0.1378 0.8747,-0.2575 0.771,-0.7136 L 58.2921,84.836 c -0.1038,-0.4542 -0.6599,-0.6278 -1.0034,-0.3112 l -2.8961,2.6795 c -0.3434,0.3167 -0.2146,0.8854 0.2326,1.0251 l 0.7548,0.2343 c -0.4507,0.5169 -0.9819,0.9606 -1.5758,1.3112 -0.6727,0.397 -1.4114,0.6671 -2.1805,0.7959 v -6.4252 h 1.8585 c 0.5921,0 1.0732,-0.4812 1.0732,-1.0733 0,-0.592 -0.4811,-1.0732 -1.0732,-1.0732 h -1.8585 v -0.8854 c 1.1591,-0.4365 1.9855,-1.5544 1.9855,-2.8639 0,-1.6867 -1.372,-3.0587 -3.0587,-3.0587 -1.6869,0 -3.0589,1.372 -3.0589,3.0587 0,1.3095 0.8265,2.4291 1.9856,2.8639 v 0.8854 h -1.8586 c -0.592,0 -1.0732,0.4812 -1.0732,1.0732 0,0.5921 0.4812,1.0733 1.0732,1.0733 h 1.8586 v 6.4252 c -0.7674,-0.1306 -1.5079,-0.3989 -2.1804,-0.7959 -0.5921,-0.3524 -1.1252,-0.7961 -1.576,-1.313 l 0.7549,-0.2344 c 0.4454,-0.1378 0.5742,-0.7065 0.2325,-1.0249 l -2.896,-2.6778 c -0.3434,-0.3166 -0.8997,-0.143 -1.0035,0.3112 l -0.871,3.8495 c -0.1039,0.4544 0.3254,0.8514 0.7708,0.7137 l 0.8246,-0.2558 c 0.7013,1.0052 1.6135,1.8531 2.6706,2.4792 1.3112,0.7763 2.8155,1.186 4.3468,1.186 1.5311,0 3.0336,-0.4097 4.3466,-1.186 1.0571,-0.6278 1.9693,-1.4757 2.6706,-2.481 z M 51.4627,78.248 c 0,0.1395 -0.0322,0.272 -0.0876,0.3918 -0.1467,0.3077 -0.4615,0.5205 -0.8246,0.5205 -0.3632,0 -0.6779,-0.2128 -0.8246,-0.5205 -0.0573,-0.1181 -0.0878,-0.2503 -0.0878,-0.3918 0,-0.5025 0.4097,-0.9122 0.9124,-0.9122 0.5025,0 0.9122,0.4097 0.9122,0.9122 z m 15.9829,28.9853 c 1.0773,0 1.951,-0.8735 1.951,-1.9508 0,-0.0606 -0.0032,-0.1185 -0.0085,-0.1731 V 68.311 c 0.0053,-0.0548 0.0085,-0.1126 0.0085,-0.1731 0,-0.0606 -0.0032,-0.1205 -0.0085,-0.1796 v -0.0785 h -0.0085 c -0.1266,-0.9555 -0.9442,-1.6927 -1.934,-1.6927 -0.9897,0 -1.8076,0.7375 -1.9338,1.6927 h -0.0086 v 0.0785 c -0.0056,0.0592 -0.0084,0.119 -0.0084,0.1796 0,0.0605 0.0032,0.1183 0.0084,0.1731 v 36.7984 c -0.0052,0.0546 -0.0084,0.1125 -0.0084,0.1731 0,1.0773 0.8737,1.9508 1.9508,1.9508 z"
             class="fil0"
             id="path872"
             inkscape:connector-curvature="0"
             style="fill:#000000;fill-opacity:1" />
          <g
             id="g898"
             style="fill:#000000;fill-opacity:1">
            <path
               d="m 38.9269,117.685 c -0.8482,2.9409 -3.1474,5.4867 -6.3615,7.4323 -2.9999,1.8163 -6.7188,2.9646 -10.4253,2.8889 -3.2317,-0.0658 -6.8959,-1.2386 -9.8986,-3.0985 -2.9025,-1.7981 -5.2598,-4.2793 -6.1741,-7.1102 l 4.1402,-1.3291 c 0.5752,1.781 2.232,3.4502 4.317,4.7417 2.378,1.4729 5.2298,2.4012 7.7008,2.4513 2.859,0.0581 5.747,-0.8393 8.0909,-2.2584 2.3202,-1.4046 4.0005,-2.9257 4.5387,-4.7912 z"
               class="fil1"
               id="path874"
               inkscape:connector-curvature="0"
               style="fill:#000000;fill-opacity:1;fill-rule:nonzero" />
            <path
               style="fill:#000000;fill-opacity:1"
               d="M 10.37973,117.323 A 2.1986899,2.0957699 0 0 1 8.1810398,119.41877 2.1986899,2.0957699 0 0 1 5.9823499,117.323 2.1986899,2.0957699 0 0 1 8.1810398,115.22723 2.1986899,2.0957699 0 0 1 10.37973,117.323 Z"
               id="path876"
               inkscape:connector-curvature="0" />
            <path
               style="fill:#000000;fill-opacity:1"
               d="m 38.975071,117.48 a 2.1640699,2.0957699 0 0 1 -2.16407,2.09577 2.1640699,2.0957699 0 0 1 -2.16407,-2.09577 2.1640699,2.0957699 0 0 1 2.16407,-2.09577 2.1640699,2.0957699 0 0 1 2.16407,2.09577 z"
               id="path878"
               inkscape:connector-curvature="0" />
            <path
               d="m 67.5519,117.821 c -0.8482,2.9409 -3.1473,5.4867 -6.3614,7.4323 -2.9999,1.8163 -6.7188,2.9647 -10.4254,2.8889 -3.2317,-0.0658 -6.8959,-1.2386 -9.8986,-3.0985 -2.9025,-1.7981 -5.2598,-4.2793 -6.1741,-7.1102 l 4.1402,-1.3291 c 0.5753,1.7811 2.2321,3.4503 4.317,4.7417 2.378,1.4729 5.2298,2.4012 7.7009,2.4513 2.8589,0.0581 5.7469,-0.8393 8.0909,-2.2584 2.3202,-1.4046 4.0005,-2.9257 4.5386,-4.7912 z"
               class="fil1"
               id="path880"
               inkscape:connector-curvature="0"
               style="fill:#000000;fill-opacity:1;fill-rule:nonzero" />
            <path
               style="fill:#000000;fill-opacity:1"
               d="m 39.004789,117.46 a 2.1986899,2.0957699 0 0 1 -2.19869,2.09577 2.1986899,2.0957699 0 0 1 -2.19869,-2.09577 2.1986899,2.0957699 0 0 1 2.19869,-2.09577 2.1986899,2.0957699 0 0 1 2.19869,2.09577 z"
               id="path882"
               inkscape:connector-curvature="0" />
            <path
               style="fill:#000000;fill-opacity:1"
               d="m 67.600166,117.617 a 2.1640699,2.0957699 0 0 1 -2.16407,2.09577 2.1640699,2.0957699 0 0 1 -2.16407,-2.09577 2.1640699,2.0957699 0 0 1 2.16407,-2.09577 2.1640699,2.0957699 0 0 1 2.16407,2.09577 z"
               id="path884"
               inkscape:connector-curvature="0" />
            <path
               d="m 96.4493,117.549 c -0.8482,2.9409 -3.1474,5.4867 -6.3615,7.4323 -2.9999,1.8163 -6.7188,2.9646 -10.4253,2.8889 -3.2317,-0.0658 -6.8959,-1.2386 -9.8986,-3.0985 -2.9025,-1.7981 -5.2598,-4.2794 -6.1741,-7.1102 l 4.1402,-1.3292 c 0.5752,1.7811 2.232,3.4503 4.317,4.7418 2.378,1.4729 5.2298,2.4012 7.7008,2.4512 2.859,0.0582 5.747,-0.8392 8.0909,-2.2583 2.3202,-1.4046 4.0005,-2.9258 4.5387,-4.7912 z"
               class="fil1"
               id="path886"
               inkscape:connector-curvature="0"
               style="fill:#000000;fill-opacity:1;fill-rule:nonzero" />
            <path
               style="fill:#000000;fill-opacity:1"
               d="m 67.902189,117.187 a 2.1986899,2.0957699 0 0 1 -2.19869,2.09577 2.1986899,2.0957699 0 0 1 -2.19869,-2.09577 2.1986899,2.0957699 0 0 1 2.19869,-2.09577 2.1986899,2.0957699 0 0 1 2.19869,2.09577 z"
               id="path888"
               inkscape:connector-curvature="0" />
            <path
               style="fill:#000000;fill-opacity:1"
               d="m 96.497467,117.344 a 2.1640699,2.0957699 0 0 1 -2.16407,2.09577 2.1640699,2.0957699 0 0 1 -2.16407,-2.09577 2.1640699,2.0957699 0 0 1 2.16407,-2.09577 2.1640699,2.0957699 0 0 1 2.16407,2.09577 z"
               id="path890"
               inkscape:connector-curvature="0" />
            <path
               d="m 125.62,117.549 c -0.8482,2.9409 -3.1474,5.4867 -6.3615,7.4323 -2.9999,1.8163 -6.7188,2.9646 -10.4253,2.8889 -3.2317,-0.0658 -6.8959,-1.2386 -9.8986,-3.0985 -2.9025,-1.7981 -5.2598,-4.2794 -6.1741,-7.1102 l 4.1402,-1.3292 c 0.5752,1.7811 2.2321,3.4503 4.317,4.7418 2.378,1.4729 5.2298,2.4012 7.7008,2.4512 2.859,0.0582 5.747,-0.8392 8.091,-2.2583 2.3201,-1.4046 4.0004,-2.9258 4.5386,-4.7912 z"
               class="fil1"
               id="path892"
               inkscape:connector-curvature="0"
               style="fill:#000000;fill-opacity:1;fill-rule:nonzero" />
            <path
               style="fill:#000000;fill-opacity:1"
               d="m 97.072492,117.187 a 2.1986899,2.0957699 0 0 1 -2.19869,2.09577 2.1986899,2.0957699 0 0 1 -2.19869,-2.09577 2.1986899,2.0957699 0 0 1 2.19869,-2.09577 2.1986899,2.0957699 0 0 1 2.19869,2.09577 z"
               id="path894"
               inkscape:connector-curvature="0" />
            <path
               style="fill:#000000;fill-opacity:1"
               d="m 125.66807,117.344 a 2.1640699,2.0957699 0 0 1 -2.16407,2.09577 2.1640699,2.0957699 0 0 1 -2.16407,-2.09577 2.1640699,2.0957699 0 0 1 2.16407,-2.09577 2.1640699,2.0957699 0 0 1 2.16407,2.09577 z"
               id="path896"
               inkscape:connector-curvature="0" />
          </g>
          <g
             id="g914"
             style="fill:#000000;fill-opacity:1">
            <path
               style="fill:#000000;fill-opacity:1"
               d="m 123.792,72.8941 -37.7,-15.6277 v -3.6265 h 37.894 v 19.2542 z"
               id="path900"
               inkscape:connector-curvature="0" />
            <path
               d="m 86.092,28.8657 h 35.3104 c 1.421,0 2.5836,1.1625 2.5836,2.5835 V 49.823 H 86.092 Z"
               class="fil0"
               id="path902"
               inkscape:connector-curvature="0"
               style="fill:#000000;fill-opacity:1" />
            <path
               style="fill:#000000;fill-opacity:1"
               d="m 49.2888,53.6399 h 5.6515 l -5.6515,2.3428 z"
               id="path904"
               inkscape:connector-curvature="0" />
            <path
               style="fill:#000000;fill-opacity:1"
               d="m 82.2751,55.6844 -4.9322,-2.0445 h 4.9322 z"
               id="path906"
               inkscape:connector-curvature="0" />
            <path
               style="fill:#000000;fill-opacity:1"
               d="M 82.2751,28.8657 V 49.823 H 49.2888 V 28.8657 Z"
               id="path908"
               inkscape:connector-curvature="0" />
            <path
               style="fill:#000000;fill-opacity:1"
               d="M 7.8509,53.6399 H 45.472 v 3.9248 L 8.4914,72.8941 H 7.8509 Z"
               id="path910"
               inkscape:connector-curvature="0" />
            <path
               d="M 10.1992,28.8657 H 45.472 V 49.823 H 7.8509 V 31.214 c 0,-1.2918 1.0566,-2.3483 2.3483,-2.3483 z"
               class="fil0"
               id="path912"
               inkscape:connector-curvature="0"
               style="fill:#000000;fill-opacity:1" />
          </g>
          <g
             id="g920"
             style="fill:#000000;fill-opacity:1">
            <path
               d="m 67.7523,4.1454 h 35.3105 c 1.4209,0 2.5835,1.1626 2.5835,2.5836 v 18.3738 h -37.894 z"
               class="fil0"
               id="path916"
               inkscape:connector-curvature="0"
               style="fill:#000000;fill-opacity:1" />
            <path
               d="M 28.5389,4.1454 H 63.8116 V 25.1028 H 26.1906 V 6.4937 c 0,-1.2917 1.0565,-2.3483 2.3483,-2.3483 z"
               class="fil0"
               id="path918"
               inkscape:connector-curvature="0"
               style="fill:#000000;fill-opacity:1" />
          </g>
        </g>
      </g>
    </g>
    <g
       aria-label="Centro"
       transform="matrix(1.2645271,0,0,1.2645271,-9.2238946,-67.914081)"
       style="font-style:normal;font-variant:normal;font-weight:normal;font-stretch:normal;font-size:20.22314262px;line-height:1.25;font-family:sans-serif;-inkscape-font-specification:'sans-serif, Normal';font-variant-ligatures:normal;font-variant-caps:normal;font-variant-numeric:normal;font-feature-settings:normal;text-align:start;letter-spacing:0px;word-spacing:0px;writing-mode:lr-tb;text-anchor:start;opacity:0.33000004;fill:#000000;fill-opacity:1;stroke:none;stroke-width:0.30908376;filter:url(#filter952)"
       id="text930">
      <path
         d="m 59.127606,272.86616 q -3.033472,0 -4.125522,-1.67852 -1.071826,-1.67852 -1.071826,-5.52092 0,-3.84239 1.09205,-5.46025 1.092049,-1.63807 4.105298,-1.63807 1.799859,0 3.963736,0.50558 l -0.08089,1.82008 q -1.820083,-0.32357 -3.640166,-0.32357 -1.820083,0 -2.467223,1.09205 -0.647141,1.07183 -0.647141,4.06485 0,2.9728 0.626918,4.06485 0.626917,1.07183 2.447,1.07183 1.820083,0 3.680612,-0.30335 l 0.06067,1.86053 q -2.082983,0.44491 -3.943512,0.44491 z"
         style="font-style:normal;font-variant:normal;font-weight:600;font-stretch:normal;font-family:'Titillium Web';-inkscape-font-specification:'Titillium Web Semi-Bold';fill:#000000;stroke-width:0.30908376"
         id="path938"
         inkscape:connector-curvature="0" />
      <path
         d="m 72.235362,270.82362 0.566248,-0.0607 0.04045,1.63807 q -2.305438,0.46513 -4.085075,0.46513 -2.244768,0 -3.235702,-1.23361 -0.970711,-1.23361 -0.970711,-3.94351 0,-5.37936 4.388422,-5.37936 4.24686,0 4.24686,4.6311 l -0.141562,1.57741 h -6.269175 q 0.02022,1.25383 0.546025,1.8403 0.525802,0.58647 1.961645,0.58647 1.435843,0 2.952579,-0.12134 z m -1.213389,-4.00418 q 0,-1.49651 -0.485355,-2.08298 -0.465132,-0.6067 -1.597628,-0.6067 -1.132496,0 -1.658298,0.62692 -0.505579,0.62692 -0.525802,2.06276 z"
         style="font-style:normal;font-variant:normal;font-weight:600;font-stretch:normal;font-family:'Titillium Web';-inkscape-font-specification:'Titillium Web Semi-Bold';fill:#000000;stroke-width:0.30908376"
         id="path940"
         inkscape:connector-curvature="0" />
      <path
         d="m 77.50981,272.64371 h -2.204322 v -10.11157 h 2.184099 v 0.62691 q 1.47629,-0.84937 2.790794,-0.84937 2.022314,0 2.750347,1.15272 0.748257,1.1325 0.748257,3.76151 v 5.4198 h -2.1841 v -5.35914 q 0,-1.63807 -0.364016,-2.32566 -0.343794,-0.68758 -1.435844,-0.68758 -1.03138,0 -1.981868,0.40446 l -0.303347,0.12134 z"
         style="font-style:normal;font-variant:normal;font-weight:600;font-stretch:normal;font-family:'Titillium Web';-inkscape-font-specification:'Titillium Web Semi-Bold';fill:#000000;stroke-width:0.30908376"
         id="path942"
         inkscape:connector-curvature="0" />
      <path
         d="m 91.805045,264.41289 h -2.790793 v 4.44909 q 0,1.23361 0.182008,1.63807 0.182008,0.40447 0.930264,0.40447 l 1.658298,-0.0607 0.101116,1.75941 q -1.354951,0.2629 -2.062761,0.2629 -1.718967,0 -2.366107,-0.7887 -0.626918,-0.7887 -0.626918,-2.9728 v -4.69177 h -1.294281 v -1.88075 h 1.294281 v -2.93236 h 2.1841 v 2.93236 h 2.790793 z"
         style="font-style:normal;font-variant:normal;font-weight:600;font-stretch:normal;font-family:'Titillium Web';-inkscape-font-specification:'Titillium Web Semi-Bold';fill:#000000;stroke-width:0.30908376"
         id="path944"
         inkscape:connector-curvature="0" />
      <path
         d="m 93.593211,272.64371 v -10.11157 h 2.1841 v 1.21338 q 1.718967,-1.11227 3.437934,-1.43584 v 2.20432 q -1.73919,0.3438 -2.972802,0.88982 l -0.444909,0.18201 v 7.05788 z"
         style="font-style:normal;font-variant:normal;font-weight:600;font-stretch:normal;font-family:'Titillium Web';-inkscape-font-specification:'Titillium Web Semi-Bold';fill:#000000;stroke-width:0.30908376"
         id="path946"
         inkscape:connector-curvature="0" />
      <path
         d="m 101.36743,263.62419 q 1.0516,-1.31451 3.47838,-1.31451 2.42678,0 3.45816,1.31451 1.0516,1.3145 1.0516,3.94351 0,2.62901 -1.01115,3.96373 -1.01116,1.33473 -3.49861,1.33473 -2.48744,0 -3.4986,-1.33473 -1.01116,-1.33472 -1.01116,-3.96373 0,-2.62901 1.03138,-3.94351 z m 1.6583,6.57252 q 0.46513,0.80892 1.82008,0.80892 1.35495,0 1.82008,-0.80892 0.46514,-0.80893 0.46514,-2.64923 0,-1.84031 -0.50558,-2.60879 -0.48536,-0.76848 -1.77964,-0.76848 -1.29428,0 -1.79986,0.76848 -0.48535,0.76848 -0.48535,2.60879 0,1.8403 0.46513,2.64923 z"
         style="font-style:normal;font-variant:normal;font-weight:600;font-stretch:normal;font-family:'Titillium Web';-inkscape-font-specification:'Titillium Web Semi-Bold';fill:#000000;stroke-width:0.30908376"
         id="path948"
         inkscape:connector-curvature="0" />
    </g>
    <g
       aria-label="Mayorista"
       transform="matrix(0.82398577,0,0,0.82398577,14.068937,52.717866)"
       style="font-style:normal;font-variant:normal;font-weight:normal;font-stretch:normal;font-size:20.22314262px;line-height:1.25;font-family:sans-serif;-inkscape-font-specification:'sans-serif, Normal';font-variant-ligatures:normal;font-variant-caps:normal;font-variant-numeric:normal;font-feature-settings:normal;text-align:start;letter-spacing:0px;word-spacing:0px;writing-mode:lr-tb;text-anchor:start;opacity:0.33000004;fill:#000000;fill-opacity:1;stroke:none;stroke-width:0.30908376;filter:url(#filter956)"
       id="text934">
      <path
         d="m 54.476283,291.09769 v -13.85286 h 3.903066 l 3.094141,10.81939 3.094141,-10.81939 h 3.92329 v 13.85286 h -2.264992 v -11.36541 h -0.303348 l -3.276149,10.79916 h -2.345884 l -3.276149,-10.79916 h -0.303347 v 11.36541 z"
         style="font-style:normal;font-variant:normal;font-weight:600;font-stretch:normal;font-family:'Titillium Web';-inkscape-font-specification:'Titillium Web Semi-Bold';fill:#000000;stroke-width:0.30908376"
         id="path919"
         inkscape:connector-curvature="0" />
      <path
         d="m 78.877717,284.10048 v 4.61088 q 0.02022,0.44491 0.222454,0.66736 0.222455,0.20223 0.667364,0.2629 l -0.06067,1.67852 q -1.739191,0 -2.689678,-0.74825 -1.617852,0.74825 -3.255926,0.74825 -3.013248,0 -3.013248,-3.21548 0,-1.53696 0.808925,-2.22454 0.829149,-0.68759 2.527893,-0.82915 l 2.608785,-0.22246 v -0.72803 q 0,-0.80893 -0.364016,-1.1325 -0.343793,-0.32357 -1.03138,-0.32357 -1.294281,0 -3.235703,0.16179 l -0.647141,0.0404 -0.08089,-1.55718 q 2.204322,-0.5258 4.044628,-0.5258 1.860529,0 2.669455,0.80893 0.829149,0.7887 0.829149,2.52789 z m -4.529984,2.50767 q -1.395397,0.12134 -1.395397,1.51673 0,1.3954 1.233612,1.3954 1.011157,0 2.143653,-0.32357 l 0.364016,-0.12134 v -2.68968 z"
         style="font-style:normal;font-variant:normal;font-weight:600;font-stretch:normal;font-family:'Titillium Web';-inkscape-font-specification:'Titillium Web Semi-Bold';fill:#000000;stroke-width:0.30908376"
         id="path921"
         inkscape:connector-curvature="0" />
      <path
         d="m 80.615959,280.98612 h 2.163876 l 2.143654,8.23081 h 0.546024 l 2.143654,-8.23081 h 2.184099 l -3.842397,14.45954 h -2.163876 l 1.213388,-4.34797 h -1.73919 z"
         style="font-style:normal;font-variant:normal;font-weight:600;font-stretch:normal;font-family:'Titillium Web';-inkscape-font-specification:'Titillium Web Semi-Bold';fill:#000000;stroke-width:0.30908376"
         id="path923"
         inkscape:connector-curvature="0" />
      <path
         d="m 91.848335,282.07817 q 1.051603,-1.31451 3.47838,-1.31451 2.426778,0 3.458158,1.31451 1.051603,1.3145 1.051603,3.94351 0,2.62901 -1.011157,3.96373 -1.011157,1.33473 -3.498604,1.33473 -2.487446,0 -3.498603,-1.33473 -1.011157,-1.33472 -1.011157,-3.96373 0,-2.62901 1.03138,-3.94351 z m 1.658298,6.57252 q 0.465132,0.80892 1.820082,0.80892 1.354951,0 1.820083,-0.80892 0.465133,-0.80893 0.465133,-2.64924 0,-1.8403 -0.505579,-2.60878 -0.485355,-0.76848 -1.779637,-0.76848 -1.294281,0 -1.799859,0.76848 -0.485356,0.76848 -0.485356,2.60878 0,1.84031 0.465133,2.64924 z"
         style="font-style:normal;font-variant:normal;font-weight:600;font-stretch:normal;font-family:'Titillium Web';-inkscape-font-specification:'Titillium Web Semi-Bold';fill:#000000;stroke-width:0.30908376"
         id="path925"
         inkscape:connector-curvature="0" />
      <path
         d="m 102.00636,291.09769 v -10.11157 h 2.1841 v 1.21338 q 1.71896,-1.11227 3.43793,-1.43584 v 2.20432 q -1.73919,0.3438 -2.9728,0.88982 l -0.44491,0.18201 v 7.05788 z"
         style="font-style:normal;font-variant:normal;font-weight:600;font-stretch:normal;font-family:'Titillium Web';-inkscape-font-specification:'Titillium Web Semi-Bold';fill:#000000;stroke-width:0.30908376"
         id="path927"
         inkscape:connector-curvature="0" />
      <path
         d="m 109.31355,291.09769 v -10.11157 h 2.20432 v 10.11157 z m 0,-11.83054 v -2.32566 h 2.20432 v 2.32566 z"
         style="font-style:normal;font-variant:normal;font-weight:600;font-stretch:normal;font-family:'Titillium Web';-inkscape-font-specification:'Titillium Web Semi-Bold';fill:#000000;stroke-width:0.30908376"
         id="path929"
         inkscape:connector-curvature="0" />
      <path
         d="m 121.18927,283.0691 q -2.38633,-0.32357 -3.45816,-0.32357 -1.07182,0 -1.49651,0.2629 -0.40446,0.24268 -0.40446,0.7887 0,0.54603 0.44491,0.76848 0.46513,0.22246 2.14365,0.5258 1.69874,0.28313 2.40655,0.91004 0.70781,0.62692 0.70781,2.22455 0,1.59763 -1.03138,2.34589 -1.01115,0.74825 -2.9728,0.74825 -1.23361,0 -3.11436,-0.34379 l -0.62692,-0.10112 0.0809,-1.8403 q 2.42678,0.32357 3.49861,0.32357 1.07182,0 1.51673,-0.2629 0.46513,-0.26291 0.46513,-0.8696 0,-0.60669 -0.4449,-0.82915 -0.42469,-0.24268 -2.08299,-0.50558 -1.63807,-0.28312 -2.40655,-0.86959 -0.76848,-0.58647 -0.76848,-2.14366 0,-1.55718 1.0516,-2.32566 1.07183,-0.76848 2.73013,-0.76848 1.29428,0 3.17503,0.32357 l 0.62692,0.12134 z"
         style="font-style:normal;font-variant:normal;font-weight:600;font-stretch:normal;font-family:'Titillium Web';-inkscape-font-specification:'Titillium Web Semi-Bold';fill:#000000;stroke-width:0.30908376"
         id="path931"
         inkscape:connector-curvature="0" />
      <path
         d="m 129.09146,282.86687 h -2.79079 v 4.44909 q 0,1.23361 0.18201,1.63807 0.18201,0.40447 0.93026,0.40447 l 1.6583,-0.0607 0.10112,1.75941 q -1.35495,0.2629 -2.06276,0.2629 -1.71897,0 -2.36611,-0.7887 -0.62692,-0.7887 -0.62692,-2.9728 v -4.69177 h -1.29428 v -1.88075 h 1.29428 v -2.93236 h 2.1841 v 2.93236 h 2.79079 z"
         style="font-style:normal;font-variant:normal;font-weight:600;font-stretch:normal;font-family:'Titillium Web';-inkscape-font-specification:'Titillium Web Semi-Bold';fill:#000000;stroke-width:0.30908376"
         id="path933"
         inkscape:connector-curvature="0" />
      <path
         d="m 138.3622,284.10048 v 4.61088 q 0.0202,0.44491 0.22245,0.66736 0.22246,0.20223 0.66737,0.2629 l -0.0607,1.67852 q -1.73919,0 -2.68968,-0.74825 -1.61785,0.74825 -3.25593,0.74825 -3.01325,0 -3.01325,-3.21548 0,-1.53696 0.80893,-2.22454 0.82915,-0.68759 2.52789,-0.82915 l 2.60879,-0.22246 v -0.72803 q 0,-0.80893 -0.36402,-1.1325 -0.34379,-0.32357 -1.03138,-0.32357 -1.29428,0 -3.2357,0.16179 l -0.64714,0.0404 -0.0809,-1.55718 q 2.20433,-0.5258 4.04463,-0.5258 1.86053,0 2.66946,0.80893 0.82915,0.7887 0.82915,2.52789 z m -4.52999,2.50767 q -1.39539,0.12134 -1.39539,1.51673 0,1.3954 1.23361,1.3954 1.01115,0 2.14365,-0.32357 l 0.36402,-0.12134 v -2.68968 z"
         style="font-style:normal;font-variant:normal;font-weight:600;font-stretch:normal;font-family:'Titillium Web';-inkscape-font-specification:'Titillium Web Semi-Bold';fill:#000000;stroke-width:0.30908376"
         id="path935"
         inkscape:connector-curvature="0" />
    </g>
    <g
       inkscape:export-ydpi="96"
       inkscape:export-xdpi="96"
       transform="matrix(0.31164634,0,0,0.31164634,0.11798119,256.14849)"
       id="g6697"
       style="clip-rule:evenodd;fill:#f9f9f9;fill-opacity:1;fill-rule:evenodd;image-rendering:optimizeQuality;shape-rendering:geometricPrecision;text-rendering:geometricPrecision">
      <g
         style="fill:#f9f9f9;fill-opacity:1"
         id="g6695">
        <metadata
           id="metadata6641" />
        <g
           style="fill:#f9f9f9;fill-opacity:1"
           id="g6693">
          <path
             style="fill:#f9f9f9;fill-opacity:1"
             inkscape:connector-curvature="0"
             id="path6643"
             class="fil0"
             d="M 127.623,78.7466 66.8844,53.5685 c -0.2844,-0.118 -0.5821,-0.1756 -0.8742,-0.16 -0.2925,-0.0156 -0.5916,0.0349 -0.8742,0.16 L 4.6696,78.7466 c -1.0105,0.4203 -1.5099,1.6748 -1.0681,2.7217 l 17.6138,37.8825 c 0.9426,0.4375 6.8026,0.8339 9.9452,-4.2531 1.9033,-2.8232 3.3452,-3.5495 5.5771,-3.6138 3.7619,-0.108 3.9522,1.4184 6.0436,3.7062 3.7178,6.2022 13.411,5.7247 17.2295,0.08 2.2621,-4.3611 8.0109,-5.743 11.4892,-0.2621 3.2215,5.7742 12.7793,6.5222 17.4257,0.0569 2.5341,-5.0196 9.015,-4.2266 11.2543,-0.4065 0.797,1.4936 3.8346,5.8981 10.3181,4.6586 l 18.1935,-37.8487 c 0.4416,-1.0469 -0.0657,-2.2782 -1.0685,-2.7217 z m -70.0553,10.395 0.8246,0.2558 c 0.4454,0.1378 0.8747,-0.2575 0.771,-0.7136 L 58.2921,84.836 c -0.1038,-0.4542 -0.6599,-0.6278 -1.0034,-0.3112 l -2.8961,2.6795 c -0.3434,0.3167 -0.2146,0.8854 0.2326,1.0251 l 0.7548,0.2343 c -0.4507,0.5169 -0.9819,0.9606 -1.5758,1.3112 -0.6727,0.397 -1.4114,0.6671 -2.1805,0.7959 v -6.4252 h 1.8585 c 0.5921,0 1.0732,-0.4812 1.0732,-1.0733 0,-0.592 -0.4811,-1.0732 -1.0732,-1.0732 h -1.8585 v -0.8854 c 1.1591,-0.4365 1.9855,-1.5544 1.9855,-2.8639 0,-1.6867 -1.372,-3.0587 -3.0587,-3.0587 -1.6869,0 -3.0589,1.372 -3.0589,3.0587 0,1.3095 0.8265,2.4291 1.9856,2.8639 v 0.8854 h -1.8586 c -0.592,0 -1.0732,0.4812 -1.0732,1.0732 0,0.5921 0.4812,1.0733 1.0732,1.0733 h 1.8586 v 6.4252 c -0.7674,-0.1306 -1.5079,-0.3989 -2.1804,-0.7959 -0.5921,-0.3524 -1.1252,-0.7961 -1.576,-1.313 l 0.7549,-0.2344 c 0.4454,-0.1378 0.5742,-0.7065 0.2325,-1.0249 l -2.896,-2.6778 c -0.3434,-0.3166 -0.8997,-0.143 -1.0035,0.3112 l -0.871,3.8495 c -0.1039,0.4544 0.3254,0.8514 0.7708,0.7137 l 0.8246,-0.2558 c 0.7013,1.0052 1.6135,1.8531 2.6706,2.4792 1.3112,0.7763 2.8155,1.186 4.3468,1.186 1.5311,0 3.0336,-0.4097 4.3466,-1.186 1.0571,-0.6278 1.9693,-1.4757 2.6706,-2.481 z M 51.4627,78.248 c 0,0.1395 -0.0322,0.272 -0.0876,0.3918 -0.1467,0.3077 -0.4615,0.5205 -0.8246,0.5205 -0.3632,0 -0.6779,-0.2128 -0.8246,-0.5205 -0.0573,-0.1181 -0.0878,-0.2503 -0.0878,-0.3918 0,-0.5025 0.4097,-0.9122 0.9124,-0.9122 0.5025,0 0.9122,0.4097 0.9122,0.9122 z m 15.9829,28.9853 c 1.0773,0 1.951,-0.8735 1.951,-1.9508 0,-0.0606 -0.0032,-0.1185 -0.0085,-0.1731 V 68.311 c 0.0053,-0.0548 0.0085,-0.1126 0.0085,-0.1731 0,-0.0606 -0.0032,-0.1205 -0.0085,-0.1796 v -0.0785 h -0.0085 c -0.1266,-0.9555 -0.9442,-1.6927 -1.934,-1.6927 -0.9897,0 -1.8076,0.7375 -1.9338,1.6927 h -0.0086 v 0.0785 c -0.0056,0.0592 -0.0084,0.119 -0.0084,0.1796 0,0.0605 0.0032,0.1183 0.0084,0.1731 v 36.7984 c -0.0052,0.0546 -0.0084,0.1125 -0.0084,0.1731 0,1.0773 0.8737,1.9508 1.9508,1.9508 z" />
          <g
             style="fill:#f9f9f9;fill-opacity:1"
             id="g6669">
            <path
               style="fill:#f9f9f9;fill-opacity:1;fill-rule:nonzero"
               inkscape:connector-curvature="0"
               id="path6645"
               class="fil1"
               d="m 38.9269,117.685 c -0.8482,2.9409 -3.1474,5.4867 -6.3615,7.4323 -2.9999,1.8163 -6.7188,2.9646 -10.4253,2.8889 -3.2317,-0.0658 -6.8959,-1.2386 -9.8986,-3.0985 -2.9025,-1.7981 -5.2598,-4.2793 -6.1741,-7.1102 l 4.1402,-1.3291 c 0.5752,1.781 2.232,3.4502 4.317,4.7417 2.378,1.4729 5.2298,2.4012 7.7008,2.4513 2.859,0.0581 5.747,-0.8393 8.0909,-2.2584 2.3202,-1.4046 4.0005,-2.9257 4.5387,-4.7912 z" />
            <path
               inkscape:connector-curvature="0"
               id="path6647"
               d="M 10.37973,117.323 A 2.1986899,2.0957699 0 0 1 8.1810398,119.41877 2.1986899,2.0957699 0 0 1 5.9823499,117.323 2.1986899,2.0957699 0 0 1 8.1810398,115.22723 2.1986899,2.0957699 0 0 1 10.37973,117.323 Z"
               style="fill:#f9f9f9;fill-opacity:1" />
            <path
               inkscape:connector-curvature="0"
               id="path6649"
               d="m 38.975071,117.48 a 2.1640699,2.0957699 0 0 1 -2.16407,2.09577 2.1640699,2.0957699 0 0 1 -2.16407,-2.09577 2.1640699,2.0957699 0 0 1 2.16407,-2.09577 2.1640699,2.0957699 0 0 1 2.16407,2.09577 z"
               style="fill:#f9f9f9;fill-opacity:1" />
            <path
               style="fill:#f9f9f9;fill-opacity:1;fill-rule:nonzero"
               inkscape:connector-curvature="0"
               id="path6651"
               class="fil1"
               d="m 67.5519,117.821 c -0.8482,2.9409 -3.1473,5.4867 -6.3614,7.4323 -2.9999,1.8163 -6.7188,2.9647 -10.4254,2.8889 -3.2317,-0.0658 -6.8959,-1.2386 -9.8986,-3.0985 -2.9025,-1.7981 -5.2598,-4.2793 -6.1741,-7.1102 l 4.1402,-1.3291 c 0.5753,1.7811 2.2321,3.4503 4.317,4.7417 2.378,1.4729 5.2298,2.4012 7.7009,2.4513 2.8589,0.0581 5.7469,-0.8393 8.0909,-2.2584 2.3202,-1.4046 4.0005,-2.9257 4.5386,-4.7912 z" />
            <path
               inkscape:connector-curvature="0"
               id="path6653"
               d="m 39.004789,117.46 a 2.1986899,2.0957699 0 0 1 -2.19869,2.09577 2.1986899,2.0957699 0 0 1 -2.19869,-2.09577 2.1986899,2.0957699 0 0 1 2.19869,-2.09577 2.1986899,2.0957699 0 0 1 2.19869,2.09577 z"
               style="fill:#f9f9f9;fill-opacity:1" />
            <path
               inkscape:connector-curvature="0"
               id="path6655"
               d="m 67.600166,117.617 a 2.1640699,2.0957699 0 0 1 -2.16407,2.09577 2.1640699,2.0957699 0 0 1 -2.16407,-2.09577 2.1640699,2.0957699 0 0 1 2.16407,-2.09577 2.1640699,2.0957699 0 0 1 2.16407,2.09577 z"
               style="fill:#f9f9f9;fill-opacity:1" />
            <path
               style="fill:#f9f9f9;fill-opacity:1;fill-rule:nonzero"
               inkscape:connector-curvature="0"
               id="path6657"
               class="fil1"
               d="m 96.4493,117.549 c -0.8482,2.9409 -3.1474,5.4867 -6.3615,7.4323 -2.9999,1.8163 -6.7188,2.9646 -10.4253,2.8889 -3.2317,-0.0658 -6.8959,-1.2386 -9.8986,-3.0985 -2.9025,-1.7981 -5.2598,-4.2794 -6.1741,-7.1102 l 4.1402,-1.3292 c 0.5752,1.7811 2.232,3.4503 4.317,4.7418 2.378,1.4729 5.2298,2.4012 7.7008,2.4512 2.859,0.0582 5.747,-0.8392 8.0909,-2.2583 2.3202,-1.4046 4.0005,-2.9258 4.5387,-4.7912 z" />
            <path
               inkscape:connector-curvature="0"
               id="path6659"
               d="m 67.902189,117.187 a 2.1986899,2.0957699 0 0 1 -2.19869,2.09577 2.1986899,2.0957699 0 0 1 -2.19869,-2.09577 2.1986899,2.0957699 0 0 1 2.19869,-2.09577 2.1986899,2.0957699 0 0 1 2.19869,2.09577 z"
               style="fill:#f9f9f9;fill-opacity:1" />
            <path
               inkscape:connector-curvature="0"
               id="path6661"
               d="m 96.497467,117.344 a 2.1640699,2.0957699 0 0 1 -2.16407,2.09577 2.1640699,2.0957699 0 0 1 -2.16407,-2.09577 2.1640699,2.0957699 0 0 1 2.16407,-2.09577 2.1640699,2.0957699 0 0 1 2.16407,2.09577 z"
               style="fill:#f9f9f9;fill-opacity:1" />
            <path
               style="fill:#f9f9f9;fill-opacity:1;fill-rule:nonzero"
               inkscape:connector-curvature="0"
               id="path6663"
               class="fil1"
               d="m 125.62,117.549 c -0.8482,2.9409 -3.1474,5.4867 -6.3615,7.4323 -2.9999,1.8163 -6.7188,2.9646 -10.4253,2.8889 -3.2317,-0.0658 -6.8959,-1.2386 -9.8986,-3.0985 -2.9025,-1.7981 -5.2598,-4.2794 -6.1741,-7.1102 l 4.1402,-1.3292 c 0.5752,1.7811 2.2321,3.4503 4.317,4.7418 2.378,1.4729 5.2298,2.4012 7.7008,2.4512 2.859,0.0582 5.747,-0.8392 8.091,-2.2583 2.3201,-1.4046 4.0004,-2.9258 4.5386,-4.7912 z" />
            <path
               inkscape:connector-curvature="0"
               id="path6665"
               d="m 97.072492,117.187 a 2.1986899,2.0957699 0 0 1 -2.19869,2.09577 2.1986899,2.0957699 0 0 1 -2.19869,-2.09577 2.1986899,2.0957699 0 0 1 2.19869,-2.09577 2.1986899,2.0957699 0 0 1 2.19869,2.09577 z"
               style="fill:#f9f9f9;fill-opacity:1" />
            <path
               inkscape:connector-curvature="0"
               id="path6667"
               d="m 125.66807,117.344 a 2.1640699,2.0957699 0 0 1 -2.16407,2.09577 2.1640699,2.0957699 0 0 1 -2.16407,-2.09577 2.1640699,2.0957699 0 0 1 2.16407,-2.09577 2.1640699,2.0957699 0 0 1 2.16407,2.09577 z"
               style="fill:#f9f9f9;fill-opacity:1" />
          </g>
          <g
             style="fill:#f9f9f9;fill-opacity:1"
             id="g6685">
            <path
               inkscape:connector-curvature="0"
               id="path6671"
               d="m 123.792,72.8941 -37.7,-15.6277 v -3.6265 h 37.894 v 19.2542 z"
               style="fill:#f9f9f9;fill-opacity:1" />
            <path
               style="fill:#f9f9f9;fill-opacity:1"
               inkscape:connector-curvature="0"
               id="path6673"
               class="fil0"
               d="m 86.092,28.8657 h 35.3104 c 1.421,0 2.5836,1.1625 2.5836,2.5835 V 49.823 H 86.092 Z" />
            <path
               inkscape:connector-curvature="0"
               id="path6675"
               d="m 49.2888,53.6399 h 5.6515 l -5.6515,2.3428 z"
               style="fill:#f9f9f9;fill-opacity:1" />
            <path
               inkscape:connector-curvature="0"
               id="path6677"
               d="m 82.2751,55.6844 -4.9322,-2.0445 h 4.9322 z"
               style="fill:#f9f9f9;fill-opacity:1" />
            <path
               inkscape:connector-curvature="0"
               id="path6679"
               d="M 82.2751,28.8657 V 49.823 H 49.2888 V 28.8657 Z"
               style="fill:#f9f9f9;fill-opacity:1" />
            <path
               inkscape:connector-curvature="0"
               id="path6681"
               d="M 7.8509,53.6399 H 45.472 v 3.9248 L 8.4914,72.8941 H 7.8509 Z"
               style="fill:#f9f9f9;fill-opacity:1" />
            <path
               style="fill:#f9f9f9;fill-opacity:1"
               inkscape:connector-curvature="0"
               id="path6683"
               class="fil0"
               d="M 10.1992,28.8657 H 45.472 V 49.823 H 7.8509 V 31.214 c 0,-1.2918 1.0566,-2.3483 2.3483,-2.3483 z" />
          </g>
          <g
             style="fill:#f9f9f9;fill-opacity:1"
             id="g6691">
            <path
               style="fill:#f9f9f9;fill-opacity:1"
               inkscape:connector-curvature="0"
               id="path6687"
               class="fil0"
               d="m 67.7523,4.1454 h 35.3105 c 1.4209,0 2.5835,1.1626 2.5835,2.5836 v 18.3738 h -37.894 z" />
            <path
               style="fill:#f9f9f9;fill-opacity:1"
               inkscape:connector-curvature="0"
               id="path6689"
               class="fil0"
               d="M 28.5389,4.1454 H 63.8116 V 25.1028 H 26.1906 V 6.4937 c 0,-1.2917 1.0565,-2.3483 2.3483,-2.3483 z" />
          </g>
        </g>
      </g>
    </g>
    <g
       aria-label="Centro"
       style="font-style:normal;font-variant:normal;font-weight:normal;font-stretch:normal;font-size:25.57271385px;line-height:1.25;font-family:sans-serif;-inkscape-font-specification:'sans-serif, Normal';font-variant-ligatures:normal;font-variant-caps:normal;font-variant-numeric:normal;font-feature-settings:normal;text-align:start;letter-spacing:0px;word-spacing:0px;writing-mode:lr-tb;text-anchor:start;fill:#f9f9f9;fill-opacity:1;stroke:none;stroke-width:0.39084485"
       id="text864"
       transform="translate(2.1166667)">
      <path
         d="m 62.758753,277.13259 q -3.835907,0 -5.216833,-2.12254 -1.355354,-2.12253 -1.355354,-6.98135 0,-4.85881 1.380926,-6.90463 1.380927,-2.07139 5.191261,-2.07139 2.275972,0 5.012252,0.63932 l -0.102291,2.30154 q -2.301544,-0.40916 -4.603088,-0.40916 -2.301544,0 -3.119871,1.38092 -0.818327,1.35536 -0.818327,5.14012 0,3.75919 0.792754,5.14012 0.792754,1.35535 3.094299,1.35535 2.301544,0 4.654233,-0.38359 l 0.07672,2.35269 q -2.63399,0.5626 -4.98668,0.5626 z"
         style="font-style:normal;font-variant:normal;font-weight:600;font-stretch:normal;font-family:'Titillium Web';-inkscape-font-specification:'Titillium Web Semi-Bold';fill:#f9f9f9;stroke-width:0.39084485"
         id="path905"
         inkscape:connector-curvature="0" />
      <path
         d="m 79.333868,274.54974 0.716036,-0.0767 0.05115,2.07139 q -2.91529,0.58817 -5.165689,0.58817 -2.838571,0 -4.091634,-1.55994 -1.22749,-1.55993 -1.22749,-4.98668 0,-6.80234 5.549279,-6.80234 5.37027,0 5.37027,5.85615 l -0.179009,1.99467 h -7.927542 q 0.02557,1.58551 0.690464,2.32712 0.66489,0.74161 2.480553,0.74161 1.815663,0 3.733616,-0.15344 z m -1.534363,-5.06339 q 0,-1.89238 -0.613745,-2.63399 -0.588172,-0.76718 -2.020244,-0.76718 -1.432072,0 -2.096963,0.79275 -0.639318,0.79275 -0.66489,2.60842 z"
         style="font-style:normal;font-variant:normal;font-weight:600;font-stretch:normal;font-family:'Titillium Web';-inkscape-font-specification:'Titillium Web Semi-Bold';fill:#f9f9f9;stroke-width:0.39084485"
         id="path907"
         inkscape:connector-curvature="0" />
      <path
         d="m 86.003553,276.85129 h -2.787426 v -12.78636 h 2.761853 v 0.79276 q 1.866808,-1.07406 3.529035,-1.07406 2.557271,0 3.477889,1.45765 0.94619,1.43207 0.94619,4.75652 v 6.85349 h -2.761853 v -6.77677 q 0,-2.07139 -0.460309,-2.94086 -0.434736,-0.86948 -1.815662,-0.86948 -1.304209,0 -2.506126,0.51146 l -0.383591,0.15343 z"
         style="font-style:normal;font-variant:normal;font-weight:600;font-stretch:normal;font-family:'Titillium Web';-inkscape-font-specification:'Titillium Web Semi-Bold';fill:#f9f9f9;stroke-width:0.39084485"
         id="path909"
         inkscape:connector-curvature="0" />
      <path
         d="m 104.08026,266.44319 h -3.52903 v 5.626 q 0,1.55994 0.23015,2.07139 0.23016,0.51145 1.17635,0.51145 l 2.09696,-0.0767 0.12786,2.22482 q -1.71337,0.33245 -2.60841,0.33245 -2.173683,0 -2.992009,-0.99734 -0.792755,-0.99733 -0.792755,-3.75919 v -5.93287 h -1.636653 v -2.37826 h 1.636653 v -3.70804 h 2.761854 v 3.70804 h 3.52903 z"
         style="font-style:normal;font-variant:normal;font-weight:600;font-stretch:normal;font-family:'Titillium Web';-inkscape-font-specification:'Titillium Web Semi-Bold';fill:#f9f9f9;stroke-width:0.39084485"
         id="path911"
         inkscape:connector-curvature="0" />
      <path
         d="m 106.34145,276.85129 v -12.78636 h 2.76185 v 1.53436 q 2.17369,-1.4065 4.34737,-1.81566 v 2.78743 q -2.19926,0.43473 -3.75919,1.1252 l -0.5626,0.23015 v 8.92488 z"
         style="font-style:normal;font-variant:normal;font-weight:600;font-stretch:normal;font-family:'Titillium Web';-inkscape-font-specification:'Titillium Web Semi-Bold';fill:#f9f9f9;stroke-width:0.39084485"
         id="path913"
         inkscape:connector-curvature="0" />
      <path
         d="m 116.17216,265.44586 q 1.32978,-1.66223 4.39851,-1.66223 3.06872,0 4.37293,1.66223 1.32978,1.66222 1.32978,4.98668 0,3.32445 -1.27863,5.01225 -1.27864,1.6878 -4.42408,1.6878 -3.14545,0 -4.42408,-1.6878 -1.27864,-1.6878 -1.27864,-5.01225 0,-3.32446 1.30421,-4.98668 z m 2.09696,8.31113 q 0.58818,1.02291 2.30155,1.02291 1.71337,0 2.30154,-1.02291 0.58818,-1.02291 0.58818,-3.35003 0,-2.32711 -0.63932,-3.29888 -0.61375,-0.97176 -2.2504,-0.97176 -1.63665,0 -2.27597,0.97176 -0.61375,0.97177 -0.61375,3.29888 0,2.32712 0.58817,3.35003 z"
         style="font-style:normal;font-variant:normal;font-weight:600;font-stretch:normal;font-family:'Titillium Web';-inkscape-font-specification:'Titillium Web Semi-Bold';fill:#f9f9f9;stroke-width:0.39084485"
         id="path915"
         inkscape:connector-curvature="0" />
    </g>
    <g
       aria-label="Mayorista"
       style="font-style:normal;font-variant:normal;font-weight:normal;font-stretch:normal;font-size:16.66358185px;line-height:1.25;font-family:sans-serif;-inkscape-font-specification:'sans-serif, Normal';font-variant-ligatures:normal;font-variant-caps:normal;font-variant-numeric:normal;font-feature-settings:normal;text-align:start;letter-spacing:0px;word-spacing:0px;writing-mode:lr-tb;text-anchor:start;fill:#f9f9f9;fill-opacity:1;stroke:none;stroke-width:0.25468063"
       id="text868"
       transform="translate(2.1166667)">
      <path
         d="m 56.403924,292.57822 v -11.41456 h 3.216072 l 2.549528,8.91502 2.549528,-8.91502 h 3.232735 v 11.41456 h -1.866321 v -9.36494 h -0.249954 l -2.6995,8.89836 h -1.932976 l -2.6995,-8.89836 h -0.249954 v 9.36494 z"
         style="font-style:normal;font-variant:normal;font-weight:600;font-stretch:normal;font-family:'Titillium Web';-inkscape-font-specification:'Titillium Web Semi-Bold';fill:#f9f9f9;stroke-width:0.25468063"
         id="path885"
         inkscape:connector-curvature="0" />
      <path
         d="m 76.510359,286.81262 v 3.79929 q 0.01666,0.3666 0.183299,0.5499 0.1833,0.16664 0.549898,0.21663 l -0.04999,1.38308 q -1.433068,0 -2.216257,-0.61656 -1.333086,0.61656 -2.682836,0.61656 -2.482874,0 -2.482874,-2.64951 0,-1.26644 0.666543,-1.833 0.683207,-0.56656 2.082948,-0.6832 l 2.149602,-0.1833 v -0.59989 q 0,-0.66655 -0.299945,-0.93316 -0.28328,-0.26662 -0.849842,-0.26662 -1.066469,0 -2.666173,0.13331 l -0.533235,0.0333 -0.06665,-1.2831 q 1.81633,-0.43325 3.332716,-0.43325 1.53305,0 2.199593,0.66654 0.683207,0.64988 0.683207,2.08295 z m -3.732643,2.06628 q -1.149787,0.1 -1.149787,1.24977 0,1.14979 1.016479,1.14979 0.833179,0 1.766339,-0.26662 l 0.299945,-0.1 v -2.21626 z"
         style="font-style:normal;font-variant:normal;font-weight:600;font-stretch:normal;font-family:'Titillium Web';-inkscape-font-specification:'Titillium Web Semi-Bold';fill:#f9f9f9;stroke-width:0.25468063"
         id="path887"
         inkscape:connector-curvature="0" />
      <path
         d="m 77.942647,284.24643 h 1.783003 l 1.76634,6.78207 h 0.449916 l 1.76634,-6.78207 h 1.799667 l -3.166081,11.91446 h -1.783003 l 0.999815,-3.58267 h -1.433068 z"
         style="font-style:normal;font-variant:normal;font-weight:600;font-stretch:normal;font-family:'Titillium Web';-inkscape-font-specification:'Titillium Web Semi-Bold';fill:#f9f9f9;stroke-width:0.25468063"
         id="path889"
         inkscape:connector-curvature="0" />
      <path
         d="m 87.197964,285.14626 q 0.866506,-1.08313 2.866136,-1.08313 1.99963,0 2.849472,1.08313 0.866507,1.08313 0.866507,3.2494 0,2.16626 -0.83318,3.26606 -0.833179,1.0998 -2.882799,1.0998 -2.049621,0 -2.8828,-1.0998 -0.833179,-1.0998 -0.833179,-3.26606 0,-2.16627 0.849843,-3.2494 z m 1.366413,5.41566 q 0.383263,0.66655 1.499723,0.66655 1.11646,0 1.499722,-0.66655 0.383263,-0.66654 0.383263,-2.18293 0,-1.51638 -0.41659,-2.1496 -0.399926,-0.63321 -1.466395,-0.63321 -1.066469,0 -1.483059,0.63321 -0.399926,0.63322 -0.399926,2.1496 0,1.51639 0.383262,2.18293 z"
         style="font-style:normal;font-variant:normal;font-weight:600;font-stretch:normal;font-family:'Titillium Web';-inkscape-font-specification:'Titillium Web Semi-Bold';fill:#f9f9f9;stroke-width:0.25468063"
         id="path891"
         inkscape:connector-curvature="0" />
      <path
         d="m 95.568028,292.57822 v -8.33179 h 1.799666 v 0.99981 q 1.416405,-0.9165 2.832806,-1.18311 v 1.81633 q -1.433065,0.28328 -2.449543,0.73319 l -0.366599,0.14998 v 5.81559 z"
         style="font-style:normal;font-variant:normal;font-weight:600;font-stretch:normal;font-family:'Titillium Web';-inkscape-font-specification:'Titillium Web Semi-Bold';fill:#f9f9f9;stroke-width:0.25468063"
         id="path893"
         inkscape:connector-curvature="0" />
      <path
         d="m 101.58905,292.57822 v -8.33179 h 1.81633 v 8.33179 z m 0,-9.7482 v -1.91631 h 1.81633 v 1.91631 z"
         style="font-style:normal;font-variant:normal;font-weight:600;font-stretch:normal;font-family:'Titillium Web';-inkscape-font-specification:'Titillium Web Semi-Bold';fill:#f9f9f9;stroke-width:0.25468063"
         id="path895"
         inkscape:connector-curvature="0" />
      <path
         d="m 111.37448,285.96277 q -1.96631,-0.26661 -2.84948,-0.26661 -0.88317,0 -1.2331,0.21662 -0.33327,0.19997 -0.33327,0.64988 0,0.44992 0.3666,0.63322 0.38326,0.1833 1.76633,0.43325 1.39975,0.23329 1.98297,0.74986 0.58323,0.51657 0.58323,1.833 0,1.31642 -0.84985,1.93297 -0.83318,0.61656 -2.44954,0.61656 -1.01648,0 -2.56619,-0.28328 l -0.51658,-0.0833 0.0667,-1.51639 q 1.99963,0.26662 2.8828,0.26662 0.88317,0 1.24977,-0.21663 0.38326,-0.21662 0.38326,-0.71653 0,-0.49991 -0.3666,-0.68321 -0.34993,-0.19996 -1.71635,-0.41659 -1.34975,-0.23329 -1.98296,-0.71653 -0.63322,-0.48325 -0.63322,-1.76634 0,-1.2831 0.86651,-1.91631 0.88317,-0.63322 2.24958,-0.63322 1.06647,0 2.61618,0.26662 l 0.51657,0.1 z"
         style="font-style:normal;font-variant:normal;font-weight:600;font-stretch:normal;font-family:'Titillium Web';-inkscape-font-specification:'Titillium Web Semi-Bold';fill:#f9f9f9;stroke-width:0.25468063"
         id="path897"
         inkscape:connector-curvature="0" />
      <path
         d="m 117.88577,285.79614 h -2.29957 v 3.66599 q 0,1.01648 0.14997,1.34975 0.14997,0.33327 0.76653,0.33327 l 1.36641,-0.05 0.0833,1.44973 q -1.11646,0.21663 -1.69969,0.21663 -1.4164,0 -1.94964,-0.64988 -0.51657,-0.64988 -0.51657,-2.44955 v -3.86595 h -1.06647 v -1.54971 h 1.06647 v -2.41622 h 1.79967 v 2.41622 h 2.29957 z"
         style="font-style:normal;font-variant:normal;font-weight:600;font-stretch:normal;font-family:'Titillium Web';-inkscape-font-specification:'Titillium Web Semi-Bold';fill:#f9f9f9;stroke-width:0.25468063"
         id="path899"
         inkscape:connector-curvature="0" />
      <path
         d="m 125.52472,286.81262 v 3.79929 q 0.0167,0.3666 0.1833,0.5499 0.1833,0.16664 0.5499,0.21663 l -0.05,1.38308 q -1.43307,0 -2.21626,-0.61656 -1.33308,0.61656 -2.68284,0.61656 -2.48287,0 -2.48287,-2.64951 0,-1.26644 0.66654,-1.833 0.68321,-0.56656 2.08295,-0.6832 l 2.1496,-0.1833 v -0.59989 q 0,-0.66655 -0.29994,-0.93316 -0.28328,-0.26662 -0.84984,-0.26662 -1.06647,0 -2.66618,0.13331 l -0.53323,0.0333 -0.0667,-1.2831 q 1.81633,-0.43325 3.33271,-0.43325 1.53305,0 2.19959,0.66654 0.68321,0.64988 0.68321,2.08295 z m -3.73264,2.06628 q -1.14979,0.1 -1.14979,1.24977 0,1.14979 1.01648,1.14979 0.83318,0 1.76634,-0.26662 l 0.29994,-0.1 v -2.21626 z"
         style="font-style:normal;font-variant:normal;font-weight:600;font-stretch:normal;font-family:'Titillium Web';-inkscape-font-specification:'Titillium Web Semi-Bold';fill:#f9f9f9;stroke-width:0.25468063"
         id="path901"
         inkscape:connector-curvature="0" />
    </g>
  </g>
</svg>
