<?xml version="1.0" encoding="UTF-8" standalone="no"?>
<!-- Created with Inkscape (http://www.inkscape.org/) -->

<svg
   xmlns:dc="http://purl.org/dc/elements/1.1/"
   xmlns:cc="http://creativecommons.org/ns#"
   xmlns:rdf="http://www.w3.org/1999/02/22-rdf-syntax-ns#"
   xmlns:svg="http://www.w3.org/2000/svg"
   xmlns="http://www.w3.org/2000/svg"
   xmlns:sodipodi="http://sodipodi.sourceforge.net/DTD/sodipodi-0.dtd"
   xmlns:inkscape="http://www.inkscape.org/namespaces/inkscape"
   width="240.00002mm"
   height="80mm"
   viewBox="0 0 240.00002 80"
   version="1.1"
   id="svg1418"
   inkscape:version="0.92.3 (2405546, 2018-03-11)"
   sodipodi:docname="marca-crown.svg">
  <defs
     id="defs1412" />
  <sodipodi:namedview
     id="base"
     pagecolor="#ffffff"
     bordercolor="#666666"
     borderopacity="1.0"
     inkscape:pageopacity="0.0"
     inkscape:pageshadow="2"
     inkscape:zoom="0.49497475"
     inkscape:cx="388.1516"
     inkscape:cy="65.436736"
     inkscape:document-units="mm"
     inkscape:current-layer="layer1"
     showgrid="false"
     fit-margin-top="0"
     fit-margin-left="0"
     fit-margin-right="0"
     fit-margin-bottom="0"
     inkscape:window-width="1360"
     inkscape:window-height="705"
     inkscape:window-x="-8"
     inkscape:window-y="-8"
     inkscape:window-maximized="1" />
  <metadata
     id="metadata1415">
    <rdf:RDF>
      <cc:Work
         rdf:about="">
        <dc:format>image/svg+xml</dc:format>
        <dc:type
           rdf:resource="http://purl.org/dc/dcmitype/StillImage" />
        <dc:title></dc:title>
      </cc:Work>
    </rdf:RDF>
  </metadata>
  <g
     inkscape:label="Capa 1"
     inkscape:groupmode="layer"
     id="layer1"
     transform="translate(15.000004,-108.5)">
    <path
       style="opacity:1;fill:none;fill-opacity:1;stroke:#e51837;stroke-width:0.4898912;stroke-linecap:round;stroke-linejoin:miter;stroke-miterlimit:4;stroke-dasharray:none;stroke-opacity:1"
       d="M -14.755058,108.74495 H 224.75506 v 79.51011 H -14.755058 Z"
       id="rect1443" />
    <g
       id="g1456"
       transform="matrix(1.1999999,0,0,1.2,29.480395,-7.35978)">
      <path
         inkscape:connector-curvature="0"
         id="rect842"
         d="m 52.786829,116.87575 c -4.551018,0 -8.214799,3.66378 -8.214799,8.2148 v 5.44237 c 0,4.55102 3.663781,8.2148 8.214799,8.2148 h 16.635124 c 4.551018,0 8.214795,-3.66378 8.214795,-8.2148 v -5.44237 c 0,-4.55102 -3.663777,-8.2148 -8.214795,-8.2148 z m 0.570827,5.48196 h 15.493189 c 1.488348,0 2.686508,1.19816 2.686508,2.68651 v 5.53503 c 0,1.48835 -1.19816,2.68651 -2.686508,2.68651 H 53.357656 c -1.488355,0 -2.686508,-1.19816 -2.686508,-2.68651 v -5.53503 c 0,-1.48835 1.198153,-2.68651 2.686508,-2.68651 z"
         style="opacity:1;fill:#000000;fill-opacity:1;stroke:none;stroke-width:0.29048082;stroke-linecap:round;stroke-linejoin:miter;stroke-miterlimit:4;stroke-dasharray:none;stroke-opacity:1" />
      <path
         sodipodi:nodetypes="ssssccccscccs"
         inkscape:connector-curvature="0"
         id="path4554"
         d="m -24.419226,116.87276 c -4.551013,-0.007 -8.2148,3.66378 -8.2148,8.2148 v 5.44237 c 0,4.55102 3.663782,8.21479 8.2148,8.21479 l 24.4801071,-0.0135 v -5.48202 c 0,0 -15.6992851,0.0136 -23.9092821,0.0136 -1.488348,0 -2.686502,-1.19816 -2.686507,-2.68651 v -5.53503 c 0,-1.48834 1.198159,-2.6865 2.686507,-2.6865 7.851868,-0.17665 23.9092821,0.003 23.9092821,0.003 v -5.44571 z"
         style="opacity:1;fill:#000000;fill-opacity:1;stroke:none;stroke-width:0.29048082;stroke-linecap:round;stroke-linejoin:miter;stroke-miterlimit:4;stroke-dasharray:none;stroke-opacity:1" />
      <path
         inkscape:connector-curvature="0"
         id="rect4574"
         d="m 6.2111058,116.79144 v 4.55341 c -0.056247,0.32048 -0.087323,0.65009 -0.087323,0.98751 v 3.84164 c 0,0.33742 0.031076,0.66703 0.087323,0.9875 v 11.44911 h 5.9755732 v -6.89568 h 18.784213 c 1.034625,0.2326 1.846814,0.78303 2.090976,2.14488 v 4.7508 h 6.060068 v -4.7143 c -0.06369,-1.7067 -0.631397,-2.95025 -1.613925,-3.81244 0.977686,-1.00062 1.580515,-2.3809 1.580515,-3.90987 v -3.84164 c 0,-3.06966 -2.428805,-5.54092 -5.445725,-5.54092 H 12.186679 11.569521 Z m 5.9755732,5.54092 h 19.604657 c 0.703951,0 1.270532,0.8976 1.270532,2.01292 0,1.11531 -0.566581,2.01319 -1.270532,2.01319 H 12.186679 Z"
         style="opacity:1;fill:#000000;fill-opacity:1;stroke:none;stroke-width:0.70452231;stroke-linecap:round;stroke-linejoin:miter;stroke-miterlimit:4;stroke-dasharray:none;stroke-opacity:1" />
      <path
         sodipodi:nodetypes="ccccccssscccssc"
         inkscape:connector-curvature="0"
         id="path4596"
         d="m 125.57108,116.86757 v 21.81918 h 5.94204 l -3e-5,-12.3798 c 0.0486,-0.36506 3e-5,-3.54319 3e-5,-3.94924 l 2.7078,-0.008 h 15.49319 c 1.48836,0 2.68652,1.19816 2.68652,2.68651 v 5.53503 c 0,0.0988 -0.006,0.19605 -0.0166,0.29201 l -1.1e-4,7.82357 h 6.05845 l 0.0576,-13.60429 c 0.0193,-4.55097 -3.66377,-8.21478 -8.21481,-8.21479 z"
         style="opacity:1;fill:#000000;fill-opacity:1;stroke:none;stroke-width:0.29048082;stroke-linecap:round;stroke-linejoin:miter;stroke-miterlimit:4;stroke-dasharray:none;stroke-opacity:1" />
      <path
         sodipodi:nodetypes="cccc"
         inkscape:connector-curvature="0"
         id="rect4631"
         d="m 100.7845,111.3832 16.5837,27.30355 H 84.149458 Z"
         style="opacity:1;fill:#ee3a43;fill-opacity:1;stroke:none;stroke-width:0.54334354;stroke-linecap:round;stroke-linejoin:miter;stroke-miterlimit:4;stroke-dasharray:none;stroke-opacity:1" />
      <path
         sodipodi:nodetypes="cccccccc"
         inkscape:connector-curvature="0"
         id="rect4616"
         d="m 78.925335,114.15571 12.009311,13.50314 9.849854,11.0279 9.92499,-11.0279 12.06253,-13.50314 -5.40382,24.53104 H 84.149458 Z"
         style="opacity:1;fill:#e51837;fill-opacity:1;stroke:none;stroke-width:0.54334354;stroke-linecap:round;stroke-linejoin:miter;stroke-miterlimit:4;stroke-dasharray:none;stroke-opacity:1" />
      <path
         sodipodi:nodetypes="ccccccccccccscccccc"
         inkscape:connector-curvature="0"
         id="path4634"
         d="m 91.390101,143.60076 -7.240768,2.9e-4 v 4.77907 h 1.623761 v -2.72011 c 0.01325,-0.0797 0,-0.77286 0,-0.86143 l 0.73985,-0.002 h 1.278398 c 0.287196,-0.003 0.335304,0.28143 0.326829,0.47227 l -0.0091,3.11145 h 1.379473 l 0.0091,-3.58372 h 1.774812 c 0.496523,0 0.51579,0.26192 0.51579,0.58655 l -0.0045,2.99771 1.34718,-5.4e-4 0.01572,-2.9876 c 0.0055,-0.99264 -0.577242,-1.79166 -1.756843,-1.79166 z"
         style="opacity:1;fill:#808080;fill-opacity:1;stroke:none;stroke-width:0.07091371;stroke-linecap:round;stroke-linejoin:miter;stroke-miterlimit:4;stroke-dasharray:none;stroke-opacity:1" />
      <path
         inkscape:connector-curvature="0"
         id="rect4644"
         d="m 93.890612,143.60077 h 1.415882 v 4.77935 h -1.415882 z"
         style="opacity:1;fill:#808080;fill-opacity:1;stroke:none;stroke-width:0.54334354;stroke-linecap:round;stroke-linejoin:miter;stroke-miterlimit:4;stroke-dasharray:none;stroke-opacity:1" />
      <path
         style="opacity:1;fill:#808080;fill-opacity:1;stroke:none;stroke-width:0.06351399;stroke-linecap:round;stroke-linejoin:miter;stroke-miterlimit:4;stroke-dasharray:none;stroke-opacity:1"
         d="m 97.919772,143.60076 c -0.995081,-0.002 -1.796177,0.8011 -1.796177,1.79618 v 1.18998 c 0,0.99509 0.801096,1.79618 1.796177,1.79618 l 4.683988,-0.003 v -1.19865 c 0,0 -2.764053,0.003 -4.559176,0.003 -0.325429,0 -0.587407,-0.26199 -0.587407,-0.58741 v -1.21024 c 0,-0.32543 0.261978,-0.58741 0.587407,-0.58741 1.716821,-0.0386 4.559176,4.3e-4 4.559176,4.3e-4 v -1.19072 z"
         id="path4647"
         inkscape:connector-curvature="0"
         sodipodi:nodetypes="ssssccccscccs" />
      <path
         sodipodi:nodetypes="ccssccccccccccsssccccssscc"
         style="opacity:1;fill:#808080;fill-opacity:1;stroke:none;stroke-width:0.14696871;stroke-linecap:round;stroke-linejoin:miter;stroke-miterlimit:4;stroke-dasharray:none;stroke-opacity:1"
         d="m 103.45344,143.60076 v 0.9974 c -0.0112,0.0702 -0.0173,0.1424 -0.0173,0.21631 v 0.84149 c 0,0.0739 0.006,0.1461 0.0173,0.2163 v 2.50786 h 1.27792 v -1.51045 h 3.53216 c 0.20555,0.051 0.3669,0.17152 0.41541,0.46982 v 1.04063 h 1.31285 v -1.03263 c -0.0127,-0.37385 -0.12544,-0.64624 -0.32063,-0.8351 0.19423,-0.21917 0.31399,-0.52152 0.31399,-0.85643 v -0.84149 c 0,-0.67239 -0.48251,-1.21371 -1.08188,-1.21371 h -4.26266 -0.12261 z m 1.27792,1.21371 h 3.69516 c 0.13984,0 0.25241,0.19662 0.25241,0.44092 0,0.2443 -0.11257,0.44098 -0.25241,0.44098 h -3.69516 z"
         id="path4651"
         inkscape:connector-curvature="0" />
      <path
         sodipodi:nodetypes="ssssssssssssssssss"
         style="opacity:1;fill:#808080;fill-opacity:1;stroke:none;stroke-width:0.06070495;stroke-linecap:round;stroke-linejoin:miter;stroke-miterlimit:4;stroke-dasharray:none;stroke-opacity:1"
         d="m 112.41465,143.60076 c -0.91055,0 -1.64359,0.79974 -1.64359,1.79313 v 1.18796 c 0,0.9934 0.73304,1.79312 1.64359,1.79312 h 3.32834 c 0.91055,0 1.6436,-0.79972 1.6436,-1.79312 v -1.18796 c 0,-0.99339 -0.73305,-1.79313 -1.6436,-1.79313 z m 0.11422,1.1966 h 2.95865 c 0.2978,0 0.5375,0.26154 0.5375,0.58641 v 1.2082 c 0,0.32487 -0.2397,0.5864 -0.5375,0.5864 h -2.95865 c -0.29777,0 -0.53751,-0.26153 -0.53751,-0.5864 v -1.2082 c 0,-0.32487 0.23974,-0.58641 0.53751,-0.58641 z"
         id="path4655"
         inkscape:connector-curvature="0" />
    </g>
  </g>
</svg>
