<?xml version="1.0" encoding="UTF-8" standalone="no"?>
<!-- Created with Inkscape (http://www.inkscape.org/) -->

<svg
   xmlns:dc="http://purl.org/dc/elements/1.1/"
   xmlns:cc="http://creativecommons.org/ns#"
   xmlns:rdf="http://www.w3.org/1999/02/22-rdf-syntax-ns#"
   xmlns:svg="http://www.w3.org/2000/svg"
   xmlns="http://www.w3.org/2000/svg"
   xmlns:sodipodi="http://sodipodi.sourceforge.net/DTD/sodipodi-0.dtd"
   xmlns:inkscape="http://www.inkscape.org/namespaces/inkscape"
   width="200mm"
   height="66.666664mm"
   viewBox="0 0 200 66.666666"
   version="1.1"
   id="svg848"
   inkscape:version="0.92.3 (2405546, 2018-03-11)"
   sodipodi:docname="marca-gemei.svg">
  <defs
     id="defs842" />
  <sodipodi:namedview
     id="base"
     pagecolor="#ffffff"
     bordercolor="#666666"
     borderopacity="1.0"
     inkscape:pageopacity="0.0"
     inkscape:pageshadow="2"
     inkscape:zoom="0.49497475"
     inkscape:cx="283.71883"
     inkscape:cy="68.667429"
     inkscape:document-units="mm"
     inkscape:current-layer="layer1"
     showgrid="false"
     fit-margin-top="0"
     fit-margin-left="0"
     fit-margin-right="0"
     fit-margin-bottom="0"
     inkscape:window-width="1360"
     inkscape:window-height="705"
     inkscape:window-x="-8"
     inkscape:window-y="-8"
     inkscape:window-maximized="1" />
  <metadata
     id="metadata845">
    <rdf:RDF>
      <cc:Work
         rdf:about="">
        <dc:format>image/svg+xml</dc:format>
        <dc:type
           rdf:resource="http://purl.org/dc/dcmitype/StillImage" />
        <dc:title></dc:title>
      </cc:Work>
    </rdf:RDF>
  </metadata>
  <g
     inkscape:label="Capa 1"
     inkscape:groupmode="layer"
     id="layer1"
     transform="translate(14.407743,-118.89137)">
    <path
       style="opacity:1;fill:none;fill-opacity:1;stroke:#ff00cc;stroke-width:0.49608532;stroke-linecap:round;stroke-linejoin:miter;stroke-miterlimit:4;stroke-dasharray:none;stroke-opacity:1"
       d="m -14.1597,119.13941 h 199.50392 v 66.17058 H -14.1597 Z"
       id="rect1679" />
    <path
       style="fill:#ff55dd;stroke-width:0.29685518"
       d="m 12.127967,181.34167 c -3.9639903,-0.36469 -4.9974752,-0.74669 -6.0734419,-2.24494 -0.9094191,-1.26634 -0.9904516,-1.3083 -2.5274998,-1.3083 -1.5722716,0 -1.6050891,-0.0188 -3.32117821,-1.89354 -0.95327246,-1.04145 -2.17566829,-2.51088 -2.71643239,-3.2654 l -0.9832274,-1.37186 h 5.9380363 c 3.6384649,0 6.0090706,0.11496 6.1214956,0.29685 0.1008592,0.16327 0.4939516,0.29686 0.8734591,0.29686 0.4403367,0 0.7461547,0.21481 0.8452427,0.59371 0.151516,0.57939 0.0097,0.59371 -5.9024766,0.59371 -3.3317507,0 -6.0577514,0.0854 -6.0577514,0.18991 0,0.10443 0.23378,0.36737 0.5195017,0.58426 0.41619076,0.31594 3.5976239,0.39624 15.9973023,0.40381 14.962405,0.009 15.501139,-0.01 16.178601,-0.5744 l 0.700813,-0.58383 -4.940555,-0.01 c -4.225328,-0.009 -4.966657,-0.0779 -5.120762,-0.47943 -0.503489,-1.3121 -0.505887,-1.31156 5.994404,-1.31156 6.234806,0 6.887043,-0.10519 6.887043,-1.11117 0,-0.31892 -0.960022,-0.39053 -4.798499,-0.35798 -4.741309,0.0403 -4.802914,0.0325 -5.168924,-0.65139 -0.203727,-0.38068 -0.30747,-0.794 -0.230518,-0.91851 0.07699,-0.1245 2.587767,-0.22635 5.579577,-0.22635 5.135956,0 5.44811,-0.0322 5.590459,-0.57653 0.08283,-0.31709 0.07613,-0.65106 -0.01491,-0.74214 -0.09114,-0.0911 -2.271431,-0.16563 -4.845191,-0.16563 -4.626864,0 -4.680623,-0.008 -4.774419,-0.6679 -0.09395,-0.66104 -0.150231,-0.66877 -5.453784,-0.7486 l -5.358947,-0.0807 -0.800818,-1.63283 c -0.440433,-0.89805 -0.800805,-1.69665 -0.800805,-1.77465 0,-0.0781 5.128731,-0.14186 11.397176,-0.14186 10.118885,0 11.417371,-0.0527 11.577351,-0.46956 0.09913,-0.25825 0.180185,-0.52543 0.180185,-0.5937 0,-0.0683 -4.860264,-0.12415 -10.800593,-0.12415 H 15.017286 l -0.178997,-0.66793 c -0.09838,-0.36736 -0.18089,-0.80151 -0.183213,-0.96477 -0.0023,-0.19415 3.80484,-0.26755 11.004634,-0.21213 10.846356,0.0835 11.011157,0.0758 11.166322,-0.51744 0.149452,-0.57156 0.216848,-0.55516 1.325051,0.32257 1.118551,0.8859 1.163886,0.9887 1.079136,2.447 -0.08596,1.4792 -0.11577,1.52487 -1.053256,1.61527 -1.209503,0.11661 -1.24908,0.51805 -0.07419,0.75301 0.783895,0.15679 0.890575,0.30134 0.890575,1.20662 0,0.97126 -0.06198,1.03453 -1.113211,1.13715 l -1.1132,0.10866 0.964774,0.38359 c 0.99312,0.39486 1.050697,0.54375 0.700042,1.80977 -0.153965,0.55593 -0.463142,0.7851 -1.232048,0.91323 l -1.026478,0.17108 0.80666,0.33739 c 0.780387,0.3264 0.793332,0.36915 0.397421,1.31319 -0.290645,0.69301 -0.653436,1.02159 -1.25194,1.13376 -0.784049,0.14694 -0.802503,0.18104 -0.26516,0.48956 0.559142,0.32105 0.551551,0.36573 -0.237754,1.40057 -0.65832,0.86311 -1.012417,1.06891 -1.839182,1.06891 -1.104618,0 -1.336864,0.38905 -0.508844,0.85242 0.540655,0.30258 0.558666,0.28082 -1.684622,2.03247 -0.281078,0.2195 -1.484092,0.36533 -3.060598,0.37106 -2.805196,0.0108 -3.078359,0.20147 -1.971053,1.38012 l 0.626428,0.66682 -1.145931,0.30706 c -4.596076,1.2315 -9.25874,1.63665 -13.910688,1.20867 z m 6.390175,-3.26856 c 2.787446,-0.34246 7.032568,-1.39258 7.285786,-1.80231 0.09395,-0.15169 -4.701517,-0.26349 -11.301111,-0.26349 -6.9343103,0 -11.3970142,0.10832 -11.2945242,0.27416 0.2533033,0.40987 2.6793174,1.14493 5.3574264,1.62324 2.8991348,0.51781 6.5988618,0.5804 9.9524228,0.1684 z m 17.453105,-13.97814 c -0.09233,-0.61509 -0.22564,-0.63202 -5.023515,-0.63823 -2.71075,-0.003 -5.081876,0.0883 -5.269167,0.20408 -0.187292,0.11575 -0.340534,0.40296 -0.340534,0.63822 0,0.35668 0.891545,0.42778 5.364033,0.42778 5.303778,0 5.362977,-0.008 5.269183,-0.63185 z m 125.034063,15.54881 c 0.002,-0.28572 0.5369,-3.59194 1.18768,-7.34716 0.65079,-3.75522 1.78003,-10.30088 2.50943,-14.5459 0.72938,-4.24504 1.41388,-8.15239 1.52111,-8.68301 l 0.19495,-0.96479 h -3.91984 -3.9198 l 0.15614,-0.81635 c 0.0859,-0.44899 0.2418,-1.38409 0.34654,-2.07799 l 0.1904,-1.26164 h 6.82516 6.82515 l -0.16695,0.81637 c -0.0918,0.449 -0.43175,2.35256 -0.75535,4.23018 -0.7692,4.46309 -4.3244,24.89646 -4.94546,28.42388 l -0.48347,2.74591 h -2.78507 c -2.45624,0 -2.78455,-0.0613 -2.78062,-0.5195 z m -84.608879,-0.44733 c 2.83e-4,-0.12359 0.656408,-3.86396 1.457858,-8.31195 0.801434,-4.44798 2.37055,-13.19687 3.486916,-19.44196 l 2.029733,-11.35471 h 2.747075 c 1.579875,0 2.747042,0.12254 2.747042,0.28843 0,0.15862 -0.221292,1.29546 -0.491742,2.52628 -0.27045,1.23083 -0.432292,2.29733 -0.359625,2.36999 0.07267,0.0727 0.817367,-0.19582 1.6549,-0.59665 4.951391,-2.36966 10.293024,-2.05506 12.649082,0.74496 l 0.76254,0.90623 1.70723,-1.1959 c 4.37742,-3.06643 10.96865,-3.18406 15.23615,-0.27196 2.0299,1.3852 3.52617,3.87172 3.5596,5.91541 0.0135,0.82422 -1.62655,10.64966 -3.58002,21.44778 l -1.27545,7.05032 h -4.98669 c -2.86279,0 -4.98668,-0.11714 -4.98668,-0.27504 0,-0.15127 0.27291,-1.6541 0.60646,-3.33962 0.78744,-3.97929 3.73829,-20.17848 3.99585,-21.93599 0.25109,-1.71345 -0.23049,-3.53595 -1.25665,-4.75545 -2.07321,-2.46389 -6.57869,-2.32908 -7.90003,0.23639 -0.23498,0.45621 -0.71323,3.23401 -1.06279,6.17286 -0.9258,7.78348 -0.55964,6.9761 -3.163653,6.9761 -1.563516,0 -2.203299,-0.10765 -2.204424,-0.37105 -8.34e-4,-0.2041 0.279491,-2.8162 0.623091,-5.80468 0.705675,-6.13758 0.633358,-6.64825 -1.131683,-7.99452 -1.2029,-0.91748 -3.594567,-1.22825 -5.24945,-0.6821 -1.420241,0.46874 -3.858308,2.4186 -4.753933,3.80199 -0.591267,0.91331 -1.133808,3.4044 -3.1178,14.31576 -1.321075,7.26554 -2.401266,13.30077 -2.400383,13.41164 8.33e-4,0.11085 -1.200999,0.24444 -2.670832,0.29685 -1.469792,0.0524 -2.672059,-0.005 -2.671692,-0.12941 z m -20.849406,-2.30832 c -11.949202,-2.01205 -17.088192,-13.12146 -10.657758,-23.03981 4.475908,-6.90365 14.739064,-11.03464 22.523898,-9.06601 4.940141,1.24925 8.537558,3.7071 10.150649,6.93517 1.082509,2.16629 1.122625,3.01109 0.402775,8.48229 l -0.517508,3.93333 H 64.62539 c -14.431138,0 -13.266595,-0.21107 -12.811047,2.32204 0.424093,2.35834 2.082232,3.97303 4.715111,4.59153 l 1.529877,0.35938 -0.182032,1.75047 c -0.100103,0.96275 -0.182063,2.2652 -0.182063,2.89434 0,0.73581 -0.132362,1.13141 -0.371056,1.10895 -0.204104,-0.0192 -1.00382,-0.14146 -1.777155,-0.27168 z m 13.248531,-18.86484 c 0.09913,-0.25825 0.180175,-1.30592 0.180175,-2.32815 0,-2.4959 -0.879775,-4.18256 -2.687341,-5.15193 -1.172108,-0.6286 -1.619875,-0.69554 -3.991894,-0.5968 -2.260094,0.0941 -2.913554,0.24328 -4.241592,0.96837 -2.444141,1.33453 -4.669595,4.11228 -5.536186,6.91015 l -0.206878,0.66794 h 8.151779 c 7.159487,0 8.173671,-0.0571 8.331937,-0.46958 z m 67.566334,18.71565 c -6.26892,-1.32748 -10.40272,-4.68487 -12.14831,-9.86657 -1.10247,-3.27268 -0.58554,-7.89819 1.29816,-11.61548 3.78665,-7.47258 14.50777,-12.41127 23.01077,-10.59992 5.92658,1.26252 10.7735,5.3005 11.45147,9.5403 0.11109,0.6947 -0.0683,2.96141 -0.43031,5.43885 -0.34145,2.33623 -0.62079,4.30238 -0.62079,4.3692 0,0.0668 -5.77755,0.1563 -12.83899,0.19885 l -12.839,0.0773 -0.1029,0.7291 c -0.1369,0.97013 0.47254,2.9389 1.1969,3.86665 0.83228,1.06597 2.54835,2.03687 3.9795,2.25148 l 1.22968,0.1844 -0.11991,1.38229 c -0.32505,3.74734 -0.45707,4.49795 -0.78704,4.47569 -0.19235,-0.013 -1.21801,-0.20749 -2.27928,-0.4322 z m 14.06352,-19.17376 c 0.51915,-2.59582 -0.18358,-5.21321 -1.72529,-6.42591 -1.27981,-1.00671 -2.72268,-1.33864 -5.17848,-1.19128 -2.67467,0.16049 -4.74271,1.08128 -6.6001,2.93868 -1.10712,1.10711 -2.93372,4.366 -2.93426,5.23511 -2e-4,0.28784 1.82281,0.37109 8.12616,0.37109 h 8.12643 z M -4.7685718,168.957 -5.2284527,167.99222 h 5.48702978 c 3.01785572,0 5.48702062,-0.0756 5.48702062,-0.16795 0,-0.0923 -0.1382984,-0.42633 -0.3073192,-0.74214 -0.2861425,-0.53468 -0.6709841,-0.57419 -5.59258806,-0.57419 H -5.4395985 l -0.3445116,-0.7561 c -0.1894725,-0.41586 -0.34452,-0.81662 -0.34452,-0.89057 0,-0.074 2.4138332,-0.13445 5.36405723,-0.13445 5.31959727,0 5.36324637,-0.005 5.26917897,-0.63797 -0.09298,-0.62538 -0.19294,-0.63718 -5.06192148,-0.59827 l -4.96705312,0.0397 -0.4505641,-0.87127 c -0.2477858,-0.4792 -0.4505408,-0.9447 -0.4505408,-1.03443 0,-0.0897 2.4045349,-0.16317 5.343398,-0.16317 5.1454806,0 5.3433881,-0.022 5.3433881,-0.59371 0,-0.5703 -0.1979075,-0.59371 -5.01749557,-0.59371 H -5.7737001 l -0.3258709,-0.93487 c -0.1792466,-0.51418 -0.3259999,-0.94833 -0.3260866,-0.96478 -1.083e-4,-0.0164 2.4378074,-0.0299 5.4175964,-0.0299 5.3924456,0 5.4182439,-0.003 5.5126673,-0.66792 l 0.09481,-0.66793 H -0.16327206 -4.9259835 l -0.452905,-0.87582 c -0.2490941,-0.4817 -0.4529083,-0.94925 -0.4529083,-1.03899 0,-0.0897 2.5225216,-0.16316 5.60562224,-0.16316 5.33298896,0 5.61308386,-0.0285 5.75900556,-0.58651 0.14738,-0.56362 -0.03175,-0.58968 -4.59227645,-0.66792 l -4.74562645,-0.0814 -0.4053058,-0.96477 -0.4053392,-0.96478 h 5.6673898 c 5.0494164,0 5.710423,-0.0567 6.061778,-0.5195 0.2168909,-0.28572 0.3985892,-0.6197 0.4037842,-0.74213 0.00542,-0.12247 -2.1312216,-0.22265 -4.747584,-0.22265 h -4.7570314 l -0.2895117,-0.76147 c -0.1592375,-0.4188 -0.2895125,-0.81955 -0.2895125,-0.89056 0,-0.0711 2.65099326,-0.1291 5.8911073,-0.1291 5.3301914,0 5.937863,-0.0517 6.3823905,-0.54287 0.2702033,-0.29858 0.4912837,-0.62915 0.4912837,-0.7346 0,-0.1055 -2.0878653,-0.22852 -4.6396827,-0.27348 -4.4376939,-0.0782 -4.65897975,-0.11082 -5.08275139,-0.74969 L 0.03288543,145.43121 H 6.2653151 c 5.8363789,0 6.3244339,-0.0424 7.6802259,-0.66794 l 1.447795,-0.6679 -5.046531,-0.0802 c -4.821284,-0.0766 -5.0694257,-0.10973 -5.5594473,-0.74214 -0.2820825,-0.36407 -0.5158516,-0.76215 -0.5195016,-0.8846 -0.00317,-0.12246 6.6493769,-0.22265 14.7844319,-0.22265 h 14.790998 l 0.645464,0.68707 c 0.355006,0.37788 0.645457,0.77612 0.645457,0.88499 0,0.10886 -3.039051,0.23384 -6.753442,0.27772 l -6.753455,0.0798 1.447786,0.66794 c 1.355922,0.62553 1.843655,0.66791 7.685508,0.66791 5.592537,0 6.278509,0.0538 6.632066,0.5195 0.216891,0.28572 0.398591,0.61969 0.403794,0.74215 0.0054,0.12244 -2.595465,0.22262 -5.779231,0.22262 -3.183767,0 -5.788671,0.0756 -5.788671,0.16794 0,0.0923 0.138276,0.42634 0.307296,0.74214 0.26974,0.50404 0.20591,0.5742 -0.522308,0.5742 -0.508107,0 -0.973282,-0.23008 -1.200377,-0.5937 -0.205087,-0.3284 -0.69228,-0.59371 -1.090188,-0.59371 -0.46216,0 -0.948511,-0.32177 -1.360166,-0.89985 -0.608028,-0.85389 -0.737948,-0.89719 -2.543482,-0.84752 -1.046497,0.0288 -1.902732,0.12455 -1.902732,0.2128 0,0.0882 0.290451,0.46963 0.645465,0.84752 l 0.645458,0.68705 h -0.64228 c -0.353246,0 -1.345017,0.2671 -2.203939,0.59356 -0.956427,0.3635 -2.280763,0.59361 -3.41704,0.59371 -1.952763,1.5e-4 -2.384256,0.36559 -1.11468,0.94405 l 0.740658,0.33746 -1.235333,1.14044 c -0.944958,0.87238 -1.4853874,1.14278 -2.2991298,1.15034 l -1.0638183,0.01 0.6830041,0.56941 c 0.6525192,0.54399 0.6621083,0.6098 0.2150217,1.47439 -0.3854133,0.74529 -0.6499808,0.905 -1.4993599,0.905 -1.2185083,0 -1.3233958,0.33709 -0.2788634,0.8961 0.4474733,0.23949 0.6876358,0.57183 0.5924458,0.81988 -0.08801,0.22943 -0.2407675,0.7387 -0.3394124,1.13172 -0.137715,0.54873 -0.3785142,0.71455 -1.0377283,0.71455 -1.0227942,0 -1.0703083,0.1785 -0.2288884,0.85985 0.5353209,0.43347 0.5980292,0.69595 0.4191934,1.7545 -0.1704034,1.0086 -0.33207,1.24655 -0.8521333,1.2542 -0.596765,0.009 -0.6053608,0.0371 -0.1223375,0.4038 0.7191799,0.54595 0.7373424,2.85216 0.022458,2.85216 -0.4316666,0 -0.4169691,0.0879 0.1118625,0.66794 0.6383625,0.70023 1.3954774,2.68353 1.2225258,3.20241 -0.06285,0.18835 -2.1973849,0.32769 -5.6447239,0.36849 l -5.5437673,0.0656 z M 29.612987,154.70796 c -0.08769,-0.28573 -0.415605,-1.08724 -0.72896,-1.78114 l -0.569729,-1.26164 h 6.208772 6.208759 l 0.615046,1.64384 c 0.338283,0.90411 0.615049,1.70562 0.615049,1.78115 0,0.0755 -2.742683,0.13727 -6.094854,0.13727 -5.546046,0 -6.109186,-0.0468 -6.254083,-0.51948 z m -1.960536,-5.41949 -0.505669,-0.88869 h 5.915665 5.915671 l 0.460529,0.89056 0.460531,0.89058 -5.870502,-0.002 -5.870514,-0.002 -0.505711,-0.88869 z m -15.618886,-9.34906 -0.338138,-0.74214 h 8.402256 8.402257 l 0.697212,0.74214 0.697195,0.74213 h -8.761333 -8.761322 z m 158.197615,-4.98908 c -1.70075,-0.59595 -2.25633,-1.66985 -2.2411,-4.33219 0.0108,-1.8998 0.15767,-2.59266 0.84876,-4.00517 0.92203,-1.88453 2.57723,-3.31235 4.19084,-3.61504 3.4565,-0.64846 5.83904,4.56173 3.86625,8.45481 -0.9557,1.88599 -2.29889,3.19774 -3.66205,3.57634 -1.35988,0.37768 -1.72761,0.36803 -3.0027,-0.0787 z"
       id="path1683"
       inkscape:connector-curvature="0" />
  </g>
</svg>
