<?xml version="1.0" encoding="UTF-8" standalone="no"?>
<!-- Created with Inkscape (http://www.inkscape.org/) -->

<svg
   xmlns:dc="http://purl.org/dc/elements/1.1/"
   xmlns:cc="http://creativecommons.org/ns#"
   xmlns:rdf="http://www.w3.org/1999/02/22-rdf-syntax-ns#"
   xmlns:svg="http://www.w3.org/2000/svg"
   xmlns="http://www.w3.org/2000/svg"
   xmlns:sodipodi="http://sodipodi.sourceforge.net/DTD/sodipodi-0.dtd"
   xmlns:inkscape="http://www.inkscape.org/namespaces/inkscape"
   width="240.00002mm"
   height="80mm"
   viewBox="0 0 240.00002 80"
   version="1.1"
   id="svg8"
   inkscape:version="0.92.3 (2405546, 2018-03-11)"
   sodipodi:docname="orus.svg">
  <defs
     id="defs2" />
  <sodipodi:namedview
     id="base"
     pagecolor="#ffffff"
     bordercolor="#666666"
     borderopacity="1.0"
     inkscape:pageopacity="0.0"
     inkscape:pageshadow="2"
     inkscape:zoom="0.49497475"
     inkscape:cx="398.13871"
     inkscape:cy="-26.308376"
     inkscape:document-units="mm"
     inkscape:current-layer="layer1"
     showgrid="false"
     fit-margin-top="0"
     fit-margin-left="0"
     fit-margin-right="0"
     fit-margin-bottom="0"
     inkscape:window-width="1360"
     inkscape:window-height="705"
     inkscape:window-x="-8"
     inkscape:window-y="-8"
     inkscape:window-maximized="1" />
  <metadata
     id="metadata5">
    <rdf:RDF>
      <cc:Work
         rdf:about="">
        <dc:format>image/svg+xml</dc:format>
        <dc:type
           rdf:resource="http://purl.org/dc/dcmitype/StillImage" />
        <dc:title></dc:title>
      </cc:Work>
    </rdf:RDF>
  </metadata>
  <g
     inkscape:label="Capa 1"
     inkscape:groupmode="layer"
     id="layer1"
     transform="translate(136.63096,-61.208333)">
    <path
       inkscape:connector-curvature="0"
       style="opacity:1;fill:none;fill-opacity:1;stroke:#745ace;stroke-width:0.48989123;stroke-linecap:round;stroke-linejoin:miter;stroke-miterlimit:4;stroke-dasharray:none;stroke-opacity:1"
       d="M -136.38601,61.453279 H 103.12411 V 140.96339 H -136.38601 Z"
       id="rect1443" />
    <path
       style="fill:#745ace;fill-opacity:1;stroke:none;stroke-width:1.07019699"
       d="m -84.799658,66.631649 a 33.485753,33.477454 0 0 0 -33.485842,33.477761 33.485753,33.477454 0 0 0 33.485842,33.47728 33.485753,33.477454 0 0 0 33.485839,-33.47728 33.485753,33.477454 0 0 0 -33.485839,-33.477761 z m 0,1.868602 c 17.452051,0 31.617237,14.160942 31.617237,31.608669 0,17.44777 -14.165186,31.60962 -31.617237,31.60962 -17.451902,0 -31.617732,-14.16185 -31.617732,-31.60962 0,-17.447727 14.16583,-31.608669 31.617732,-31.608669 z m 0,1.640662 c -16.564902,0 -29.975632,13.407351 -29.975632,29.968007 0,4.06404 0.80941,7.93723 2.2731,11.46996 -0.10997,-0.45174 -0.1915,-0.91555 -0.23586,-1.39133 -0.047,-0.50647 -0.019,-1.57343 0.0535,-2.04323 0.20402,-1.31576 0.65838,-2.44343 1.36275,-3.38223 0.20249,-0.26961 0.71112,-0.79985 0.97641,-1.01683 0.62083,-0.50776 1.42816,-0.92795 2.11178,-1.1011 2.50514,-0.63456 4.64028,-0.42197 6.00067,0.59812 1.26499,0.9485 1.8239,2.58518 1.43851,4.20878 -0.37048,1.56103 -1.58116,2.50138 -3.22569,2.50525 -0.2408,0 -0.47321,-0.0152 -0.5729,-0.0341 -1.1185,-0.25027 -1.79561,-1.06268 -1.97281,-2.36729 -0.0402,-0.29578 -0.0466,-0.93356 -0.0152,-1.38421 l 0.0228,-0.32801 h -0.0671 c -0.0868,0 -0.55477,0.22828 -0.87505,0.42732 -1.75139,1.08832 -2.44855,3.06192 -1.72681,4.88919 0.63778,1.61465 2.18178,2.80941 4.32629,3.34795 1.62807,0.40886 3.76098,0.38254 5.769434,-0.0709 5.461442,-1.23294 12.589826,-5.67433 20.058356,-12.4992 0.502975,-0.45963 0.622197,-0.66451 0.474383,-0.81225 -0.07319,-0.0732 -0.09101,-0.0728 -0.759431,0.0394 -1.59766,0.26847 -3.01956,0.38493 -4.702201,0.38542 -3.345789,0 -6.519951,-0.51287 -10.922733,-1.76864 -0.992603,-0.28327 -1.476922,-0.42953 -3.743877,-1.12776 -3.541421,-1.09074 -4.968441,-1.49493 -6.690211,-1.89522 -1.70976,-0.39748 -3.55906,-0.70964 -4.91016,-0.82939 -0.21918,-0.019 -0.41075,-0.0436 -0.4263,-0.0531 -0.019,-0.0114 -0.0228,-0.54412 -0.0114,-1.61355 l 0.019,-1.595006 0.10049,-0.01896 c 0.34546,-0.05878 1.27769,-0.269234 1.97182,-0.444427 0.73725,-0.186189 1.27849,-0.338628 4.1621,-1.169122 0.50704,-0.145994 1.43753,-0.40389 2.0675,-0.572901 0.63001,-0.169125 1.97512,-0.532478 2.989185,-0.808424 2.296647,-0.625042 3.220918,-0.869628 4.35815,-1.151528 4.049174,-1.003866 7.16801,-1.469528 10.121476,-1.496982 0.42194,-0.0032 0.840201,10e-4 1.257667,0.01517 2.367558,0.07774 4.210374,0.276439 6.137259,0.6619 2.049633,0.410071 3.614948,0.89439 6.410475,1.981832 1.160553,0.451442 3.09123,1.166354 3.816609,1.413709 1.009361,0.344317 1.979288,0.570208 2.916414,0.680443 0.520419,0.06105 1.715327,0.0838 2.318261,0.04361 0.879639,-0.05878 1.908949,-0.198323 2.792645,-0.378824 0.279473,-0.05688 0.354176,-0.06446 0.381176,-0.03792 0.0675,0.07129 1.033861,1.410865 1.282808,1.778199 0.39513,0.582798 0.823213,1.324141 0.823213,1.425121 0,0.019 -0.08722,0.0265 -0.216146,0.0303 -0.233969,0 -1.208446,0.0652 -1.68302,0.11225 -4.128693,0.40863 -6.99278,1.60953 -8.272327,3.46929 -0.765191,1.11225 -1.167071,2.59247 -1.060667,3.90565 0.154336,1.90372 1.116599,3.35026 2.549534,3.83094 0.450039,0.15093 0.571043,0.16572 1.349472,0.16761 0.63983,0.002 0.737855,0.008 0.817449,0.0512 0.05081,0.0266 0.09746,0.08 0.107315,0.11945 0.02654,0.10466 -0.05726,0.29578 -0.221076,0.50245 -0.267338,0.33749 -10.732786,12.34785 -10.761037,12.34983 -0.01517,0 -0.127791,-0.0554 -0.250653,-0.12514 v 8.3e-4 c -1.519545,-0.8592 -1.850628,-2.86238 -0.990746,-5.98884 0.07812,-0.28364 0.211596,-0.77296 0.296538,-1.08774 1.153196,-4.2792 2.715439,-8.65039 4.270667,-11.94628 0.09821,-0.20818 0.197565,-0.45338 0.221076,-0.54439 0.108073,-0.41769 -0.117174,-0.55253 -0.549997,-0.32877 -0.371241,0.19188 -0.583633,0.37352 -1.347576,1.1477 -5.512825,5.58518 -11.369625,10.18484 -17.180959,13.49275 -1.892795,1.07743 -4.307184,2.27439 -5.708076,2.83076 -4.691509,1.86317 -9.020569,2.12395 -12.255099,0.73751 -1.26643,-0.54276 -2.26586,-1.28759 -3.08812,-2.29445 5.16979,8.99941 14.87786,15.05586 26.010937,15.05586 16.564791,0 29.975589,-13.40784 29.975589,-29.9685 0,-4.13176 -0.835082,-8.067019 -2.345336,-11.646967 -0.06029,0.01896 -0.105798,0.03792 -0.216526,0.06674 -1.019602,0.283644 -1.992563,0.458912 -3.151864,0.567668 -0.51621,0.04816 -2.295206,0.04816 -2.835496,0 -1.351936,-0.121346 -2.501834,-0.349626 -4.148332,-0.824617 -0.852943,-0.246103 -1.314168,-0.394561 -3.3941,-1.093016 -2.750629,-0.923665 -4.064494,-1.292288 -5.908486,-1.657765 -4.686047,-0.928821 -9.026184,-1.016645 -13.130153,-0.265442 -2.38959,0.437297 -4.204572,0.96568 -8.282832,2.412 -4.941331,1.752376 -7.408611,2.387201 -10.093871,2.596142 -0.40563,0.03034 -1.77001,0.06105 -1.83675,0.03982 v 0 c -0.0394,-0.01517 -0.0391,-0.04285 0.004,-0.313222 0.0478,-0.295399 0.12475,-0.966324 0.26316,-2.292096 0.0391,-0.374653 0.0978,-0.859389 0.13045,-1.077773 l 0.0588,-0.397329 h 1.09248 c 2.25774,0 3.96799,-0.222593 5.96032,-0.777482 1.08172,-0.301466 1.73285,-0.524666 4.043679,-1.387544 0.845055,-0.315497 1.829127,-0.675096 2.18645,-0.798944 3.537667,-1.225851 6.765866,-1.842626 11.069296,-2.115046 1.098553,-0.06977 3.392356,-0.07053 4.078335,-0.0021 2.082624,0.208562 4.117659,0.620718 6.620782,1.34185 1.226989,0.353417 1.699211,0.501079 4.260618,1.334228 2.757531,0.896968 4.251173,1.317732 5.726654,1.612639 2.408284,0.481323 4.320229,0.477683 6.009316,-0.0076 C -63.802284,76.299863 -73.577164,70.14224 -84.802123,70.14224 Z m -3.293725,20.262405 c -0.211217,0 -1.431342,0.19036 -2.252128,0.351143 -1.638312,0.321564 -3.090624,0.700351 -6.257202,1.631182 -2.918503,0.857873 -4.167377,1.179854 -5.515857,1.424175 -0.49198,0.08911 -0.5431,0.112624 -0.58625,0.268856 -0.0432,0.156986 0.0429,0.358726 0.22638,0.528646 0.077,0.0717 0.18619,0.11149 0.65144,0.24307 0.72037,0.20401 1.38166,0.41132 3.268507,1.02446 3.149779,1.02354 4.497506,1.41113 6.257201,1.79818 2.152322,0.4734 3.905266,0.69557 6.383362,0.80937 0.39259,0.019 2.63812,-0.008 3.156643,-0.0394 5.051485,-0.2863 9.798281,-1.40552 13.995686,-3.29987 1.091158,-0.49247 1.593068,-0.78609 1.593068,-0.9336 0,-0.152062 -0.309051,-0.295022 -0.842207,-0.388306 -1.395697,-0.243828 -2.556856,-0.588675 -4.661247,-1.386065 -2.317124,-0.878046 -3.265702,-1.193733 -4.553743,-1.516018 -1.072274,-0.268476 -2.345071,-0.501345 -2.406274,-0.440142 -0.02275,0.02275 -0.01896,0.08001 0.01517,0.208562 0.183155,0.729929 0.166091,1.566908 -0.04437,2.22786 -0.385043,1.208899 -1.330853,2.025329 -2.768376,2.389629 -0.698607,0.17709 -1.670696,0.25141 -2.185047,0.16761 -1.077128,-0.17595 -2.112809,-0.65762 -2.780321,-1.29237 -0.322324,-0.306394 -0.498577,-0.538846 -0.67047,-0.886955 -0.217284,-0.439914 -0.260134,-0.636986 -0.262789,-1.200521 0,-0.537331 0.03413,-0.758824 0.199082,-1.227179 0.05461,-0.154715 0.10504,-0.321185 0.112624,-0.37124 0.01138,-0.08608 0.01138,-0.09101 -0.07281,-0.09101 z"
       id="path5375"
       inkscape:connector-curvature="0" />
    <g
       transform="matrix(0.24365707,0,0,0.24359663,139.97751,-117.88288)"
       style="font-style:normal;font-weight:normal;font-size:195.08903503px;line-height:125%;font-family:sans-serif;letter-spacing:0px;word-spacing:0px;fill:#745ace;fill-opacity:1;stroke:none;stroke-width:1px;stroke-linecap:butt;stroke-linejoin:miter;stroke-opacity:1"
       id="g5377">
      <path
         d="m -762.46464,910.84597 q 0,-21.33787 6.38231,-35.81713 4.76292,-10.66893 12.95513,-19.14692 8.28748,-8.47799 18.09908,-12.5741 13.05039,-5.52498 30.10163,-5.52498 30.8637,0 49.34381,19.14692 18.57537,19.14692 18.57537,53.2494 0,33.8167 -18.38485,52.96362 -18.38486,19.05167 -49.1533,19.05167 -31.14947,0 -49.53432,-18.95641 -18.38486,-19.05166 -18.38486,-52.39207 z m 29.05379,-0.95259 q 0,23.71932 10.95471,36.00765 10.9547,12.19306 27.81543,12.19306 16.86072,0 27.62491,-12.0978 10.85945,-12.19307 10.85945,-36.48394 0,-24.0051 -10.57368,-35.81713 -10.47841,-11.81203 -27.91068,-11.81203 -17.43228,0 -28.10121,12.00255 -10.66893,11.90729 -10.66893,36.00764 z"
         style="font-style:normal;font-variant:normal;font-weight:bold;font-stretch:normal;font-family:Arial;-inkscape-font-specification:'Arial Bold';fill:#745ace;fill-opacity:1"
         id="path5379"
         inkscape:connector-curvature="0" />
      <path
         d="m -605.00263,979.81299 v -139.6487 h 59.34593 q 22.3857,0 32.48308,3.81034 10.19264,3.71507 16.28918,13.33616 6.09653,9.62109 6.09653,22.00467 0,15.71763 -9.24006,26.00552 -9.24005,10.19264 -27.62491,12.85988 9.1448,5.33446 15.05081,11.71677 6.00128,6.38231 16.09866,22.67148 l 17.05124,27.24388 h -33.72145 l -20.38528,-30.38741 q -10.85944,-16.28917 -14.86029,-20.48053 -4.00085,-4.28663 -8.47799,-5.81076 -4.47714,-1.61939 -14.19349,-1.61939 h -5.7155 v 58.29809 z m 28.19646,-80.58854 h 20.86157 q 20.29002,0 25.33871,-1.71465 5.04869,-1.71465 7.90644,-5.90601 2.85775,-4.19137 2.85775,-10.47842 0,-7.04911 -3.81033,-11.33574 -3.71508,-4.38188 -10.57367,-5.52498 -3.4293,-0.47629 -20.5758,-0.47629 h -22.00467 z"
         style="font-style:normal;font-variant:normal;font-weight:bold;font-stretch:normal;font-family:Arial;-inkscape-font-specification:'Arial Bold';fill:#745ace;fill-opacity:1"
         id="path5381"
         inkscape:connector-curvature="0" />
      <path
         d="m -464.30611,840.16429 h 28.19646 v 75.63511 q 0,18.00382 1.04784,23.33829 1.80991,8.57325 8.57325,13.81245 6.8586,5.14395 18.67063,5.14395 12.00255,0 18.09908,-4.85817 6.09654,-4.95343 7.33489,-12.09781 1.23836,-7.14437 1.23836,-23.71932 v -77.2545 h 28.19646 v 73.34891 q 0,25.14819 -2.2862,35.53135 -2.28619,10.38316 -8.47799,17.52753 -6.09653,7.14438 -16.38443,11.431 -10.28789,4.19137 -26.86284,4.19137 -20.00425,0 -30.38741,-4.5724 -10.28789,-4.66766 -16.28917,-12.00255 -6.00127,-7.43015 -7.90644,-15.52711 -2.76249,-12.00254 -2.76249,-35.43609 z"
         style="font-style:normal;font-variant:normal;font-weight:bold;font-stretch:normal;font-family:Arial;-inkscape-font-specification:'Arial Bold';fill:#745ace;fill-opacity:1"
         id="path5383"
         inkscape:connector-curvature="0" />
      <path
         d="m -330.27764,934.37477 27.4344,-2.66723 q 2.47672,13.81245 10.00212,20.29002 7.62067,6.47757 20.48054,6.47757 13.62194,0 20.48054,-5.7155 6.95386,-5.81076 6.95386,-13.52669 0,-4.95343 -2.95301,-8.38273 -2.85775,-3.52455 -10.09738,-6.09653 -4.95344,-1.71465 -22.57622,-6.09653 -22.67148,-5.62024 -31.81628,-13.81246 -12.85988,-11.52625 -12.85988,-28.1012 0,-10.66893 6.00128,-19.90899 6.09653,-9.33532 17.43227,-14.19349 11.431,-4.85817 27.52965,-4.85817 26.2913,0 39.53221,11.52625 13.33616,11.52626 14.00297,30.76844 l -28.19646,1.23836 q -1.80991,-10.76419 -7.81118,-15.43185 -5.90602,-4.76292 -17.81331,-4.76292 -12.28832,0 -19.24218,5.0487 -4.47714,3.23878 -4.47714,8.6685 0,4.95343 4.19136,8.47799 5.33447,4.47714 25.91027,9.33532 20.57579,4.85817 30.3874,10.09738 9.90687,5.14395 15.43185,14.19349 5.62024,8.95428 5.62024,22.19519 0,12.00254 -6.66808,22.48096 -6.66809,10.47841 -18.86115,15.62236 -12.19307,5.04869 -30.3874,5.04869 -26.48182,0 -40.67531,-12.19306 -14.19348,-12.28832 -16.95598,-35.72187 z"
         style="font-style:normal;font-variant:normal;font-weight:bold;font-stretch:normal;font-family:Arial;-inkscape-font-specification:'Arial Bold';fill:#745ace;fill-opacity:1"
         id="path5385"
         inkscape:connector-curvature="0" />
    </g>
  </g>
</svg>
