<?xml version="1.0" encoding="UTF-8" standalone="no"?>
<!-- Created with Inkscape (http://www.inkscape.org/) -->

<svg
   xmlns:dc="http://purl.org/dc/elements/1.1/"
   xmlns:cc="http://creativecommons.org/ns#"
   xmlns:rdf="http://www.w3.org/1999/02/22-rdf-syntax-ns#"
   xmlns:svg="http://www.w3.org/2000/svg"
   xmlns="http://www.w3.org/2000/svg"
   xmlns:sodipodi="http://sodipodi.sourceforge.net/DTD/sodipodi-0.dtd"
   xmlns:inkscape="http://www.inkscape.org/namespaces/inkscape"
   width="240.00002mm"
   height="80mm"
   viewBox="0 0 240.00002 80"
   version="1.1"
   id="svg8"
   inkscape:version="0.92.3 (2405546, 2018-03-11)"
   sodipodi:docname="ultimoingreso.svg">
  <defs
     id="defs2" />
  <sodipodi:namedview
     id="base"
     pagecolor="#ffffff"
     bordercolor="#666666"
     borderopacity="1.0"
     inkscape:pageopacity="0.0"
     inkscape:pageshadow="2"
     inkscape:zoom="0.7"
     inkscape:cx="431.57338"
     inkscape:cy="43.799817"
     inkscape:document-units="mm"
     inkscape:current-layer="layer1"
     showgrid="false"
     fit-margin-top="0"
     fit-margin-left="0"
     fit-margin-right="0"
     fit-margin-bottom="0"
     inkscape:window-width="1360"
     inkscape:window-height="705"
     inkscape:window-x="-8"
     inkscape:window-y="-8"
     inkscape:window-maximized="1" />
  <metadata
     id="metadata5">
    <rdf:RDF>
      <cc:Work
         rdf:about="">
        <dc:format>image/svg+xml</dc:format>
        <dc:type
           rdf:resource="http://purl.org/dc/dcmitype/StillImage" />
        <dc:title />
      </cc:Work>
    </rdf:RDF>
  </metadata>
  <g
     inkscape:label="Capa 1"
     inkscape:groupmode="layer"
     id="layer1"
     transform="translate(136.63096,-61.208333)">
    <path
       inkscape:connector-curvature="0"
       style="opacity:1;fill:none;fill-opacity:1;stroke:#000000;stroke-width:0.48989123;stroke-linecap:round;stroke-linejoin:miter;stroke-miterlimit:4;stroke-dasharray:none;stroke-opacity:1"
       d="M -136.38601,61.453279 H 103.12411 V 140.96339 H -136.38601 Z"
       id="rect1443" />
    <g
       id="g6492"
       transform="matrix(1.0173704,0,0,1.0173704,536.99606,440.6153)"
       style="fill:#666666">
      <g
         aria-label="Centro"
         style="font-style:normal;font-variant:normal;font-weight:normal;font-stretch:normal;font-size:68.9302597px;line-height:1.25;font-family:sans-serif;-inkscape-font-specification:'sans-serif, Normal';font-variant-ligatures:normal;font-variant-caps:normal;font-variant-numeric:normal;font-feature-settings:normal;text-align:start;letter-spacing:0px;word-spacing:0px;writing-mode:lr-tb;text-anchor:start;fill:#666666;fill-opacity:1;stroke:none;stroke-width:1.05350709"
         id="text6422">
        <g
           aria-label="Último"
           style="font-style:normal;font-variant:normal;font-weight:normal;font-stretch:normal;font-size:26.3907299px;line-height:1.25;font-family:sans-serif;-inkscape-font-specification:'sans-serif, Normal';font-variant-ligatures:normal;font-variant-caps:normal;font-variant-numeric:normal;font-feature-settings:normal;text-align:start;letter-spacing:0px;word-spacing:0px;writing-mode:lr-tb;text-anchor:start;fill:#666666;fill-opacity:1;stroke:none;stroke-width:0.42492899"
           id="text6335">
          <path
             d="m -571.21054,-347.30183 q 0,3.95861 4.2753,3.95861 2.21682,0 3.32523,-0.92368 1.1348,-0.95007 1.1348,-3.03493 v -12.77312 h 2.0057 v 12.72034 q 0,3.06132 -1.63623,4.43364 -1.60983,1.37232 -4.77672,1.37232 -3.16689,0 -4.77672,-1.37232 -1.58344,-1.37232 -1.58344,-4.43364 v -12.72034 h 2.03208 z m 1.10841,-16.44143 5.7004,-2.63907 0.68616,1.74179 -5.77957,2.29599 z"
             style="font-style:normal;font-variant:normal;font-weight:normal;font-stretch:normal;font-family:'Titillium Web';-inkscape-font-specification:'Titillium Web';fill:#666666;stroke-width:0.42492899"
             id="path6341" />
          <path
             d="m -556.28576,-341.81256 v -18.94855 h 1.97931 v 18.94855 z"
             style="font-style:normal;font-variant:normal;font-weight:normal;font-stretch:normal;font-family:'Titillium Web';-inkscape-font-specification:'Titillium Web';fill:#666666;stroke-width:0.42492899"
             id="path6343" />
          <path
             d="m -543.52666,-353.29253 h -4.19613 v 6.30739 q 0,2.2696 0.31669,2.98215 0.34308,0.71255 1.58344,0.71255 l 2.34878,-0.15835 0.13195,1.63623 q -1.76818,0.2903 -2.69185,0.2903 -2.05848,0 -2.8502,-1.00285 -0.79172,-1.00285 -0.79172,-3.82666 v -6.94076 h -1.87374 v -1.7154 h 1.87374 v -4.03778 h 1.95291 v 4.03778 h 4.19613 z"
             style="font-style:normal;font-variant:normal;font-weight:normal;font-stretch:normal;font-family:'Titillium Web';-inkscape-font-specification:'Titillium Web';fill:#666666;stroke-width:0.42492899"
             id="path6345" />
          <path
             d="m -541.08387,-341.81256 v -13.19537 h 1.97931 v 13.19537 z m 0,-16.17752 v -2.29599 h 1.97931 v 2.29599 z"
             style="font-style:normal;font-variant:normal;font-weight:normal;font-stretch:normal;font-family:'Titillium Web';-inkscape-font-specification:'Titillium Web';fill:#666666;stroke-width:0.42492899"
             id="path6347" />
          <path
             d="m -533.33159,-341.81256 h -1.97931 v -13.19537 h 1.95292 v 0.92368 q 1.9793,-1.18758 3.85304,-1.18758 2.45434,0 3.4308,1.34592 0.87089,-0.52781 2.24321,-0.92367 1.39871,-0.42225 2.45434,-0.42225 2.63907,0 3.53636,1.4251 0.92367,1.3987 0.92367,5.06702 v 6.96715 h -1.9793 v -6.91437 q 0,-2.74464 -0.52782,-3.74749 -0.52781,-1.02923 -2.24321,-1.02923 -0.87089,0 -1.79457,0.2639 -0.92367,0.23752 -1.4251,0.47504 l -0.50142,0.23751 q 0.34308,0.8709 0.34308,3.85305 v 6.86159 h -1.97931 v -6.80881 q 0,-2.8502 -0.52781,-3.85305 -0.50143,-1.02923 -2.24321,-1.02923 -0.84451,0 -1.74179,0.2639 -0.8709,0.23752 -1.34593,0.47504 l -0.44864,0.23751 z"
             style="font-style:normal;font-variant:normal;font-weight:normal;font-stretch:normal;font-family:'Titillium Web';-inkscape-font-specification:'Titillium Web';fill:#666666;stroke-width:0.42492899"
             id="path6349" />
          <path
             d="m -513.83049,-348.43663 q 0,-3.61553 1.29314,-5.22537 1.29315,-1.60983 4.35447,-1.60983 3.08772,0 4.35447,1.60983 1.29315,1.60984 1.29315,5.22537 0,3.61553 -1.21397,5.25175 -1.21398,1.63623 -4.43365,1.63623 -3.21966,0 -4.43364,-1.63623 -1.21397,-1.63622 -1.21397,-5.25175 z m 2.03208,-0.0264 q 0,2.87658 0.68616,4.03778 0.71255,1.16119 2.92937,1.16119 2.24322,0 2.92938,-1.1348 0.68615,-1.16119 0.68615,-4.06417 0,-2.90299 -0.76533,-3.98501 -0.76533,-1.10841 -2.8502,-1.10841 -2.05847,0 -2.85019,1.10841 -0.76534,1.08202 -0.76534,3.98501 z"
             style="font-style:normal;font-variant:normal;font-weight:normal;font-stretch:normal;font-family:'Titillium Web';-inkscape-font-specification:'Titillium Web';fill:#666666;stroke-width:0.42492899"
             id="path6351" />
        </g>
        <g
           aria-label="Ingreso"
           style="font-style:normal;font-variant:normal;font-weight:normal;font-stretch:normal;font-size:39.43148422px;line-height:1.25;font-family:sans-serif;-inkscape-font-specification:'sans-serif, Normal';font-variant-ligatures:normal;font-variant-caps:normal;font-variant-numeric:normal;font-feature-settings:normal;text-align:start;letter-spacing:0px;word-spacing:0px;writing-mode:lr-tb;text-anchor:start;fill:#666666;fill-opacity:1;stroke:none;stroke-width:0.63490403"
           id="text6339">
          <path
             d="m -572.08698,-310.36951 v -27.28658 h 3.03622 v 27.28658 z"
             style="font-style:normal;font-variant:normal;font-weight:normal;font-stretch:normal;font-family:'Titillium Web';-inkscape-font-specification:'Titillium Web';fill:#666666;stroke-width:0.63490403"
             id="path6354" />
          <path
             d="m -559.93839,-310.36951 h -2.95736 v -19.71574 h 2.91793 v 1.3801 q 3.19395,-1.77441 6.11188,-1.77441 3.94315,0 5.28382,2.1293 1.3801,2.1293 1.3801,7.57084 v 10.40991 h -2.91793 v -10.33105 q 0,-4.10087 -0.82806,-5.59927 -0.78863,-1.53782 -3.43054,-1.53782 -1.26181,0 -2.68134,0.39431 -1.3801,0.35488 -2.1293,0.70977 l -0.7492,0.35488 z"
             style="font-style:normal;font-variant:normal;font-weight:normal;font-stretch:normal;font-family:'Titillium Web';-inkscape-font-specification:'Titillium Web';fill:#666666;stroke-width:0.63490403"
             id="path6356" />
          <path
             d="m -534.10645,-301.10311 q -4.73178,0 -6.62449,-1.30124 -1.85328,-1.2618 -1.85328,-4.65291 0,-1.61669 0.70976,-2.64191 0.70977,-0.98579 2.40532,-2.2476 -1.10408,-0.74919 -1.10408,-2.72077 0,-0.67033 0.98579,-2.48418 l 0.35488,-0.63091 q -3.11508,-1.41953 -3.11508,-5.95415 0,-6.74278 7.37368,-6.74278 1.89271,0 3.50941,0.39431 l 0.59147,0.1183 5.83586,-0.15773 v 2.52361 l -3.74599,-0.0789 q 1.30124,1.30124 1.30124,3.94315 0,3.70656 -1.85328,5.20496 -1.81385,1.45896 -5.757,1.45896 -1.06465,0 -1.93214,-0.15773 -0.70977,1.73499 -0.70977,2.2476 0,1.22238 0.7492,1.53783 0.7492,0.27602 4.53462,0.27602 3.78542,0 5.44154,1.18294 1.65613,1.18295 1.65613,4.61349 0,6.2696 -8.75379,6.2696 z m -5.55984,-6.19074 q 0,2.08987 1.14351,2.8785 1.18294,0.82806 4.29803,0.82806 3.15452,0 4.49519,-0.86749 1.3801,-0.8675 1.3801,-2.91793 0,-2.01101 -0.98578,-2.60248 -0.98579,-0.59147 -3.86429,-0.59147 l -4.2586,-0.19716 q -1.30124,0.94635 -1.77442,1.65612 -0.43374,0.70977 -0.43374,1.81385 z m 0.27602,-16.44293 q 0,2.32646 1.02522,3.31224 1.06465,0.98579 3.46997,0.98579 2.40532,0 3.43054,-0.98579 1.02521,-0.98578 1.02521,-3.31224 0,-2.36589 -1.02521,-3.35168 -1.02522,-0.98578 -3.43054,-0.98578 -2.40532,0 -3.46997,1.02522 -1.02522,0.98578 -1.02522,3.31224 z"
             style="font-style:normal;font-variant:normal;font-weight:normal;font-stretch:normal;font-family:'Titillium Web';-inkscape-font-specification:'Titillium Web';fill:#666666;stroke-width:0.63490403"
             id="path6358" />
          <path
             d="m -521.46189,-310.36951 v -19.71574 h 2.91793 v 2.68134 q 3.43054,-2.36589 7.21597,-3.11509 v 2.9968 q -1.65613,0.31545 -3.46998,0.98578 -1.77441,0.67034 -2.72077,1.18295 l -0.98578,0.51261 v 14.47135 z"
             style="font-style:normal;font-variant:normal;font-weight:normal;font-stretch:normal;font-family:'Titillium Web';-inkscape-font-specification:'Titillium Web';fill:#666666;stroke-width:0.63490403"
             id="path6360" />
          <path
             d="m -494.80866,-312.81426 1.14351,-0.11829 0.0789,2.32645 q -4.49519,0.63091 -7.68914,0.63091 -4.2586,0 -6.03301,-2.44475 -1.77442,-2.48419 -1.77442,-7.68914 0,-10.37048 8.24118,-10.37048 3.98258,0 5.95415,2.24759 1.97158,2.20816 1.97158,6.97937 l -0.15773,2.2476 h -13.01239 q 0,3.27281 1.18295,4.85007 1.18294,1.57726 4.10087,1.57726 2.95736,0 5.99359,-0.23659 z m -1.06465,-8.55663 q 0,-3.6277 -1.18295,-5.12609 -1.14351,-1.4984 -3.78542,-1.4984 -2.60248,0 -3.94315,1.57726 -1.30124,1.57726 -1.34067,5.04723 z"
             style="font-style:normal;font-variant:normal;font-weight:normal;font-stretch:normal;font-family:'Titillium Web';-inkscape-font-specification:'Titillium Web';fill:#666666;stroke-width:0.63490403"
             id="path6362" />
          <path
             d="m -482.07784,-327.83765 q -4.29803,0 -4.29803,2.99679 0,1.3801 0.98578,1.97157 0.98579,0.55204 4.49519,1.18295 3.50941,0.59147 4.96837,1.69555 1.45897,1.10408 1.45897,4.14031 0,3.03622 -1.97158,4.45575 -1.93214,1.41954 -5.67813,1.41954 -2.44475,0 -5.757,-0.55204 l -1.18294,-0.19716 0.15772,-2.56305 q 4.49519,0.67034 6.78222,0.67034 2.28702,0 3.46997,-0.70977 1.22237,-0.7492 1.22237,-2.44475 0,-1.73499 -1.02521,-2.32646 -1.02522,-0.6309 -4.49519,-1.18294 -3.46997,-0.55204 -4.92894,-1.61669 -1.45896,-1.06465 -1.45896,-3.94315 0,-2.8785 2.011,-4.2586 2.05044,-1.3801 5.08666,-1.3801 2.40532,0 6.03302,0.55204 l 1.10408,0.19715 -0.0789,2.52362 q -4.3769,-0.6309 -6.90051,-0.6309 z"
             style="font-style:normal;font-variant:normal;font-weight:normal;font-stretch:normal;font-family:'Titillium Web';-inkscape-font-specification:'Titillium Web';fill:#666666;stroke-width:0.63490403"
             id="path6364" />
          <path
             d="m -470.8066,-320.26681 q 0,-5.40211 1.93214,-7.80743 1.93214,-2.40532 6.5062,-2.40532 4.61348,0 6.50619,2.40532 1.93214,2.40532 1.93214,7.80743 0,5.40211 -1.81384,7.84687 -1.81385,2.44475 -6.62449,2.44475 -4.81064,0 -6.62449,-2.44475 -1.81385,-2.44476 -1.81385,-7.84687 z m 3.03622,-0.0394 q 0,4.29803 1.02522,6.03302 1.06465,1.73498 4.3769,1.73498 3.35167,0 4.37689,-1.69555 1.02522,-1.73499 1.02522,-6.07245 0,-4.33746 -1.14351,-5.95415 -1.14352,-1.65613 -4.2586,-1.65613 -3.07566,0 -4.2586,1.65613 -1.14352,1.61669 -1.14352,5.95415 z"
             style="font-style:normal;font-variant:normal;font-weight:normal;font-stretch:normal;font-family:'Titillium Web';-inkscape-font-specification:'Titillium Web';fill:#666666;stroke-width:0.63490403"
             id="path6366" />
        </g>
      </g>
    </g>
    <g
       style="clip-rule:evenodd;fill:#00a69c;fill-opacity:1;fill-rule:evenodd;image-rendering:optimizeQuality;shape-rendering:geometricPrecision;text-rendering:geometricPrecision"
       id="g6486"
       transform="matrix(0.44894143,0,0,0.44894143,-117.92758,71.534849)"
       inkscape:export-xdpi="96"
       inkscape:export-ydpi="96">
      <g
         id="g6484"
         style="fill:#00a69c;fill-opacity:1">
        <metadata
           id="metadata6430" />
        <g
           id="g6482"
           style="fill:#00a69c;fill-opacity:1">
          <path
             d="M 127.623,78.7466 66.8844,53.5685 c -0.2844,-0.118 -0.5821,-0.1756 -0.8742,-0.16 -0.2925,-0.0156 -0.5916,0.0349 -0.8742,0.16 L 4.6696,78.7466 c -1.0105,0.4203 -1.5099,1.6748 -1.0681,2.7217 l 17.6138,37.8825 c 0.9426,0.4375 6.8026,0.8339 9.9452,-4.2531 1.9033,-2.8232 3.3452,-3.5495 5.5771,-3.6138 3.7619,-0.108 3.9522,1.4184 6.0436,3.7062 3.7178,6.2022 13.411,5.7247 17.2295,0.08 2.2621,-4.3611 8.0109,-5.743 11.4892,-0.2621 3.2215,5.7742 12.7793,6.5222 17.4257,0.0569 2.5341,-5.0196 9.015,-4.2266 11.2543,-0.4065 0.797,1.4936 3.8346,5.8981 10.3181,4.6586 l 18.1935,-37.8487 c 0.4416,-1.0469 -0.0657,-2.2782 -1.0685,-2.7217 z m -70.0553,10.395 0.8246,0.2558 c 0.4454,0.1378 0.8747,-0.2575 0.771,-0.7136 L 58.2921,84.836 c -0.1038,-0.4542 -0.6599,-0.6278 -1.0034,-0.3112 l -2.8961,2.6795 c -0.3434,0.3167 -0.2146,0.8854 0.2326,1.0251 l 0.7548,0.2343 c -0.4507,0.5169 -0.9819,0.9606 -1.5758,1.3112 -0.6727,0.397 -1.4114,0.6671 -2.1805,0.7959 v -6.4252 h 1.8585 c 0.5921,0 1.0732,-0.4812 1.0732,-1.0733 0,-0.592 -0.4811,-1.0732 -1.0732,-1.0732 h -1.8585 v -0.8854 c 1.1591,-0.4365 1.9855,-1.5544 1.9855,-2.8639 0,-1.6867 -1.372,-3.0587 -3.0587,-3.0587 -1.6869,0 -3.0589,1.372 -3.0589,3.0587 0,1.3095 0.8265,2.4291 1.9856,2.8639 v 0.8854 h -1.8586 c -0.592,0 -1.0732,0.4812 -1.0732,1.0732 0,0.5921 0.4812,1.0733 1.0732,1.0733 h 1.8586 v 6.4252 c -0.7674,-0.1306 -1.5079,-0.3989 -2.1804,-0.7959 -0.5921,-0.3524 -1.1252,-0.7961 -1.576,-1.313 l 0.7549,-0.2344 c 0.4454,-0.1378 0.5742,-0.7065 0.2325,-1.0249 l -2.896,-2.6778 c -0.3434,-0.3166 -0.8997,-0.143 -1.0035,0.3112 l -0.871,3.8495 c -0.1039,0.4544 0.3254,0.8514 0.7708,0.7137 l 0.8246,-0.2558 c 0.7013,1.0052 1.6135,1.8531 2.6706,2.4792 1.3112,0.7763 2.8155,1.186 4.3468,1.186 1.5311,0 3.0336,-0.4097 4.3466,-1.186 1.0571,-0.6278 1.9693,-1.4757 2.6706,-2.481 z M 51.4627,78.248 c 0,0.1395 -0.0322,0.272 -0.0876,0.3918 -0.1467,0.3077 -0.4615,0.5205 -0.8246,0.5205 -0.3632,0 -0.6779,-0.2128 -0.8246,-0.5205 -0.0573,-0.1181 -0.0878,-0.2503 -0.0878,-0.3918 0,-0.5025 0.4097,-0.9122 0.9124,-0.9122 0.5025,0 0.9122,0.4097 0.9122,0.9122 z m 15.9829,28.9853 c 1.0773,0 1.951,-0.8735 1.951,-1.9508 0,-0.0606 -0.0032,-0.1185 -0.0085,-0.1731 V 68.311 c 0.0053,-0.0548 0.0085,-0.1126 0.0085,-0.1731 0,-0.0606 -0.0032,-0.1205 -0.0085,-0.1796 v -0.0785 h -0.0085 c -0.1266,-0.9555 -0.9442,-1.6927 -1.934,-1.6927 -0.9897,0 -1.8076,0.7375 -1.9338,1.6927 h -0.0086 v 0.0785 c -0.0056,0.0592 -0.0084,0.119 -0.0084,0.1796 0,0.0605 0.0032,0.1183 0.0084,0.1731 v 36.7984 c -0.0052,0.0546 -0.0084,0.1125 -0.0084,0.1731 0,1.0773 0.8737,1.9508 1.9508,1.9508 z"
             class="fil0"
             id="path6432"
             inkscape:connector-curvature="0"
             style="fill:#00a69c;fill-opacity:1" />
          <g
             id="g6458"
             style="fill:#00a69c;fill-opacity:1">
            <path
               d="m 38.9269,117.685 c -0.8482,2.9409 -3.1474,5.4867 -6.3615,7.4323 -2.9999,1.8163 -6.7188,2.9646 -10.4253,2.8889 -3.2317,-0.0658 -6.8959,-1.2386 -9.8986,-3.0985 -2.9025,-1.7981 -5.2598,-4.2793 -6.1741,-7.1102 l 4.1402,-1.3291 c 0.5752,1.781 2.232,3.4502 4.317,4.7417 2.378,1.4729 5.2298,2.4012 7.7008,2.4513 2.859,0.0581 5.747,-0.8393 8.0909,-2.2584 2.3202,-1.4046 4.0005,-2.9257 4.5387,-4.7912 z"
               class="fil1"
               id="path6434"
               inkscape:connector-curvature="0"
               style="fill:#00a69c;fill-opacity:1;fill-rule:nonzero" />
            <path
               style="fill:#00a69c;fill-opacity:1"
               d="M 10.37973,117.323 A 2.1986899,2.0957699 0 0 1 8.1810398,119.41877 2.1986899,2.0957699 0 0 1 5.9823499,117.323 2.1986899,2.0957699 0 0 1 8.1810398,115.22723 2.1986899,2.0957699 0 0 1 10.37973,117.323 Z"
               id="path6436"
               inkscape:connector-curvature="0" />
            <path
               style="fill:#00a69c;fill-opacity:1"
               d="m 38.975071,117.48 a 2.1640699,2.0957699 0 0 1 -2.16407,2.09577 2.1640699,2.0957699 0 0 1 -2.16407,-2.09577 2.1640699,2.0957699 0 0 1 2.16407,-2.09577 2.1640699,2.0957699 0 0 1 2.16407,2.09577 z"
               id="path6438"
               inkscape:connector-curvature="0" />
            <path
               d="m 67.5519,117.821 c -0.8482,2.9409 -3.1473,5.4867 -6.3614,7.4323 -2.9999,1.8163 -6.7188,2.9647 -10.4254,2.8889 -3.2317,-0.0658 -6.8959,-1.2386 -9.8986,-3.0985 -2.9025,-1.7981 -5.2598,-4.2793 -6.1741,-7.1102 l 4.1402,-1.3291 c 0.5753,1.7811 2.2321,3.4503 4.317,4.7417 2.378,1.4729 5.2298,2.4012 7.7009,2.4513 2.8589,0.0581 5.7469,-0.8393 8.0909,-2.2584 2.3202,-1.4046 4.0005,-2.9257 4.5386,-4.7912 z"
               class="fil1"
               id="path6440"
               inkscape:connector-curvature="0"
               style="fill:#00a69c;fill-opacity:1;fill-rule:nonzero" />
            <path
               style="fill:#00a69c;fill-opacity:1"
               d="m 39.004789,117.46 a 2.1986899,2.0957699 0 0 1 -2.19869,2.09577 2.1986899,2.0957699 0 0 1 -2.19869,-2.09577 2.1986899,2.0957699 0 0 1 2.19869,-2.09577 2.1986899,2.0957699 0 0 1 2.19869,2.09577 z"
               id="path6442"
               inkscape:connector-curvature="0" />
            <path
               style="fill:#00a69c;fill-opacity:1"
               d="m 67.600166,117.617 a 2.1640699,2.0957699 0 0 1 -2.16407,2.09577 2.1640699,2.0957699 0 0 1 -2.16407,-2.09577 2.1640699,2.0957699 0 0 1 2.16407,-2.09577 2.1640699,2.0957699 0 0 1 2.16407,2.09577 z"
               id="path6444"
               inkscape:connector-curvature="0" />
            <path
               d="m 96.4493,117.549 c -0.8482,2.9409 -3.1474,5.4867 -6.3615,7.4323 -2.9999,1.8163 -6.7188,2.9646 -10.4253,2.8889 -3.2317,-0.0658 -6.8959,-1.2386 -9.8986,-3.0985 -2.9025,-1.7981 -5.2598,-4.2794 -6.1741,-7.1102 l 4.1402,-1.3292 c 0.5752,1.7811 2.232,3.4503 4.317,4.7418 2.378,1.4729 5.2298,2.4012 7.7008,2.4512 2.859,0.0582 5.747,-0.8392 8.0909,-2.2583 2.3202,-1.4046 4.0005,-2.9258 4.5387,-4.7912 z"
               class="fil1"
               id="path6446"
               inkscape:connector-curvature="0"
               style="fill:#00a69c;fill-opacity:1;fill-rule:nonzero" />
            <path
               style="fill:#00a69c;fill-opacity:1"
               d="m 67.902189,117.187 a 2.1986899,2.0957699 0 0 1 -2.19869,2.09577 2.1986899,2.0957699 0 0 1 -2.19869,-2.09577 2.1986899,2.0957699 0 0 1 2.19869,-2.09577 2.1986899,2.0957699 0 0 1 2.19869,2.09577 z"
               id="path6448"
               inkscape:connector-curvature="0" />
            <path
               style="fill:#00a69c;fill-opacity:1"
               d="m 96.497467,117.344 a 2.1640699,2.0957699 0 0 1 -2.16407,2.09577 2.1640699,2.0957699 0 0 1 -2.16407,-2.09577 2.1640699,2.0957699 0 0 1 2.16407,-2.09577 2.1640699,2.0957699 0 0 1 2.16407,2.09577 z"
               id="path6450"
               inkscape:connector-curvature="0" />
            <path
               d="m 125.62,117.549 c -0.8482,2.9409 -3.1474,5.4867 -6.3615,7.4323 -2.9999,1.8163 -6.7188,2.9646 -10.4253,2.8889 -3.2317,-0.0658 -6.8959,-1.2386 -9.8986,-3.0985 -2.9025,-1.7981 -5.2598,-4.2794 -6.1741,-7.1102 l 4.1402,-1.3292 c 0.5752,1.7811 2.2321,3.4503 4.317,4.7418 2.378,1.4729 5.2298,2.4012 7.7008,2.4512 2.859,0.0582 5.747,-0.8392 8.091,-2.2583 2.3201,-1.4046 4.0004,-2.9258 4.5386,-4.7912 z"
               class="fil1"
               id="path6452"
               inkscape:connector-curvature="0"
               style="fill:#00a69c;fill-opacity:1;fill-rule:nonzero" />
            <path
               style="fill:#00a69c;fill-opacity:1"
               d="m 97.072492,117.187 a 2.1986899,2.0957699 0 0 1 -2.19869,2.09577 2.1986899,2.0957699 0 0 1 -2.19869,-2.09577 2.1986899,2.0957699 0 0 1 2.19869,-2.09577 2.1986899,2.0957699 0 0 1 2.19869,2.09577 z"
               id="path6454"
               inkscape:connector-curvature="0" />
            <path
               style="fill:#00a69c;fill-opacity:1"
               d="m 125.66807,117.344 a 2.1640699,2.0957699 0 0 1 -2.16407,2.09577 2.1640699,2.0957699 0 0 1 -2.16407,-2.09577 2.1640699,2.0957699 0 0 1 2.16407,-2.09577 2.1640699,2.0957699 0 0 1 2.16407,2.09577 z"
               id="path6456"
               inkscape:connector-curvature="0" />
          </g>
          <g
             id="g6474"
             style="fill:#00a69c;fill-opacity:1">
            <path
               style="fill:#00a69c;fill-opacity:1"
               d="m 123.792,72.8941 -37.7,-15.6277 v -3.6265 h 37.894 v 19.2542 z"
               id="path6460"
               inkscape:connector-curvature="0" />
            <path
               d="m 86.092,28.8657 h 35.3104 c 1.421,0 2.5836,1.1625 2.5836,2.5835 V 49.823 H 86.092 Z"
               class="fil0"
               id="path6462"
               inkscape:connector-curvature="0"
               style="fill:#00a69c;fill-opacity:1" />
            <path
               style="fill:#00a69c;fill-opacity:1"
               d="m 49.2888,53.6399 h 5.6515 l -5.6515,2.3428 z"
               id="path6464"
               inkscape:connector-curvature="0" />
            <path
               style="fill:#00a69c;fill-opacity:1"
               d="m 82.2751,55.6844 -4.9322,-2.0445 h 4.9322 z"
               id="path6466"
               inkscape:connector-curvature="0" />
            <path
               style="fill:#00a69c;fill-opacity:1"
               d="M 82.2751,28.8657 V 49.823 H 49.2888 V 28.8657 Z"
               id="path6468"
               inkscape:connector-curvature="0" />
            <path
               style="fill:#00a69c;fill-opacity:1"
               d="M 7.8509,53.6399 H 45.472 v 3.9248 L 8.4914,72.8941 H 7.8509 Z"
               id="path6470"
               inkscape:connector-curvature="0" />
            <path
               d="M 10.1992,28.8657 H 45.472 V 49.823 H 7.8509 V 31.214 c 0,-1.2918 1.0566,-2.3483 2.3483,-2.3483 z"
               class="fil0"
               id="path6472"
               inkscape:connector-curvature="0"
               style="fill:#00a69c;fill-opacity:1" />
          </g>
          <g
             id="g6480"
             style="fill:#00a69c;fill-opacity:1">
            <path
               d="m 67.7523,4.1454 h 35.3105 c 1.4209,0 2.5835,1.1626 2.5835,2.5836 v 18.3738 h -37.894 z"
               class="fil0"
               id="path6476"
               inkscape:connector-curvature="0"
               style="fill:#00a69c;fill-opacity:1" />
            <path
               d="M 28.5389,4.1454 H 63.8116 V 25.1028 H 26.1906 V 6.4937 c 0,-1.2917 1.0565,-2.3483 2.3483,-2.3483 z"
               class="fil0"
               id="path6478"
               inkscape:connector-curvature="0"
               style="fill:#00a69c;fill-opacity:1" />
          </g>
        </g>
      </g>
    </g>
  </g>
</svg>
